G04 #@! TF.FileFunction,Copper,L2,Bot,Signal*
%FSLAX46Y46*%
G04 Gerber Fmt 4.6, Leading zero omitted, Abs format (unit mm)*
G04 Created by KiCad (PCBNEW 4.0.6) date Thursday, 23 November 2017 'AMt' 10:57:14*
%MOMM*%
%LPD*%
G01*
G04 APERTURE LIST*
%ADD10C,0.100000*%
%ADD11R,1.300000X1.300000*%
%ADD12C,1.300000*%
%ADD13R,1.400000X1.400000*%
%ADD14C,1.400000*%
%ADD15O,1.600000X1.600000*%
%ADD16C,3.810000*%
%ADD17R,3.810000X3.810000*%
%ADD18C,1.524000*%
%ADD19C,1.998980*%
%ADD20O,2.000000X1.200000*%
%ADD21C,4.064000*%
%ADD22O,1.200000X2.000000*%
%ADD23O,2.000000X1.500000*%
%ADD24O,1.500000X2.000000*%
%ADD25O,2.000000X1.524000*%
%ADD26O,1.524000X2.000000*%
%ADD27R,1.727200X2.032000*%
%ADD28O,1.727200X2.032000*%
%ADD29C,1.000000*%
%ADD30C,0.500000*%
%ADD31C,0.250000*%
%ADD32C,0.254000*%
G04 APERTURE END LIST*
D10*
D11*
X129667000Y-77470000D03*
D12*
X129667000Y-82470000D03*
D13*
X114300000Y-93980000D03*
D14*
X114300000Y-88980000D03*
D13*
X158496000Y-62103000D03*
D14*
X163496000Y-62103000D03*
D13*
X155067000Y-62103000D03*
D14*
X150067000Y-62103000D03*
D15*
X116840000Y-71120000D03*
X119380000Y-71120000D03*
X121920000Y-71120000D03*
X121920000Y-63500000D03*
X119380000Y-63500000D03*
X116840000Y-63500000D03*
X116840000Y-60960000D03*
X119380000Y-60960000D03*
X121920000Y-60960000D03*
X121920000Y-53340000D03*
X119380000Y-53340000D03*
X116840000Y-53340000D03*
D16*
X154940000Y-106680000D03*
X160020000Y-106680000D03*
D17*
X149860000Y-106680000D03*
D16*
X165100000Y-106680000D03*
X170180000Y-106680000D03*
X104140000Y-106680000D03*
X109220000Y-106680000D03*
D17*
X99060000Y-106680000D03*
D16*
X114300000Y-106680000D03*
X119380000Y-106680000D03*
D18*
X156210000Y-93980000D03*
X151130000Y-91440000D03*
X156210000Y-88900000D03*
X151130000Y-86360000D03*
X156210000Y-83820000D03*
X156083000Y-77597000D03*
X151003000Y-75057000D03*
X156083000Y-72517000D03*
X151003000Y-69977000D03*
X156083000Y-67437000D03*
D19*
X129540000Y-101600000D03*
X129540000Y-109220000D03*
X133096000Y-87630000D03*
X133096000Y-95250000D03*
X127000000Y-101600000D03*
X127000000Y-109220000D03*
X127000000Y-87630000D03*
X127000000Y-95250000D03*
X124460000Y-101600000D03*
X124460000Y-109220000D03*
X124079000Y-87630000D03*
X124079000Y-95250000D03*
X118999000Y-74803000D03*
X118999000Y-82423000D03*
X115697000Y-74803000D03*
X115697000Y-82423000D03*
X104140000Y-60706000D03*
X104140000Y-53086000D03*
X108204000Y-61087000D03*
X108204000Y-53467000D03*
D20*
X111090000Y-54600000D03*
X111090000Y-57140000D03*
X111090000Y-59680000D03*
X111090000Y-62220000D03*
X111090000Y-64760000D03*
X111090000Y-67300000D03*
X162560000Y-95250000D03*
X162560000Y-92710000D03*
X162560000Y-90170000D03*
X162560000Y-87630000D03*
X162560000Y-85090000D03*
X162560000Y-82550000D03*
X162560000Y-78740000D03*
X162560000Y-76200000D03*
X162560000Y-73660000D03*
X162560000Y-71120000D03*
X162560000Y-68580000D03*
X162560000Y-66040000D03*
D19*
X136144000Y-87630000D03*
X136144000Y-95250000D03*
X130048000Y-87630000D03*
X130048000Y-95250000D03*
X121031000Y-87630000D03*
X121031000Y-95250000D03*
D13*
X141478000Y-104267000D03*
D14*
X141478000Y-109267000D03*
D13*
X136017000Y-104140000D03*
D14*
X136017000Y-109140000D03*
D19*
X122174000Y-74803000D03*
X122174000Y-82423000D03*
X112522000Y-74803000D03*
X112522000Y-82423000D03*
D21*
X94107000Y-111252000D03*
X176022000Y-111125000D03*
D22*
X99695000Y-77718000D03*
X109195000Y-77718000D03*
X99740000Y-93238000D03*
X109265000Y-93238000D03*
D20*
X145126000Y-53711000D03*
X127346000Y-56251000D03*
X127346000Y-58791000D03*
X127346000Y-61331000D03*
X127346000Y-63871000D03*
X145126000Y-56251000D03*
X145126000Y-58791000D03*
X145126000Y-61331000D03*
X145126000Y-63871000D03*
X145126000Y-66411000D03*
D23*
X170180000Y-93345000D03*
X170180000Y-90805000D03*
X170180000Y-88265000D03*
X170180000Y-85725000D03*
X170180000Y-83185000D03*
X170180000Y-80645000D03*
X170180000Y-78105000D03*
X170180000Y-57785000D03*
X170180000Y-60325000D03*
X170180000Y-62865000D03*
X170180000Y-65405000D03*
X170180000Y-67945000D03*
X170180000Y-70485000D03*
X170180000Y-73025000D03*
X170180000Y-75565000D03*
X170180000Y-55245000D03*
X170180000Y-52705000D03*
X167640000Y-52705000D03*
X167640000Y-55245000D03*
X167640000Y-75565000D03*
X167640000Y-73025000D03*
X167640000Y-70485000D03*
X167640000Y-67945000D03*
X167640000Y-65405000D03*
X167640000Y-62865000D03*
X167640000Y-60325000D03*
X167640000Y-57785000D03*
X167640000Y-78105000D03*
X167640000Y-80645000D03*
X167640000Y-83185000D03*
X167640000Y-85725000D03*
X167640000Y-88265000D03*
X167640000Y-90805000D03*
X167640000Y-93345000D03*
D24*
X97790000Y-50165000D03*
X100330000Y-50165000D03*
X102870000Y-50165000D03*
X106680000Y-98425000D03*
X105410000Y-50165000D03*
X109220000Y-98425000D03*
X107950000Y-50165000D03*
X111760000Y-98425000D03*
X110490000Y-50165000D03*
X114300000Y-98425000D03*
X113030000Y-50165000D03*
X116840000Y-98425000D03*
X115570000Y-50165000D03*
X119380000Y-98425000D03*
X119380000Y-50165000D03*
X124460000Y-98425000D03*
X121920000Y-50165000D03*
X127000000Y-98425000D03*
X124460000Y-50165000D03*
X129540000Y-98425000D03*
X127000000Y-50165000D03*
X132080000Y-98425000D03*
X129540000Y-50165000D03*
X134620000Y-98425000D03*
X132080000Y-50165000D03*
X137160000Y-98425000D03*
X134620000Y-50165000D03*
X139700000Y-98425000D03*
X137160000Y-50165000D03*
X142240000Y-98425000D03*
X142240000Y-50165000D03*
X147320000Y-98425000D03*
X144780000Y-50165000D03*
X149860000Y-98425000D03*
X147320000Y-50165000D03*
X152400000Y-98425000D03*
X149860000Y-50165000D03*
X154940000Y-98425000D03*
X152400000Y-50165000D03*
X157480000Y-98425000D03*
X154940000Y-50165000D03*
X160020000Y-98425000D03*
X157480000Y-50165000D03*
X162560000Y-98425000D03*
X160020000Y-50165000D03*
X165100000Y-98425000D03*
D25*
X139690000Y-70520000D03*
X137150000Y-70520000D03*
X137150000Y-73060000D03*
X139690000Y-73060000D03*
X137150000Y-75600000D03*
X139690000Y-75600000D03*
X99050000Y-88300000D03*
X96510000Y-88300000D03*
X96510000Y-85760000D03*
X99050000Y-85760000D03*
X99050000Y-83220000D03*
X96510000Y-83220000D03*
D26*
X95240000Y-50200000D03*
X92700000Y-50200000D03*
D25*
X167630000Y-50200000D03*
X170170000Y-50200000D03*
D24*
X104130000Y-98460000D03*
X101590000Y-98460000D03*
D27*
X158115000Y-58293000D03*
D28*
X160655000Y-58293000D03*
X163195000Y-58293000D03*
D27*
X155702000Y-54483000D03*
D28*
X158242000Y-54483000D03*
X160782000Y-54483000D03*
X163322000Y-54483000D03*
D19*
X100584000Y-53086000D03*
X100584000Y-60706000D03*
D29*
X124079000Y-59436000D03*
X105664000Y-64643000D03*
D30*
X129667000Y-77470000D02*
X132969000Y-77470000D01*
X141859000Y-86360000D02*
X151130000Y-86360000D01*
X132969000Y-77470000D02*
X141859000Y-86360000D01*
X128016000Y-77343000D02*
X129540000Y-77343000D01*
X129540000Y-77343000D02*
X129667000Y-77470000D01*
X99695000Y-77718000D02*
X101098000Y-77718000D01*
X112141000Y-77343000D02*
X128016000Y-77343000D01*
X128016000Y-77343000D02*
X128143000Y-77343000D01*
X110363000Y-75565000D02*
X112141000Y-77343000D01*
X103251000Y-75565000D02*
X110363000Y-75565000D01*
X101098000Y-77718000D02*
X103251000Y-75565000D01*
X163195000Y-58293000D02*
X163195000Y-54610000D01*
X163195000Y-54610000D02*
X163322000Y-54483000D01*
X145126000Y-61331000D02*
X146314000Y-61331000D01*
X162433000Y-56515000D02*
X163195000Y-57277000D01*
X151130000Y-56515000D02*
X162433000Y-56515000D01*
X146314000Y-61331000D02*
X151130000Y-56515000D01*
X163195000Y-57277000D02*
X163195000Y-58293000D01*
X137795000Y-54229000D02*
X137795000Y-56896000D01*
X142230000Y-61331000D02*
X145126000Y-61331000D01*
X137795000Y-56896000D02*
X142230000Y-61331000D01*
X94107000Y-57531000D02*
X94107000Y-56388000D01*
X94107000Y-56388000D02*
X100330000Y-50165000D01*
X100330000Y-50165000D02*
X100330000Y-50419000D01*
X100330000Y-50419000D02*
X98425000Y-52324000D01*
X98425000Y-52324000D02*
X98425000Y-54864000D01*
X98425000Y-54864000D02*
X99441000Y-55880000D01*
X99441000Y-55880000D02*
X108966000Y-55880000D01*
X108966000Y-55880000D02*
X110246000Y-54600000D01*
X110246000Y-54600000D02*
X111090000Y-54600000D01*
X96012000Y-93091000D02*
X96012000Y-92075000D01*
X94107000Y-90170000D02*
X94107000Y-57531000D01*
X94107000Y-57531000D02*
X94107000Y-57404000D01*
X96012000Y-92075000D02*
X94107000Y-90170000D01*
X129667000Y-82470000D02*
X135683000Y-82470000D01*
X142113000Y-88900000D02*
X156210000Y-88900000D01*
X135683000Y-82470000D02*
X142113000Y-88900000D01*
X123872000Y-80819000D02*
X125095000Y-82042000D01*
X123872000Y-80819000D02*
X122682000Y-79629000D01*
X122682000Y-79629000D02*
X111106000Y-79629000D01*
X109195000Y-77718000D02*
X111106000Y-79629000D01*
X125095000Y-82042000D02*
X129239000Y-82042000D01*
X129239000Y-82042000D02*
X129667000Y-82470000D01*
X137719000Y-53289000D02*
X137719000Y-53924000D01*
X109195000Y-77718000D02*
X109195000Y-93168000D01*
X109195000Y-93168000D02*
X109265000Y-93238000D01*
X121920000Y-53340000D02*
X122809000Y-53340000D01*
X136881000Y-52451000D02*
X137719000Y-53289000D01*
X137719000Y-53289000D02*
X137770000Y-53340000D01*
X123698000Y-52451000D02*
X136881000Y-52451000D01*
X122809000Y-53340000D02*
X123698000Y-52451000D01*
X150067000Y-62103000D02*
X150067000Y-62277000D01*
X150067000Y-62277000D02*
X148717000Y-63627000D01*
X141478000Y-109267000D02*
X144065000Y-109267000D01*
X164084000Y-112776000D02*
X170180000Y-106680000D01*
X147574000Y-112776000D02*
X164084000Y-112776000D01*
X144065000Y-109267000D02*
X147574000Y-112776000D01*
X136017000Y-109140000D02*
X141351000Y-109140000D01*
X141351000Y-109140000D02*
X141478000Y-109267000D01*
X125158500Y-112712500D02*
X132143500Y-112712500D01*
X132143500Y-112712500D02*
X135716000Y-109140000D01*
X135716000Y-109140000D02*
X136017000Y-109140000D01*
X111090000Y-54600000D02*
X110246000Y-54600000D01*
X148590000Y-81280000D02*
X156210000Y-88900000D01*
X148590000Y-63580000D02*
X148590000Y-81280000D01*
X121031000Y-87630000D02*
X121031000Y-92329000D01*
X116840000Y-96520000D02*
X116840000Y-98425000D01*
X121031000Y-92329000D02*
X116840000Y-96520000D01*
X124079000Y-87630000D02*
X121031000Y-87630000D01*
X127000000Y-87630000D02*
X124079000Y-87630000D01*
X130048000Y-87630000D02*
X127000000Y-87630000D01*
X133096000Y-87630000D02*
X130048000Y-87630000D01*
X136144000Y-87630000D02*
X133096000Y-87630000D01*
X111090000Y-54600000D02*
X113020000Y-54600000D01*
X113020000Y-54600000D02*
X119380000Y-60960000D01*
X119380000Y-71120000D02*
X119380000Y-66040000D01*
X119380000Y-66040000D02*
X121920000Y-63500000D01*
X162560000Y-85090000D02*
X162433000Y-85090000D01*
X162433000Y-85090000D02*
X160782000Y-83439000D01*
X160782000Y-70358000D02*
X162560000Y-68580000D01*
X160782000Y-83439000D02*
X160782000Y-70358000D01*
X167640000Y-93345000D02*
X167005000Y-93345000D01*
X167005000Y-93345000D02*
X165735000Y-92075000D01*
X164338000Y-86868000D02*
X162560000Y-85090000D01*
X164338000Y-88138000D02*
X164338000Y-86868000D01*
X165735000Y-89535000D02*
X164338000Y-88138000D01*
X165735000Y-92075000D02*
X165735000Y-89535000D01*
X162560000Y-68580000D02*
X162306000Y-68580000D01*
X156210000Y-88900000D02*
X156337000Y-88900000D01*
X119380000Y-60960000D02*
X121920000Y-63500000D01*
X119380000Y-60960000D02*
X119380000Y-55880000D01*
X119380000Y-55880000D02*
X121920000Y-53340000D01*
X170180000Y-106680000D02*
X170180000Y-93345000D01*
X116840000Y-98425000D02*
X116840000Y-91520000D01*
X116840000Y-91520000D02*
X114300000Y-88980000D01*
X119380000Y-106680000D02*
X119380000Y-106934000D01*
X119380000Y-106934000D02*
X125158500Y-112712500D01*
X125158500Y-112712500D02*
X125222000Y-112776000D01*
X114300000Y-106680000D02*
X113792000Y-106680000D01*
X113792000Y-106680000D02*
X110236000Y-110236000D01*
X110236000Y-110236000D02*
X97282000Y-110236000D01*
X97282000Y-110236000D02*
X96012000Y-108966000D01*
X96012000Y-108966000D02*
X96012000Y-93091000D01*
X96012000Y-93091000D02*
X96012000Y-92964000D01*
X96012000Y-92964000D02*
X97790000Y-91186000D01*
X107016000Y-91186000D02*
X109210000Y-93380000D01*
X97790000Y-91186000D02*
X107016000Y-91186000D01*
X114300000Y-88980000D02*
X113610000Y-88980000D01*
X113610000Y-88980000D02*
X109210000Y-93380000D01*
X124460000Y-87630000D02*
X124460000Y-87627980D01*
X116840000Y-98425000D02*
X114300000Y-98425000D01*
X119380000Y-106680000D02*
X114300000Y-106680000D01*
X167640000Y-93345000D02*
X170180000Y-93345000D01*
X119380000Y-98425000D02*
X119380000Y-99060000D01*
X119380000Y-99060000D02*
X129540000Y-109220000D01*
X114300000Y-93980000D02*
X114935000Y-93980000D01*
X99685000Y-93380000D02*
X99685000Y-95621000D01*
X100076000Y-96012000D02*
X112268000Y-96012000D01*
X99685000Y-95621000D02*
X100076000Y-96012000D01*
X112268000Y-96012000D02*
X114300000Y-93980000D01*
X149860000Y-106680000D02*
X148590000Y-106680000D01*
D31*
X129542020Y-95250000D02*
X129542540Y-95250520D01*
X121923060Y-95250000D02*
X121922540Y-95250520D01*
X115697000Y-74803000D02*
X115697000Y-72644000D01*
X114681000Y-63119000D02*
X116840000Y-60960000D01*
X114681000Y-71628000D02*
X114681000Y-63119000D01*
X115697000Y-72644000D02*
X114681000Y-71628000D01*
X112522000Y-74803000D02*
X115697000Y-74803000D01*
X160020000Y-106680000D02*
X159512000Y-106680000D01*
D30*
X124079000Y-59436000D02*
X124079000Y-65405000D01*
X125085000Y-66411000D02*
X145126000Y-66411000D01*
X124079000Y-65405000D02*
X125085000Y-66411000D01*
X108204000Y-61087000D02*
X104521000Y-61087000D01*
X104521000Y-61087000D02*
X104140000Y-60706000D01*
X108204000Y-61087000D02*
X108204000Y-62103000D01*
X108204000Y-62103000D02*
X105664000Y-64643000D01*
X162560000Y-66040000D02*
X163068000Y-66040000D01*
X163068000Y-66040000D02*
X164592000Y-67564000D01*
X164592000Y-80518000D02*
X162560000Y-82550000D01*
X164592000Y-67564000D02*
X164592000Y-80518000D01*
X162550000Y-66030000D02*
X162560000Y-66040000D01*
D31*
X170180000Y-90805000D02*
X170307000Y-90805000D01*
X145243000Y-58674000D02*
X145126000Y-58791000D01*
X162560000Y-90170000D02*
X163068000Y-90170000D01*
X111090000Y-59680000D02*
X111090000Y-59782000D01*
X136550000Y-71120000D02*
X137150000Y-70520000D01*
X111090000Y-64760000D02*
X111750000Y-64760000D01*
X111090000Y-62220000D02*
X111090000Y-62576000D01*
X157480000Y-98425000D02*
X157480000Y-98552000D01*
X163496000Y-62103000D02*
X163322000Y-62103000D01*
X163322000Y-62103000D02*
X159004000Y-66421000D01*
X159004000Y-69596000D02*
X156083000Y-72517000D01*
X159004000Y-66421000D02*
X159004000Y-69596000D01*
X163496000Y-62103000D02*
X162814000Y-62103000D01*
X163496000Y-62103000D02*
X163496000Y-61642000D01*
D32*
G36*
X179070000Y-114046182D02*
X90804529Y-114172818D01*
X90795651Y-111780172D01*
X91439538Y-111780172D01*
X91844709Y-112760761D01*
X92594293Y-113511655D01*
X93574173Y-113918536D01*
X94635172Y-113919462D01*
X95615761Y-113514291D01*
X96366655Y-112764707D01*
X96773536Y-111784827D01*
X96773650Y-111653172D01*
X173354538Y-111653172D01*
X173759709Y-112633761D01*
X174509293Y-113384655D01*
X175489173Y-113791536D01*
X176550172Y-113792462D01*
X177530761Y-113387291D01*
X178281655Y-112637707D01*
X178688536Y-111657827D01*
X178689462Y-110596828D01*
X178284291Y-109616239D01*
X177534707Y-108865345D01*
X176554827Y-108458464D01*
X175493828Y-108457538D01*
X174513239Y-108862709D01*
X173762345Y-109612293D01*
X173355464Y-110592173D01*
X173354538Y-111653172D01*
X96773650Y-111653172D01*
X96774462Y-110723828D01*
X96369291Y-109743239D01*
X95619707Y-108992345D01*
X94639827Y-108585464D01*
X93578828Y-108584538D01*
X92598239Y-108989709D01*
X91847345Y-109739293D01*
X91440464Y-110719173D01*
X91439538Y-111780172D01*
X90795651Y-111780172D01*
X90769658Y-104775000D01*
X96507560Y-104775000D01*
X96507560Y-108585000D01*
X96551838Y-108820317D01*
X96690910Y-109036441D01*
X96903110Y-109181431D01*
X97155000Y-109232440D01*
X100965000Y-109232440D01*
X101200317Y-109188162D01*
X101416441Y-109049090D01*
X101561431Y-108836890D01*
X101612440Y-108585000D01*
X101612440Y-107214193D01*
X101985437Y-108116915D01*
X102699327Y-108832052D01*
X103632546Y-109219559D01*
X104643021Y-109220440D01*
X105576915Y-108834563D01*
X106292052Y-108120673D01*
X106679559Y-107187454D01*
X106679563Y-107183028D01*
X107065437Y-108116915D01*
X107779327Y-108832052D01*
X108712546Y-109219559D01*
X109723021Y-109220440D01*
X110656915Y-108834563D01*
X111005646Y-108486440D01*
X112673165Y-108486440D01*
X112882353Y-108847289D01*
X113819650Y-109224824D01*
X114830077Y-109214933D01*
X115717647Y-108847289D01*
X115926835Y-108486440D01*
X117753165Y-108486440D01*
X117962353Y-108847289D01*
X118899650Y-109224824D01*
X119910077Y-109214933D01*
X120797647Y-108847289D01*
X121006835Y-108486440D01*
X119380000Y-106859605D01*
X117753165Y-108486440D01*
X115926835Y-108486440D01*
X114300000Y-106859605D01*
X112673165Y-108486440D01*
X111005646Y-108486440D01*
X111372052Y-108120673D01*
X111759559Y-107187454D01*
X111759991Y-106691568D01*
X111765067Y-107210077D01*
X112132711Y-108097647D01*
X112493560Y-108306835D01*
X114120395Y-106680000D01*
X114479605Y-106680000D01*
X116106440Y-108306835D01*
X116467289Y-108097647D01*
X116844586Y-107160941D01*
X116845067Y-107210077D01*
X117212711Y-108097647D01*
X117573560Y-108306835D01*
X119200395Y-106680000D01*
X119559605Y-106680000D01*
X121186440Y-108306835D01*
X121547289Y-108097647D01*
X121924824Y-107160350D01*
X121914933Y-106149923D01*
X121547289Y-105262353D01*
X121186440Y-105053165D01*
X119559605Y-106680000D01*
X119200395Y-106680000D01*
X117573560Y-105053165D01*
X117212711Y-105262353D01*
X116835414Y-106199059D01*
X116834933Y-106149923D01*
X116467289Y-105262353D01*
X116106440Y-105053165D01*
X114479605Y-106680000D01*
X114120395Y-106680000D01*
X112493560Y-105053165D01*
X112132711Y-105262353D01*
X111760432Y-106186602D01*
X111760440Y-106176979D01*
X111374563Y-105243085D01*
X111005683Y-104873560D01*
X112673165Y-104873560D01*
X114300000Y-106500395D01*
X115926835Y-104873560D01*
X117753165Y-104873560D01*
X119380000Y-106500395D01*
X121006835Y-104873560D01*
X120797647Y-104512711D01*
X119860350Y-104135176D01*
X118849923Y-104145067D01*
X117962353Y-104512711D01*
X117753165Y-104873560D01*
X115926835Y-104873560D01*
X115717647Y-104512711D01*
X114780350Y-104135176D01*
X113769923Y-104145067D01*
X112882353Y-104512711D01*
X112673165Y-104873560D01*
X111005683Y-104873560D01*
X110660673Y-104527948D01*
X109727454Y-104140441D01*
X108716979Y-104139560D01*
X107783085Y-104525437D01*
X107067948Y-105239327D01*
X106680441Y-106172546D01*
X106680437Y-106176972D01*
X106294563Y-105243085D01*
X105580673Y-104527948D01*
X104647454Y-104140441D01*
X103636979Y-104139560D01*
X102703085Y-104525437D01*
X101987948Y-105239327D01*
X101612440Y-106143649D01*
X101612440Y-104775000D01*
X101568162Y-104539683D01*
X101429090Y-104323559D01*
X101216890Y-104178569D01*
X100965000Y-104127560D01*
X97155000Y-104127560D01*
X96919683Y-104171838D01*
X96703559Y-104310910D01*
X96558569Y-104523110D01*
X96507560Y-104775000D01*
X90769658Y-104775000D01*
X90725247Y-92805968D01*
X98505000Y-92805968D01*
X98505000Y-93670032D01*
X98599009Y-94142646D01*
X98800000Y-94443451D01*
X98800000Y-95620995D01*
X98799999Y-95621000D01*
X98856190Y-95903484D01*
X98867367Y-95959675D01*
X98976682Y-96123277D01*
X99059210Y-96246790D01*
X99450208Y-96637787D01*
X99450210Y-96637790D01*
X99630070Y-96757968D01*
X99737326Y-96829634D01*
X100076000Y-96897001D01*
X100076005Y-96897000D01*
X101066996Y-96897000D01*
X101059983Y-96898395D01*
X100610657Y-97198625D01*
X100310427Y-97647951D01*
X100205000Y-98177968D01*
X100205000Y-98742032D01*
X100310427Y-99272049D01*
X100610657Y-99721375D01*
X101059983Y-100021605D01*
X101590000Y-100127032D01*
X102120017Y-100021605D01*
X102569343Y-99721375D01*
X102860000Y-99286376D01*
X103150657Y-99721375D01*
X103599983Y-100021605D01*
X104130000Y-100127032D01*
X104660017Y-100021605D01*
X105109343Y-99721375D01*
X105409573Y-99272049D01*
X105412840Y-99255626D01*
X105700657Y-99686375D01*
X106149983Y-99986605D01*
X106680000Y-100092032D01*
X107210017Y-99986605D01*
X107659343Y-99686375D01*
X107950000Y-99251376D01*
X108240657Y-99686375D01*
X108689983Y-99986605D01*
X109220000Y-100092032D01*
X109750017Y-99986605D01*
X110199343Y-99686375D01*
X110490000Y-99251376D01*
X110780657Y-99686375D01*
X111229983Y-99986605D01*
X111760000Y-100092032D01*
X112290017Y-99986605D01*
X112739343Y-99686375D01*
X113035489Y-99243161D01*
X113050036Y-99296721D01*
X113383106Y-99727736D01*
X113855765Y-99998481D01*
X113958815Y-100017318D01*
X114173000Y-99894656D01*
X114173000Y-98552000D01*
X114427000Y-98552000D01*
X114427000Y-99894656D01*
X114641185Y-100017318D01*
X114744235Y-99998481D01*
X115216894Y-99727736D01*
X115549964Y-99296721D01*
X115570000Y-99222953D01*
X115590036Y-99296721D01*
X115923106Y-99727736D01*
X116395765Y-99998481D01*
X116498815Y-100017318D01*
X116713000Y-99894656D01*
X116713000Y-98552000D01*
X115608132Y-98552000D01*
X115570000Y-98603924D01*
X115531868Y-98552000D01*
X114427000Y-98552000D01*
X114173000Y-98552000D01*
X114153000Y-98552000D01*
X114153000Y-98298000D01*
X114173000Y-98298000D01*
X114173000Y-96955344D01*
X114427000Y-96955344D01*
X114427000Y-98298000D01*
X115531868Y-98298000D01*
X115570000Y-98246076D01*
X115608132Y-98298000D01*
X116713000Y-98298000D01*
X116713000Y-96955344D01*
X116967000Y-96955344D01*
X116967000Y-98298000D01*
X116987000Y-98298000D01*
X116987000Y-98552000D01*
X116967000Y-98552000D01*
X116967000Y-99894656D01*
X117181185Y-100017318D01*
X117284235Y-99998481D01*
X117756894Y-99727736D01*
X118089964Y-99296721D01*
X118104511Y-99243161D01*
X118400657Y-99686375D01*
X118849983Y-99986605D01*
X119105938Y-100037518D01*
X126660272Y-107591851D01*
X126075345Y-107833538D01*
X125729801Y-108178480D01*
X125387073Y-107835154D01*
X124786547Y-107585794D01*
X124136306Y-107585226D01*
X123535345Y-107833538D01*
X123075154Y-108292927D01*
X122825794Y-108893453D01*
X122825226Y-109543694D01*
X123073538Y-110144655D01*
X123532927Y-110604846D01*
X124133453Y-110854206D01*
X124783694Y-110854774D01*
X125384655Y-110606462D01*
X125730199Y-110261520D01*
X126072927Y-110604846D01*
X126673453Y-110854206D01*
X127323694Y-110854774D01*
X127924655Y-110606462D01*
X128270199Y-110261520D01*
X128612927Y-110604846D01*
X129213453Y-110854206D01*
X129863694Y-110854774D01*
X130464655Y-110606462D01*
X130924846Y-110147073D01*
X130954659Y-110075275D01*
X135261331Y-110075275D01*
X135323169Y-110311042D01*
X135824122Y-110487419D01*
X136354440Y-110458664D01*
X136710831Y-110311042D01*
X136739358Y-110202275D01*
X140722331Y-110202275D01*
X140784169Y-110438042D01*
X141285122Y-110614419D01*
X141815440Y-110585664D01*
X142171831Y-110438042D01*
X142233669Y-110202275D01*
X141478000Y-109446605D01*
X140722331Y-110202275D01*
X136739358Y-110202275D01*
X136772669Y-110075275D01*
X136017000Y-109319605D01*
X135261331Y-110075275D01*
X130954659Y-110075275D01*
X131174206Y-109546547D01*
X131174729Y-108947122D01*
X134669581Y-108947122D01*
X134698336Y-109477440D01*
X134845958Y-109833831D01*
X135081725Y-109895669D01*
X135837395Y-109140000D01*
X136196605Y-109140000D01*
X136952275Y-109895669D01*
X137188042Y-109833831D01*
X137364419Y-109332878D01*
X137350389Y-109074122D01*
X140130581Y-109074122D01*
X140159336Y-109604440D01*
X140306958Y-109960831D01*
X140542725Y-110022669D01*
X141298395Y-109267000D01*
X141657605Y-109267000D01*
X142413275Y-110022669D01*
X142649042Y-109960831D01*
X142825419Y-109459878D01*
X142796664Y-108929560D01*
X142649042Y-108573169D01*
X142413275Y-108511331D01*
X141657605Y-109267000D01*
X141298395Y-109267000D01*
X140542725Y-108511331D01*
X140306958Y-108573169D01*
X140130581Y-109074122D01*
X137350389Y-109074122D01*
X137335664Y-108802560D01*
X137188042Y-108446169D01*
X136952275Y-108384331D01*
X136196605Y-109140000D01*
X135837395Y-109140000D01*
X135081725Y-108384331D01*
X134845958Y-108446169D01*
X134669581Y-108947122D01*
X131174729Y-108947122D01*
X131174774Y-108896306D01*
X130926462Y-108295345D01*
X130836000Y-108204725D01*
X135261331Y-108204725D01*
X136017000Y-108960395D01*
X136645669Y-108331725D01*
X140722331Y-108331725D01*
X141478000Y-109087395D01*
X142233669Y-108331725D01*
X142171831Y-108095958D01*
X141670878Y-107919581D01*
X141140560Y-107948336D01*
X140784169Y-108095958D01*
X140722331Y-108331725D01*
X136645669Y-108331725D01*
X136772669Y-108204725D01*
X136710831Y-107968958D01*
X136209878Y-107792581D01*
X135679560Y-107821336D01*
X135323169Y-107968958D01*
X135261331Y-108204725D01*
X130836000Y-108204725D01*
X130467073Y-107835154D01*
X129866547Y-107585794D01*
X129216306Y-107585226D01*
X129174202Y-107602623D01*
X125011579Y-103440000D01*
X134669560Y-103440000D01*
X134669560Y-104840000D01*
X134713838Y-105075317D01*
X134852910Y-105291441D01*
X135065110Y-105436431D01*
X135317000Y-105487440D01*
X136717000Y-105487440D01*
X136952317Y-105443162D01*
X137168441Y-105304090D01*
X137313431Y-105091890D01*
X137364440Y-104840000D01*
X137364440Y-103567000D01*
X140130560Y-103567000D01*
X140130560Y-104967000D01*
X140174838Y-105202317D01*
X140313910Y-105418441D01*
X140526110Y-105563431D01*
X140778000Y-105614440D01*
X142178000Y-105614440D01*
X142413317Y-105570162D01*
X142629441Y-105431090D01*
X142774431Y-105218890D01*
X142825440Y-104967000D01*
X142825440Y-104775000D01*
X147307560Y-104775000D01*
X147307560Y-108585000D01*
X147351838Y-108820317D01*
X147490910Y-109036441D01*
X147703110Y-109181431D01*
X147955000Y-109232440D01*
X151765000Y-109232440D01*
X152000317Y-109188162D01*
X152216441Y-109049090D01*
X152361431Y-108836890D01*
X152412440Y-108585000D01*
X152412440Y-107214193D01*
X152785437Y-108116915D01*
X153499327Y-108832052D01*
X154432546Y-109219559D01*
X155443021Y-109220440D01*
X156376915Y-108834563D01*
X157092052Y-108120673D01*
X157479559Y-107187454D01*
X157479563Y-107183028D01*
X157865437Y-108116915D01*
X158579327Y-108832052D01*
X159512546Y-109219559D01*
X160523021Y-109220440D01*
X161456915Y-108834563D01*
X162172052Y-108120673D01*
X162559559Y-107187454D01*
X162559563Y-107183028D01*
X162945437Y-108116915D01*
X163659327Y-108832052D01*
X164592546Y-109219559D01*
X165603021Y-109220440D01*
X166536915Y-108834563D01*
X166885646Y-108486440D01*
X168553165Y-108486440D01*
X168762353Y-108847289D01*
X169699650Y-109224824D01*
X170710077Y-109214933D01*
X171597647Y-108847289D01*
X171806835Y-108486440D01*
X170180000Y-106859605D01*
X168553165Y-108486440D01*
X166885646Y-108486440D01*
X167252052Y-108120673D01*
X167639559Y-107187454D01*
X167639991Y-106691568D01*
X167645067Y-107210077D01*
X168012711Y-108097647D01*
X168373560Y-108306835D01*
X170000395Y-106680000D01*
X170359605Y-106680000D01*
X171986440Y-108306835D01*
X172347289Y-108097647D01*
X172724824Y-107160350D01*
X172714933Y-106149923D01*
X172347289Y-105262353D01*
X171986440Y-105053165D01*
X170359605Y-106680000D01*
X170000395Y-106680000D01*
X168373560Y-105053165D01*
X168012711Y-105262353D01*
X167640432Y-106186602D01*
X167640440Y-106176979D01*
X167254563Y-105243085D01*
X166885683Y-104873560D01*
X168553165Y-104873560D01*
X170180000Y-106500395D01*
X171806835Y-104873560D01*
X171597647Y-104512711D01*
X170660350Y-104135176D01*
X169649923Y-104145067D01*
X168762353Y-104512711D01*
X168553165Y-104873560D01*
X166885683Y-104873560D01*
X166540673Y-104527948D01*
X165607454Y-104140441D01*
X164596979Y-104139560D01*
X163663085Y-104525437D01*
X162947948Y-105239327D01*
X162560441Y-106172546D01*
X162560437Y-106176972D01*
X162174563Y-105243085D01*
X161460673Y-104527948D01*
X160527454Y-104140441D01*
X159516979Y-104139560D01*
X158583085Y-104525437D01*
X157867948Y-105239327D01*
X157480441Y-106172546D01*
X157480437Y-106176972D01*
X157094563Y-105243085D01*
X156380673Y-104527948D01*
X155447454Y-104140441D01*
X154436979Y-104139560D01*
X153503085Y-104525437D01*
X152787948Y-105239327D01*
X152412440Y-106143649D01*
X152412440Y-104775000D01*
X152368162Y-104539683D01*
X152229090Y-104323559D01*
X152016890Y-104178569D01*
X151765000Y-104127560D01*
X147955000Y-104127560D01*
X147719683Y-104171838D01*
X147503559Y-104310910D01*
X147358569Y-104523110D01*
X147307560Y-104775000D01*
X142825440Y-104775000D01*
X142825440Y-103567000D01*
X142781162Y-103331683D01*
X142642090Y-103115559D01*
X142429890Y-102970569D01*
X142178000Y-102919560D01*
X140778000Y-102919560D01*
X140542683Y-102963838D01*
X140326559Y-103102910D01*
X140181569Y-103315110D01*
X140130560Y-103567000D01*
X137364440Y-103567000D01*
X137364440Y-103440000D01*
X137320162Y-103204683D01*
X137181090Y-102988559D01*
X136968890Y-102843569D01*
X136717000Y-102792560D01*
X135317000Y-102792560D01*
X135081683Y-102836838D01*
X134865559Y-102975910D01*
X134720569Y-103188110D01*
X134669560Y-103440000D01*
X125011579Y-103440000D01*
X124799728Y-103228149D01*
X125384655Y-102986462D01*
X125730199Y-102641520D01*
X126072927Y-102984846D01*
X126673453Y-103234206D01*
X127323694Y-103234774D01*
X127924655Y-102986462D01*
X128270199Y-102641520D01*
X128612927Y-102984846D01*
X129213453Y-103234206D01*
X129863694Y-103234774D01*
X130464655Y-102986462D01*
X130924846Y-102527073D01*
X131174206Y-101926547D01*
X131174774Y-101276306D01*
X130926462Y-100675345D01*
X130467073Y-100215154D01*
X129966333Y-100007229D01*
X130070017Y-99986605D01*
X130519343Y-99686375D01*
X130810000Y-99251376D01*
X131100657Y-99686375D01*
X131549983Y-99986605D01*
X132080000Y-100092032D01*
X132610017Y-99986605D01*
X133059343Y-99686375D01*
X133350000Y-99251376D01*
X133640657Y-99686375D01*
X134089983Y-99986605D01*
X134620000Y-100092032D01*
X135150017Y-99986605D01*
X135599343Y-99686375D01*
X135890000Y-99251376D01*
X136180657Y-99686375D01*
X136629983Y-99986605D01*
X137160000Y-100092032D01*
X137690017Y-99986605D01*
X138139343Y-99686375D01*
X138430000Y-99251376D01*
X138720657Y-99686375D01*
X139169983Y-99986605D01*
X139700000Y-100092032D01*
X140230017Y-99986605D01*
X140679343Y-99686375D01*
X140970000Y-99251376D01*
X141260657Y-99686375D01*
X141709983Y-99986605D01*
X142240000Y-100092032D01*
X142770017Y-99986605D01*
X143219343Y-99686375D01*
X143519573Y-99237049D01*
X143625000Y-98707032D01*
X143625000Y-98142968D01*
X145935000Y-98142968D01*
X145935000Y-98707032D01*
X146040427Y-99237049D01*
X146340657Y-99686375D01*
X146789983Y-99986605D01*
X147320000Y-100092032D01*
X147850017Y-99986605D01*
X148299343Y-99686375D01*
X148590000Y-99251376D01*
X148880657Y-99686375D01*
X149329983Y-99986605D01*
X149860000Y-100092032D01*
X150390017Y-99986605D01*
X150839343Y-99686375D01*
X151130000Y-99251376D01*
X151420657Y-99686375D01*
X151869983Y-99986605D01*
X152400000Y-100092032D01*
X152930017Y-99986605D01*
X153379343Y-99686375D01*
X153670000Y-99251376D01*
X153960657Y-99686375D01*
X154409983Y-99986605D01*
X154940000Y-100092032D01*
X155470017Y-99986605D01*
X155919343Y-99686375D01*
X156210000Y-99251376D01*
X156500657Y-99686375D01*
X156949983Y-99986605D01*
X157480000Y-100092032D01*
X158010017Y-99986605D01*
X158459343Y-99686375D01*
X158750000Y-99251376D01*
X159040657Y-99686375D01*
X159489983Y-99986605D01*
X160020000Y-100092032D01*
X160550017Y-99986605D01*
X160999343Y-99686375D01*
X161290000Y-99251376D01*
X161580657Y-99686375D01*
X162029983Y-99986605D01*
X162560000Y-100092032D01*
X163090017Y-99986605D01*
X163539343Y-99686375D01*
X163830000Y-99251376D01*
X164120657Y-99686375D01*
X164569983Y-99986605D01*
X165100000Y-100092032D01*
X165630017Y-99986605D01*
X166079343Y-99686375D01*
X166379573Y-99237049D01*
X166485000Y-98707032D01*
X166485000Y-98142968D01*
X166379573Y-97612951D01*
X166079343Y-97163625D01*
X165630017Y-96863395D01*
X165100000Y-96757968D01*
X164569983Y-96863395D01*
X164120657Y-97163625D01*
X163830000Y-97598624D01*
X163539343Y-97163625D01*
X163090017Y-96863395D01*
X162560000Y-96757968D01*
X162029983Y-96863395D01*
X161580657Y-97163625D01*
X161290000Y-97598624D01*
X160999343Y-97163625D01*
X160550017Y-96863395D01*
X160020000Y-96757968D01*
X159489983Y-96863395D01*
X159040657Y-97163625D01*
X158750000Y-97598624D01*
X158459343Y-97163625D01*
X158010017Y-96863395D01*
X157480000Y-96757968D01*
X156949983Y-96863395D01*
X156500657Y-97163625D01*
X156210000Y-97598624D01*
X155919343Y-97163625D01*
X155470017Y-96863395D01*
X154940000Y-96757968D01*
X154409983Y-96863395D01*
X153960657Y-97163625D01*
X153670000Y-97598624D01*
X153379343Y-97163625D01*
X152930017Y-96863395D01*
X152400000Y-96757968D01*
X151869983Y-96863395D01*
X151420657Y-97163625D01*
X151130000Y-97598624D01*
X150839343Y-97163625D01*
X150390017Y-96863395D01*
X149860000Y-96757968D01*
X149329983Y-96863395D01*
X148880657Y-97163625D01*
X148590000Y-97598624D01*
X148299343Y-97163625D01*
X147850017Y-96863395D01*
X147320000Y-96757968D01*
X146789983Y-96863395D01*
X146340657Y-97163625D01*
X146040427Y-97612951D01*
X145935000Y-98142968D01*
X143625000Y-98142968D01*
X143519573Y-97612951D01*
X143219343Y-97163625D01*
X142770017Y-96863395D01*
X142240000Y-96757968D01*
X141709983Y-96863395D01*
X141260657Y-97163625D01*
X140970000Y-97598624D01*
X140679343Y-97163625D01*
X140230017Y-96863395D01*
X139700000Y-96757968D01*
X139169983Y-96863395D01*
X138720657Y-97163625D01*
X138430000Y-97598624D01*
X138139343Y-97163625D01*
X137690017Y-96863395D01*
X137160000Y-96757968D01*
X136629983Y-96863395D01*
X136180657Y-97163625D01*
X135890000Y-97598624D01*
X135599343Y-97163625D01*
X135150017Y-96863395D01*
X134620000Y-96757968D01*
X134089983Y-96863395D01*
X133640657Y-97163625D01*
X133350000Y-97598624D01*
X133059343Y-97163625D01*
X132610017Y-96863395D01*
X132080000Y-96757968D01*
X131549983Y-96863395D01*
X131100657Y-97163625D01*
X130810000Y-97598624D01*
X130519343Y-97163625D01*
X130101660Y-96884538D01*
X130371694Y-96884774D01*
X130972655Y-96636462D01*
X131432846Y-96177073D01*
X131572034Y-95841870D01*
X131709538Y-96174655D01*
X132168927Y-96634846D01*
X132769453Y-96884206D01*
X133419694Y-96884774D01*
X134020655Y-96636462D01*
X134480846Y-96177073D01*
X134620034Y-95841870D01*
X134757538Y-96174655D01*
X135216927Y-96634846D01*
X135817453Y-96884206D01*
X136467694Y-96884774D01*
X137068655Y-96636462D01*
X137528846Y-96177073D01*
X137778206Y-95576547D01*
X137778774Y-94926306D01*
X137530462Y-94325345D01*
X137461898Y-94256661D01*
X154812758Y-94256661D01*
X155024990Y-94770303D01*
X155417630Y-95163629D01*
X155930900Y-95376757D01*
X156486661Y-95377242D01*
X156794610Y-95250000D01*
X160892968Y-95250000D01*
X160986977Y-95722614D01*
X161254691Y-96123277D01*
X161655354Y-96390991D01*
X162127968Y-96485000D01*
X162992032Y-96485000D01*
X163464646Y-96390991D01*
X163865309Y-96123277D01*
X164133023Y-95722614D01*
X164227032Y-95250000D01*
X164133023Y-94777386D01*
X163865309Y-94376723D01*
X163464646Y-94109009D01*
X162992032Y-94015000D01*
X162127968Y-94015000D01*
X161655354Y-94109009D01*
X161254691Y-94376723D01*
X160986977Y-94777386D01*
X160892968Y-95250000D01*
X156794610Y-95250000D01*
X157000303Y-95165010D01*
X157393629Y-94772370D01*
X157606757Y-94259100D01*
X157607242Y-93703339D01*
X157395010Y-93189697D01*
X157002370Y-92796371D01*
X156794366Y-92710000D01*
X160892968Y-92710000D01*
X160986977Y-93182614D01*
X161254691Y-93583277D01*
X161655354Y-93850991D01*
X162127968Y-93945000D01*
X162992032Y-93945000D01*
X163464646Y-93850991D01*
X163711296Y-93686185D01*
X166047682Y-93686185D01*
X166066519Y-93789235D01*
X166337264Y-94261894D01*
X166768279Y-94594964D01*
X167293945Y-94737739D01*
X167513000Y-94576868D01*
X167513000Y-93472000D01*
X167767000Y-93472000D01*
X167767000Y-94576868D01*
X167986055Y-94737739D01*
X168511721Y-94594964D01*
X168910000Y-94287191D01*
X169308279Y-94594964D01*
X169833945Y-94737739D01*
X170053000Y-94576868D01*
X170053000Y-93472000D01*
X170307000Y-93472000D01*
X170307000Y-94576868D01*
X170526055Y-94737739D01*
X171051721Y-94594964D01*
X171482736Y-94261894D01*
X171753481Y-93789235D01*
X171772318Y-93686185D01*
X171649656Y-93472000D01*
X170307000Y-93472000D01*
X170053000Y-93472000D01*
X167767000Y-93472000D01*
X167513000Y-93472000D01*
X166170344Y-93472000D01*
X166047682Y-93686185D01*
X163711296Y-93686185D01*
X163865309Y-93583277D01*
X164133023Y-93182614D01*
X164227032Y-92710000D01*
X164133023Y-92237386D01*
X163865309Y-91836723D01*
X163464646Y-91569009D01*
X162992032Y-91475000D01*
X162127968Y-91475000D01*
X161655354Y-91569009D01*
X161254691Y-91836723D01*
X160986977Y-92237386D01*
X160892968Y-92710000D01*
X156794366Y-92710000D01*
X156489100Y-92583243D01*
X155933339Y-92582758D01*
X155419697Y-92794990D01*
X155026371Y-93187630D01*
X154813243Y-93700900D01*
X154812758Y-94256661D01*
X137461898Y-94256661D01*
X137071073Y-93865154D01*
X136470547Y-93615794D01*
X135820306Y-93615226D01*
X135219345Y-93863538D01*
X134759154Y-94322927D01*
X134619966Y-94658130D01*
X134482462Y-94325345D01*
X134023073Y-93865154D01*
X133422547Y-93615794D01*
X132772306Y-93615226D01*
X132171345Y-93863538D01*
X131711154Y-94322927D01*
X131571966Y-94658130D01*
X131434462Y-94325345D01*
X130975073Y-93865154D01*
X130374547Y-93615794D01*
X129724306Y-93615226D01*
X129123345Y-93863538D01*
X128663154Y-94322927D01*
X128523966Y-94658130D01*
X128386462Y-94325345D01*
X127927073Y-93865154D01*
X127326547Y-93615794D01*
X126676306Y-93615226D01*
X126075345Y-93863538D01*
X125615154Y-94322927D01*
X125539623Y-94504827D01*
X125465462Y-94325345D01*
X125006073Y-93865154D01*
X124405547Y-93615794D01*
X123755306Y-93615226D01*
X123154345Y-93863538D01*
X122694154Y-94322927D01*
X122554966Y-94658130D01*
X122417462Y-94325345D01*
X121958073Y-93865154D01*
X121357547Y-93615794D01*
X120707306Y-93615226D01*
X120106345Y-93863538D01*
X119646154Y-94322927D01*
X119396794Y-94923453D01*
X119396226Y-95573694D01*
X119644538Y-96174655D01*
X120103927Y-96634846D01*
X120704453Y-96884206D01*
X121354694Y-96884774D01*
X121955655Y-96636462D01*
X122415846Y-96177073D01*
X122555034Y-95841870D01*
X122692538Y-96174655D01*
X123151927Y-96634846D01*
X123752453Y-96884206D01*
X123898646Y-96884334D01*
X123480657Y-97163625D01*
X123180427Y-97612951D01*
X123075000Y-98142968D01*
X123075000Y-98707032D01*
X123180427Y-99237049D01*
X123480657Y-99686375D01*
X123929983Y-99986605D01*
X124034331Y-100007361D01*
X123535345Y-100213538D01*
X123075154Y-100672927D01*
X122831439Y-101259859D01*
X120684303Y-99112723D01*
X120765000Y-98707032D01*
X120765000Y-98142968D01*
X120659573Y-97612951D01*
X120359343Y-97163625D01*
X119910017Y-96863395D01*
X119380000Y-96757968D01*
X118849983Y-96863395D01*
X118400657Y-97163625D01*
X118104511Y-97606839D01*
X118089964Y-97553279D01*
X117756894Y-97122264D01*
X117284235Y-96851519D01*
X117181185Y-96832682D01*
X116967000Y-96955344D01*
X116713000Y-96955344D01*
X116498815Y-96832682D01*
X116395765Y-96851519D01*
X115923106Y-97122264D01*
X115590036Y-97553279D01*
X115570000Y-97627047D01*
X115549964Y-97553279D01*
X115216894Y-97122264D01*
X114744235Y-96851519D01*
X114641185Y-96832682D01*
X114427000Y-96955344D01*
X114173000Y-96955344D01*
X113958815Y-96832682D01*
X113855765Y-96851519D01*
X113383106Y-97122264D01*
X113050036Y-97553279D01*
X113035489Y-97606839D01*
X112739343Y-97163625D01*
X112323723Y-96885917D01*
X112550484Y-96840810D01*
X112606675Y-96829633D01*
X112893790Y-96637790D01*
X114204139Y-95327440D01*
X115000000Y-95327440D01*
X115235317Y-95283162D01*
X115451441Y-95144090D01*
X115596431Y-94931890D01*
X115647440Y-94680000D01*
X115647440Y-94476108D01*
X115752633Y-94318675D01*
X115820000Y-93980000D01*
X115752633Y-93641325D01*
X115647440Y-93483892D01*
X115647440Y-93280000D01*
X115603162Y-93044683D01*
X115464090Y-92828559D01*
X115251890Y-92683569D01*
X115000000Y-92632560D01*
X113600000Y-92632560D01*
X113364683Y-92676838D01*
X113148559Y-92815910D01*
X113003569Y-93028110D01*
X112952560Y-93280000D01*
X112952560Y-94075861D01*
X111901420Y-95127000D01*
X100570000Y-95127000D01*
X100570000Y-94572226D01*
X100613277Y-94543309D01*
X100880991Y-94142646D01*
X100975000Y-93670032D01*
X100975000Y-93365000D01*
X108030000Y-93365000D01*
X108030000Y-93765000D01*
X108172610Y-94227947D01*
X108481526Y-94601080D01*
X108909719Y-94827592D01*
X108947391Y-94831462D01*
X109138000Y-94706731D01*
X109138000Y-93365000D01*
X109392000Y-93365000D01*
X109392000Y-94706731D01*
X109582609Y-94831462D01*
X109620281Y-94827592D01*
X110048474Y-94601080D01*
X110357390Y-94227947D01*
X110500000Y-93765000D01*
X110500000Y-93365000D01*
X109392000Y-93365000D01*
X109138000Y-93365000D01*
X108030000Y-93365000D01*
X100975000Y-93365000D01*
X100975000Y-92805968D01*
X100956110Y-92711000D01*
X108030000Y-92711000D01*
X108030000Y-93111000D01*
X109138000Y-93111000D01*
X109138000Y-91769269D01*
X109392000Y-91769269D01*
X109392000Y-93111000D01*
X110500000Y-93111000D01*
X110500000Y-92711000D01*
X110357390Y-92248053D01*
X110048474Y-91874920D01*
X109749305Y-91716661D01*
X149732758Y-91716661D01*
X149944990Y-92230303D01*
X150337630Y-92623629D01*
X150850900Y-92836757D01*
X151406661Y-92837242D01*
X151920303Y-92625010D01*
X152313629Y-92232370D01*
X152526757Y-91719100D01*
X152527242Y-91163339D01*
X152315010Y-90649697D01*
X151922370Y-90256371D01*
X151409100Y-90043243D01*
X150853339Y-90042758D01*
X150339697Y-90254990D01*
X149946371Y-90647630D01*
X149733243Y-91160900D01*
X149732758Y-91716661D01*
X109749305Y-91716661D01*
X109620281Y-91648408D01*
X109582609Y-91644538D01*
X109392000Y-91769269D01*
X109138000Y-91769269D01*
X108947391Y-91644538D01*
X108909719Y-91648408D01*
X108481526Y-91874920D01*
X108172610Y-92248053D01*
X108030000Y-92711000D01*
X100956110Y-92711000D01*
X100880991Y-92333354D01*
X100613277Y-91932691D01*
X100212614Y-91664977D01*
X99740000Y-91570968D01*
X99267386Y-91664977D01*
X98866723Y-91932691D01*
X98599009Y-92333354D01*
X98505000Y-92805968D01*
X90725247Y-92805968D01*
X90714521Y-89915275D01*
X113544331Y-89915275D01*
X113606169Y-90151042D01*
X114107122Y-90327419D01*
X114637440Y-90298664D01*
X114993831Y-90151042D01*
X115055669Y-89915275D01*
X115020608Y-89880213D01*
X155409392Y-89880213D01*
X155478857Y-90122397D01*
X156002302Y-90309144D01*
X156557368Y-90281362D01*
X156826219Y-90170000D01*
X160892968Y-90170000D01*
X160986977Y-90642614D01*
X161254691Y-91043277D01*
X161655354Y-91310991D01*
X162127968Y-91405000D01*
X162992032Y-91405000D01*
X163464646Y-91310991D01*
X163865309Y-91043277D01*
X164133023Y-90642614D01*
X164227032Y-90170000D01*
X164133023Y-89697386D01*
X163865309Y-89296723D01*
X163464646Y-89029009D01*
X162992032Y-88935000D01*
X162127968Y-88935000D01*
X161655354Y-89029009D01*
X161254691Y-89296723D01*
X160986977Y-89697386D01*
X160892968Y-90170000D01*
X156826219Y-90170000D01*
X156941143Y-90122397D01*
X157010608Y-89880213D01*
X156210000Y-89079605D01*
X155409392Y-89880213D01*
X115020608Y-89880213D01*
X114300000Y-89159605D01*
X113544331Y-89915275D01*
X90714521Y-89915275D01*
X90689677Y-83220000D01*
X94842968Y-83220000D01*
X94949308Y-83754609D01*
X95252140Y-84207828D01*
X95674439Y-84490000D01*
X95252140Y-84772172D01*
X94949308Y-85225391D01*
X94842968Y-85760000D01*
X94949308Y-86294609D01*
X95252140Y-86747828D01*
X95674439Y-87030000D01*
X95252140Y-87312172D01*
X94949308Y-87765391D01*
X94842968Y-88300000D01*
X94949308Y-88834609D01*
X95252140Y-89287828D01*
X95705359Y-89590660D01*
X96239968Y-89697000D01*
X96780032Y-89697000D01*
X97314641Y-89590660D01*
X97767860Y-89287828D01*
X97780000Y-89269659D01*
X97792140Y-89287828D01*
X98245359Y-89590660D01*
X98779968Y-89697000D01*
X99320032Y-89697000D01*
X99854641Y-89590660D01*
X100307860Y-89287828D01*
X100610692Y-88834609D01*
X100620137Y-88787122D01*
X112952581Y-88787122D01*
X112981336Y-89317440D01*
X113128958Y-89673831D01*
X113364725Y-89735669D01*
X114120395Y-88980000D01*
X114479605Y-88980000D01*
X115235275Y-89735669D01*
X115471042Y-89673831D01*
X115647419Y-89172878D01*
X115626234Y-88782163D01*
X120058443Y-88782163D01*
X120157042Y-89048965D01*
X120766582Y-89275401D01*
X121416377Y-89251341D01*
X121904958Y-89048965D01*
X122003557Y-88782163D01*
X123106443Y-88782163D01*
X123205042Y-89048965D01*
X123814582Y-89275401D01*
X124464377Y-89251341D01*
X124952958Y-89048965D01*
X125051557Y-88782163D01*
X126027443Y-88782163D01*
X126126042Y-89048965D01*
X126735582Y-89275401D01*
X127385377Y-89251341D01*
X127873958Y-89048965D01*
X127972557Y-88782163D01*
X129075443Y-88782163D01*
X129174042Y-89048965D01*
X129783582Y-89275401D01*
X130433377Y-89251341D01*
X130921958Y-89048965D01*
X131020557Y-88782163D01*
X132123443Y-88782163D01*
X132222042Y-89048965D01*
X132831582Y-89275401D01*
X133481377Y-89251341D01*
X133969958Y-89048965D01*
X134068557Y-88782163D01*
X135171443Y-88782163D01*
X135270042Y-89048965D01*
X135879582Y-89275401D01*
X136529377Y-89251341D01*
X137017958Y-89048965D01*
X137116557Y-88782163D01*
X137026697Y-88692302D01*
X154800856Y-88692302D01*
X154828638Y-89247368D01*
X154987603Y-89631143D01*
X155229787Y-89700608D01*
X156030395Y-88900000D01*
X156389605Y-88900000D01*
X157190213Y-89700608D01*
X157432397Y-89631143D01*
X157619144Y-89107698D01*
X157591362Y-88552632D01*
X157432397Y-88168857D01*
X157190213Y-88099392D01*
X156389605Y-88900000D01*
X156030395Y-88900000D01*
X155229787Y-88099392D01*
X154987603Y-88168857D01*
X154800856Y-88692302D01*
X137026697Y-88692302D01*
X136144000Y-87809605D01*
X135171443Y-88782163D01*
X134068557Y-88782163D01*
X133096000Y-87809605D01*
X132123443Y-88782163D01*
X131020557Y-88782163D01*
X130048000Y-87809605D01*
X129075443Y-88782163D01*
X127972557Y-88782163D01*
X127000000Y-87809605D01*
X126027443Y-88782163D01*
X125051557Y-88782163D01*
X124079000Y-87809605D01*
X123106443Y-88782163D01*
X122003557Y-88782163D01*
X121031000Y-87809605D01*
X120058443Y-88782163D01*
X115626234Y-88782163D01*
X115618664Y-88642560D01*
X115471042Y-88286169D01*
X115235275Y-88224331D01*
X114479605Y-88980000D01*
X114120395Y-88980000D01*
X113364725Y-88224331D01*
X113128958Y-88286169D01*
X112952581Y-88787122D01*
X100620137Y-88787122D01*
X100717032Y-88300000D01*
X100666255Y-88044725D01*
X113544331Y-88044725D01*
X114300000Y-88800395D01*
X115055669Y-88044725D01*
X114993831Y-87808958D01*
X114492878Y-87632581D01*
X113962560Y-87661336D01*
X113606169Y-87808958D01*
X113544331Y-88044725D01*
X100666255Y-88044725D01*
X100610692Y-87765391D01*
X100343548Y-87365582D01*
X119385599Y-87365582D01*
X119409659Y-88015377D01*
X119612035Y-88503958D01*
X119878837Y-88602557D01*
X120851395Y-87630000D01*
X121210605Y-87630000D01*
X122183163Y-88602557D01*
X122449965Y-88503958D01*
X122549288Y-88236591D01*
X122660035Y-88503958D01*
X122926837Y-88602557D01*
X123899395Y-87630000D01*
X124258605Y-87630000D01*
X125231163Y-88602557D01*
X125497965Y-88503958D01*
X125537241Y-88398230D01*
X125581035Y-88503958D01*
X125847837Y-88602557D01*
X126820395Y-87630000D01*
X127179605Y-87630000D01*
X128152163Y-88602557D01*
X128418965Y-88503958D01*
X128518288Y-88236591D01*
X128629035Y-88503958D01*
X128895837Y-88602557D01*
X129868395Y-87630000D01*
X130227605Y-87630000D01*
X131200163Y-88602557D01*
X131466965Y-88503958D01*
X131566288Y-88236591D01*
X131677035Y-88503958D01*
X131943837Y-88602557D01*
X132916395Y-87630000D01*
X133275605Y-87630000D01*
X134248163Y-88602557D01*
X134514965Y-88503958D01*
X134614288Y-88236591D01*
X134725035Y-88503958D01*
X134991837Y-88602557D01*
X135964395Y-87630000D01*
X136323605Y-87630000D01*
X137296163Y-88602557D01*
X137562965Y-88503958D01*
X137779976Y-87919787D01*
X155409392Y-87919787D01*
X156210000Y-88720395D01*
X157010608Y-87919787D01*
X156941143Y-87677603D01*
X156807714Y-87630000D01*
X160892968Y-87630000D01*
X160986977Y-88102614D01*
X161254691Y-88503277D01*
X161655354Y-88770991D01*
X162127968Y-88865000D01*
X162992032Y-88865000D01*
X163464646Y-88770991D01*
X163865309Y-88503277D01*
X164133023Y-88102614D01*
X164227032Y-87630000D01*
X164133023Y-87157386D01*
X163865309Y-86756723D01*
X163464646Y-86489009D01*
X162992032Y-86395000D01*
X162127968Y-86395000D01*
X161655354Y-86489009D01*
X161254691Y-86756723D01*
X160986977Y-87157386D01*
X160892968Y-87630000D01*
X156807714Y-87630000D01*
X156417698Y-87490856D01*
X155862632Y-87518638D01*
X155478857Y-87677603D01*
X155409392Y-87919787D01*
X137779976Y-87919787D01*
X137789401Y-87894418D01*
X137765341Y-87244623D01*
X137562965Y-86756042D01*
X137296163Y-86657443D01*
X136323605Y-87630000D01*
X135964395Y-87630000D01*
X134991837Y-86657443D01*
X134725035Y-86756042D01*
X134625712Y-87023409D01*
X134514965Y-86756042D01*
X134248163Y-86657443D01*
X133275605Y-87630000D01*
X132916395Y-87630000D01*
X131943837Y-86657443D01*
X131677035Y-86756042D01*
X131577712Y-87023409D01*
X131466965Y-86756042D01*
X131200163Y-86657443D01*
X130227605Y-87630000D01*
X129868395Y-87630000D01*
X128895837Y-86657443D01*
X128629035Y-86756042D01*
X128529712Y-87023409D01*
X128418965Y-86756042D01*
X128152163Y-86657443D01*
X127179605Y-87630000D01*
X126820395Y-87630000D01*
X125847837Y-86657443D01*
X125581035Y-86756042D01*
X125541759Y-86861770D01*
X125497965Y-86756042D01*
X125231163Y-86657443D01*
X124258605Y-87630000D01*
X123899395Y-87630000D01*
X122926837Y-86657443D01*
X122660035Y-86756042D01*
X122560712Y-87023409D01*
X122449965Y-86756042D01*
X122183163Y-86657443D01*
X121210605Y-87630000D01*
X120851395Y-87630000D01*
X119878837Y-86657443D01*
X119612035Y-86756042D01*
X119385599Y-87365582D01*
X100343548Y-87365582D01*
X100307860Y-87312172D01*
X99885561Y-87030000D01*
X100307860Y-86747828D01*
X100488262Y-86477837D01*
X120058443Y-86477837D01*
X121031000Y-87450395D01*
X122003557Y-86477837D01*
X123106443Y-86477837D01*
X124079000Y-87450395D01*
X125051557Y-86477837D01*
X126027443Y-86477837D01*
X127000000Y-87450395D01*
X127972557Y-86477837D01*
X129075443Y-86477837D01*
X130048000Y-87450395D01*
X131020557Y-86477837D01*
X132123443Y-86477837D01*
X133096000Y-87450395D01*
X134068557Y-86477837D01*
X135171443Y-86477837D01*
X136144000Y-87450395D01*
X137116557Y-86477837D01*
X137017958Y-86211035D01*
X136408418Y-85984599D01*
X135758623Y-86008659D01*
X135270042Y-86211035D01*
X135171443Y-86477837D01*
X134068557Y-86477837D01*
X133969958Y-86211035D01*
X133360418Y-85984599D01*
X132710623Y-86008659D01*
X132222042Y-86211035D01*
X132123443Y-86477837D01*
X131020557Y-86477837D01*
X130921958Y-86211035D01*
X130312418Y-85984599D01*
X129662623Y-86008659D01*
X129174042Y-86211035D01*
X129075443Y-86477837D01*
X127972557Y-86477837D01*
X127873958Y-86211035D01*
X127264418Y-85984599D01*
X126614623Y-86008659D01*
X126126042Y-86211035D01*
X126027443Y-86477837D01*
X125051557Y-86477837D01*
X124952958Y-86211035D01*
X124343418Y-85984599D01*
X123693623Y-86008659D01*
X123205042Y-86211035D01*
X123106443Y-86477837D01*
X122003557Y-86477837D01*
X121904958Y-86211035D01*
X121295418Y-85984599D01*
X120645623Y-86008659D01*
X120157042Y-86211035D01*
X120058443Y-86477837D01*
X100488262Y-86477837D01*
X100610692Y-86294609D01*
X100717032Y-85760000D01*
X100610692Y-85225391D01*
X100307860Y-84772172D01*
X99885561Y-84490000D01*
X100307860Y-84207828D01*
X100610692Y-83754609D01*
X100717032Y-83220000D01*
X100622886Y-82746694D01*
X110887226Y-82746694D01*
X111135538Y-83347655D01*
X111594927Y-83807846D01*
X112195453Y-84057206D01*
X112845694Y-84057774D01*
X113446655Y-83809462D01*
X113906846Y-83350073D01*
X114109691Y-82861568D01*
X114310538Y-83347655D01*
X114769927Y-83807846D01*
X115370453Y-84057206D01*
X116020694Y-84057774D01*
X116621655Y-83809462D01*
X117081846Y-83350073D01*
X117331206Y-82749547D01*
X117331208Y-82746694D01*
X117364226Y-82746694D01*
X117612538Y-83347655D01*
X118071927Y-83807846D01*
X118672453Y-84057206D01*
X119322694Y-84057774D01*
X119923655Y-83809462D01*
X120383846Y-83350073D01*
X120586691Y-82861568D01*
X120787538Y-83347655D01*
X121246927Y-83807846D01*
X121847453Y-84057206D01*
X122497694Y-84057774D01*
X123098655Y-83809462D01*
X123539869Y-83369016D01*
X128947590Y-83369016D01*
X129003271Y-83599611D01*
X129486078Y-83767622D01*
X129996428Y-83738083D01*
X130330729Y-83599611D01*
X130386410Y-83369016D01*
X129667000Y-82649605D01*
X128947590Y-83369016D01*
X123539869Y-83369016D01*
X123558846Y-83350073D01*
X123808206Y-82749547D01*
X123808608Y-82289078D01*
X128369378Y-82289078D01*
X128398917Y-82799428D01*
X128537389Y-83133729D01*
X128767984Y-83189410D01*
X129487395Y-82470000D01*
X129846605Y-82470000D01*
X130566016Y-83189410D01*
X130796611Y-83133729D01*
X130964622Y-82650922D01*
X130935083Y-82140572D01*
X130796611Y-81806271D01*
X130566016Y-81750590D01*
X129846605Y-82470000D01*
X129487395Y-82470000D01*
X128767984Y-81750590D01*
X128537389Y-81806271D01*
X128369378Y-82289078D01*
X123808608Y-82289078D01*
X123808774Y-82099306D01*
X123590476Y-81570984D01*
X128947590Y-81570984D01*
X129667000Y-82290395D01*
X130386410Y-81570984D01*
X130330729Y-81340389D01*
X129847922Y-81172378D01*
X129337572Y-81201917D01*
X129003271Y-81340389D01*
X128947590Y-81570984D01*
X123590476Y-81570984D01*
X123560462Y-81498345D01*
X123101073Y-81038154D01*
X122500547Y-80788794D01*
X121850306Y-80788226D01*
X121249345Y-81036538D01*
X120789154Y-81495927D01*
X120586309Y-81984432D01*
X120385462Y-81498345D01*
X119926073Y-81038154D01*
X119325547Y-80788794D01*
X118675306Y-80788226D01*
X118074345Y-81036538D01*
X117614154Y-81495927D01*
X117364794Y-82096453D01*
X117364226Y-82746694D01*
X117331208Y-82746694D01*
X117331774Y-82099306D01*
X117083462Y-81498345D01*
X116624073Y-81038154D01*
X116023547Y-80788794D01*
X115373306Y-80788226D01*
X114772345Y-81036538D01*
X114312154Y-81495927D01*
X114109309Y-81984432D01*
X113908462Y-81498345D01*
X113449073Y-81038154D01*
X112848547Y-80788794D01*
X112198306Y-80788226D01*
X111597345Y-81036538D01*
X111137154Y-81495927D01*
X110887794Y-82096453D01*
X110887226Y-82746694D01*
X100622886Y-82746694D01*
X100610692Y-82685391D01*
X100307860Y-82232172D01*
X99854641Y-81929340D01*
X99320032Y-81823000D01*
X98779968Y-81823000D01*
X98245359Y-81929340D01*
X97792140Y-82232172D01*
X97780000Y-82250341D01*
X97767860Y-82232172D01*
X97314641Y-81929340D01*
X96780032Y-81823000D01*
X96239968Y-81823000D01*
X95705359Y-81929340D01*
X95252140Y-82232172D01*
X94949308Y-82685391D01*
X94842968Y-83220000D01*
X90689677Y-83220000D01*
X90685000Y-81959804D01*
X90685000Y-77285968D01*
X98460000Y-77285968D01*
X98460000Y-78150032D01*
X98554009Y-78622646D01*
X98821723Y-79023309D01*
X99222386Y-79291023D01*
X99695000Y-79385032D01*
X100167614Y-79291023D01*
X100568277Y-79023309D01*
X100835991Y-78622646D01*
X100839899Y-78603000D01*
X101097995Y-78603000D01*
X101098000Y-78603001D01*
X101380484Y-78546810D01*
X101436675Y-78535633D01*
X101723790Y-78343790D01*
X102222579Y-77845000D01*
X107960000Y-77845000D01*
X107960000Y-78245000D01*
X108102610Y-78707947D01*
X108411526Y-79081080D01*
X108839719Y-79307592D01*
X108877391Y-79311462D01*
X109068000Y-79186731D01*
X109068000Y-77845000D01*
X109322000Y-77845000D01*
X109322000Y-79186731D01*
X109512609Y-79311462D01*
X109550281Y-79307592D01*
X109978474Y-79081080D01*
X110287390Y-78707947D01*
X110430000Y-78245000D01*
X110430000Y-77845000D01*
X109322000Y-77845000D01*
X109068000Y-77845000D01*
X107960000Y-77845000D01*
X102222579Y-77845000D01*
X103617579Y-76450000D01*
X108332809Y-76450000D01*
X108102610Y-76728053D01*
X107960000Y-77191000D01*
X107960000Y-77591000D01*
X109068000Y-77591000D01*
X109068000Y-77571000D01*
X109322000Y-77571000D01*
X109322000Y-77591000D01*
X110430000Y-77591000D01*
X110430000Y-77191000D01*
X110293140Y-76746720D01*
X111515208Y-77968787D01*
X111515210Y-77968790D01*
X111802325Y-78160633D01*
X111858516Y-78171810D01*
X112141000Y-78228001D01*
X112141005Y-78228000D01*
X128389882Y-78228000D01*
X128413838Y-78355317D01*
X128552910Y-78571441D01*
X128765110Y-78716431D01*
X129017000Y-78767440D01*
X130317000Y-78767440D01*
X130552317Y-78723162D01*
X130768441Y-78584090D01*
X130913431Y-78371890D01*
X130916851Y-78355000D01*
X132602420Y-78355000D01*
X141233208Y-86985787D01*
X141233210Y-86985790D01*
X141425054Y-87113975D01*
X141520326Y-87177634D01*
X141859000Y-87245001D01*
X141859005Y-87245000D01*
X150039522Y-87245000D01*
X150337630Y-87543629D01*
X150850900Y-87756757D01*
X151406661Y-87757242D01*
X151920303Y-87545010D01*
X152313629Y-87152370D01*
X152526757Y-86639100D01*
X152527242Y-86083339D01*
X152315010Y-85569697D01*
X152153205Y-85407609D01*
X160966538Y-85407609D01*
X160970408Y-85445281D01*
X161196920Y-85873474D01*
X161570053Y-86182390D01*
X162033000Y-86325000D01*
X162433000Y-86325000D01*
X162433000Y-85217000D01*
X162687000Y-85217000D01*
X162687000Y-86325000D01*
X163087000Y-86325000D01*
X163549947Y-86182390D01*
X163923080Y-85873474D01*
X164149592Y-85445281D01*
X164153462Y-85407609D01*
X164028731Y-85217000D01*
X162687000Y-85217000D01*
X162433000Y-85217000D01*
X161091269Y-85217000D01*
X160966538Y-85407609D01*
X152153205Y-85407609D01*
X151922370Y-85176371D01*
X151409100Y-84963243D01*
X150853339Y-84962758D01*
X150339697Y-85174990D01*
X150039163Y-85475000D01*
X142225579Y-85475000D01*
X140847241Y-84096661D01*
X154812758Y-84096661D01*
X155024990Y-84610303D01*
X155417630Y-85003629D01*
X155930900Y-85216757D01*
X156486661Y-85217242D01*
X157000303Y-85005010D01*
X157233328Y-84772391D01*
X160966538Y-84772391D01*
X161091269Y-84963000D01*
X162433000Y-84963000D01*
X162433000Y-83855000D01*
X162687000Y-83855000D01*
X162687000Y-84963000D01*
X164028731Y-84963000D01*
X164153462Y-84772391D01*
X164149592Y-84734719D01*
X163923080Y-84306526D01*
X163549947Y-83997610D01*
X163087000Y-83855000D01*
X162687000Y-83855000D01*
X162433000Y-83855000D01*
X162033000Y-83855000D01*
X161570053Y-83997610D01*
X161196920Y-84306526D01*
X160970408Y-84734719D01*
X160966538Y-84772391D01*
X157233328Y-84772391D01*
X157393629Y-84612370D01*
X157606757Y-84099100D01*
X157607242Y-83543339D01*
X157395010Y-83029697D01*
X157002370Y-82636371D01*
X156489100Y-82423243D01*
X155933339Y-82422758D01*
X155419697Y-82634990D01*
X155026371Y-83027630D01*
X154813243Y-83540900D01*
X154812758Y-84096661D01*
X140847241Y-84096661D01*
X134624241Y-77873661D01*
X154685758Y-77873661D01*
X154897990Y-78387303D01*
X155290630Y-78780629D01*
X155803900Y-78993757D01*
X156359661Y-78994242D01*
X156873303Y-78782010D01*
X157266629Y-78389370D01*
X157479757Y-77876100D01*
X157480242Y-77320339D01*
X157268010Y-76806697D01*
X156875370Y-76413371D01*
X156362100Y-76200243D01*
X155806339Y-76199758D01*
X155292697Y-76411990D01*
X154899371Y-76804630D01*
X154686243Y-77317900D01*
X154685758Y-77873661D01*
X134624241Y-77873661D01*
X133594790Y-76844210D01*
X133548610Y-76813354D01*
X133307675Y-76652367D01*
X133251484Y-76641190D01*
X132969000Y-76584999D01*
X132968995Y-76585000D01*
X130920222Y-76585000D01*
X130920162Y-76584683D01*
X130781090Y-76368559D01*
X130568890Y-76223569D01*
X130317000Y-76172560D01*
X129017000Y-76172560D01*
X128781683Y-76216838D01*
X128565559Y-76355910D01*
X128495804Y-76458000D01*
X112507579Y-76458000D01*
X112487040Y-76437461D01*
X112845694Y-76437774D01*
X113446655Y-76189462D01*
X113906846Y-75730073D01*
X113976221Y-75563000D01*
X114242504Y-75563000D01*
X114310538Y-75727655D01*
X114769927Y-76187846D01*
X115370453Y-76437206D01*
X116020694Y-76437774D01*
X116621655Y-76189462D01*
X117081846Y-75730073D01*
X117331206Y-75129547D01*
X117331208Y-75126694D01*
X117364226Y-75126694D01*
X117612538Y-75727655D01*
X118071927Y-76187846D01*
X118672453Y-76437206D01*
X119322694Y-76437774D01*
X119923655Y-76189462D01*
X120383846Y-75730073D01*
X120586691Y-75241568D01*
X120787538Y-75727655D01*
X121246927Y-76187846D01*
X121847453Y-76437206D01*
X122497694Y-76437774D01*
X123098655Y-76189462D01*
X123558846Y-75730073D01*
X123808206Y-75129547D01*
X123808774Y-74479306D01*
X123560462Y-73878345D01*
X123101073Y-73418154D01*
X122500547Y-73168794D01*
X121850306Y-73168226D01*
X121249345Y-73416538D01*
X120789154Y-73875927D01*
X120586309Y-74364432D01*
X120385462Y-73878345D01*
X119926073Y-73418154D01*
X119325547Y-73168794D01*
X118675306Y-73168226D01*
X118074345Y-73416538D01*
X117614154Y-73875927D01*
X117364794Y-74476453D01*
X117364226Y-75126694D01*
X117331208Y-75126694D01*
X117331774Y-74479306D01*
X117083462Y-73878345D01*
X116624073Y-73418154D01*
X116457000Y-73348779D01*
X116457000Y-72644000D01*
X116428612Y-72501283D01*
X116840000Y-72583113D01*
X117389151Y-72473880D01*
X117854698Y-72162811D01*
X118124986Y-71758297D01*
X118227611Y-71975134D01*
X118642577Y-72351041D01*
X119030961Y-72511904D01*
X119253000Y-72389915D01*
X119253000Y-71247000D01*
X119233000Y-71247000D01*
X119233000Y-70993000D01*
X119253000Y-70993000D01*
X119253000Y-69850085D01*
X119507000Y-69850085D01*
X119507000Y-70993000D01*
X119527000Y-70993000D01*
X119527000Y-71247000D01*
X119507000Y-71247000D01*
X119507000Y-72389915D01*
X119729039Y-72511904D01*
X120117423Y-72351041D01*
X120532389Y-71975134D01*
X120635014Y-71758297D01*
X120905302Y-72162811D01*
X121370849Y-72473880D01*
X121920000Y-72583113D01*
X122469151Y-72473880D01*
X122934698Y-72162811D01*
X123245767Y-71697264D01*
X123355000Y-71148113D01*
X123355000Y-71091887D01*
X123245767Y-70542736D01*
X123230576Y-70520000D01*
X135482968Y-70520000D01*
X135589308Y-71054609D01*
X135892140Y-71507828D01*
X135929207Y-71532595D01*
X136012599Y-71657401D01*
X136259161Y-71822148D01*
X136264683Y-71823246D01*
X135892140Y-72072172D01*
X135589308Y-72525391D01*
X135482968Y-73060000D01*
X135589308Y-73594609D01*
X135892140Y-74047828D01*
X136314439Y-74330000D01*
X135892140Y-74612172D01*
X135589308Y-75065391D01*
X135482968Y-75600000D01*
X135589308Y-76134609D01*
X135892140Y-76587828D01*
X136345359Y-76890660D01*
X136879968Y-76997000D01*
X137420032Y-76997000D01*
X137954641Y-76890660D01*
X138407860Y-76587828D01*
X138420000Y-76569659D01*
X138432140Y-76587828D01*
X138885359Y-76890660D01*
X139419968Y-76997000D01*
X139960032Y-76997000D01*
X140494641Y-76890660D01*
X140947860Y-76587828D01*
X141250692Y-76134609D01*
X141357032Y-75600000D01*
X141304055Y-75333661D01*
X149605758Y-75333661D01*
X149817990Y-75847303D01*
X150210630Y-76240629D01*
X150723900Y-76453757D01*
X151279661Y-76454242D01*
X151793303Y-76242010D01*
X152186629Y-75849370D01*
X152399757Y-75336100D01*
X152400242Y-74780339D01*
X152188010Y-74266697D01*
X151795370Y-73873371D01*
X151282100Y-73660243D01*
X150726339Y-73659758D01*
X150212697Y-73871990D01*
X149819371Y-74264630D01*
X149606243Y-74777900D01*
X149605758Y-75333661D01*
X141304055Y-75333661D01*
X141250692Y-75065391D01*
X140947860Y-74612172D01*
X140525561Y-74330000D01*
X140947860Y-74047828D01*
X141250692Y-73594609D01*
X141357032Y-73060000D01*
X141304055Y-72793661D01*
X154685758Y-72793661D01*
X154897990Y-73307303D01*
X155290630Y-73700629D01*
X155803900Y-73913757D01*
X156359661Y-73914242D01*
X156873303Y-73702010D01*
X157266629Y-73309370D01*
X157479757Y-72796100D01*
X157480242Y-72240339D01*
X157466857Y-72207945D01*
X159541401Y-70133401D01*
X159706148Y-69886839D01*
X159764000Y-69596000D01*
X159764000Y-68897609D01*
X160966538Y-68897609D01*
X160970408Y-68935281D01*
X161196920Y-69363474D01*
X161570053Y-69672390D01*
X162033000Y-69815000D01*
X162433000Y-69815000D01*
X162433000Y-68707000D01*
X161091269Y-68707000D01*
X160966538Y-68897609D01*
X159764000Y-68897609D01*
X159764000Y-68262391D01*
X160966538Y-68262391D01*
X161091269Y-68453000D01*
X162433000Y-68453000D01*
X162433000Y-67345000D01*
X162033000Y-67345000D01*
X161570053Y-67487610D01*
X161196920Y-67796526D01*
X160970408Y-68224719D01*
X160966538Y-68262391D01*
X159764000Y-68262391D01*
X159764000Y-66735802D01*
X161096844Y-65402958D01*
X160986977Y-65567386D01*
X160892968Y-66040000D01*
X160986977Y-66512614D01*
X161254691Y-66913277D01*
X161655354Y-67180991D01*
X162127968Y-67275000D01*
X162992032Y-67275000D01*
X163041567Y-67265147D01*
X163136744Y-67360324D01*
X163087000Y-67345000D01*
X162687000Y-67345000D01*
X162687000Y-68453000D01*
X162707000Y-68453000D01*
X162707000Y-68707000D01*
X162687000Y-68707000D01*
X162687000Y-69815000D01*
X163087000Y-69815000D01*
X163549947Y-69672390D01*
X163707000Y-69542366D01*
X163707000Y-70140944D01*
X163464646Y-69979009D01*
X162992032Y-69885000D01*
X162127968Y-69885000D01*
X161655354Y-69979009D01*
X161254691Y-70246723D01*
X160986977Y-70647386D01*
X160892968Y-71120000D01*
X160986977Y-71592614D01*
X161254691Y-71993277D01*
X161655354Y-72260991D01*
X162127968Y-72355000D01*
X162992032Y-72355000D01*
X163464646Y-72260991D01*
X163707000Y-72099056D01*
X163707000Y-72680944D01*
X163464646Y-72519009D01*
X162992032Y-72425000D01*
X162127968Y-72425000D01*
X161655354Y-72519009D01*
X161254691Y-72786723D01*
X160986977Y-73187386D01*
X160892968Y-73660000D01*
X160986977Y-74132614D01*
X161254691Y-74533277D01*
X161655354Y-74800991D01*
X162127968Y-74895000D01*
X162992032Y-74895000D01*
X163464646Y-74800991D01*
X163707000Y-74639056D01*
X163707000Y-75220944D01*
X163464646Y-75059009D01*
X162992032Y-74965000D01*
X162127968Y-74965000D01*
X161655354Y-75059009D01*
X161254691Y-75326723D01*
X160986977Y-75727386D01*
X160892968Y-76200000D01*
X160986977Y-76672614D01*
X161254691Y-77073277D01*
X161655354Y-77340991D01*
X162127968Y-77435000D01*
X162992032Y-77435000D01*
X163464646Y-77340991D01*
X163707000Y-77179056D01*
X163707000Y-77760944D01*
X163464646Y-77599009D01*
X162992032Y-77505000D01*
X162127968Y-77505000D01*
X161655354Y-77599009D01*
X161254691Y-77866723D01*
X160986977Y-78267386D01*
X160892968Y-78740000D01*
X160986977Y-79212614D01*
X161254691Y-79613277D01*
X161655354Y-79880991D01*
X162127968Y-79975000D01*
X162992032Y-79975000D01*
X163464646Y-79880991D01*
X163707000Y-79719056D01*
X163707000Y-80151421D01*
X162543420Y-81315000D01*
X162127968Y-81315000D01*
X161655354Y-81409009D01*
X161254691Y-81676723D01*
X160986977Y-82077386D01*
X160892968Y-82550000D01*
X160986977Y-83022614D01*
X161254691Y-83423277D01*
X161655354Y-83690991D01*
X162127968Y-83785000D01*
X162992032Y-83785000D01*
X163464646Y-83690991D01*
X163865309Y-83423277D01*
X164133023Y-83022614D01*
X164227032Y-82550000D01*
X164158104Y-82203476D01*
X165217787Y-81143792D01*
X165217790Y-81143790D01*
X165409633Y-80856675D01*
X165423248Y-80788226D01*
X165477001Y-80518000D01*
X165477000Y-80517995D01*
X165477000Y-67564000D01*
X165409633Y-67225325D01*
X165217790Y-66938210D01*
X165217787Y-66938208D01*
X164204052Y-65924472D01*
X164133023Y-65567386D01*
X163865309Y-65166723D01*
X163464646Y-64899009D01*
X162992032Y-64805000D01*
X162127968Y-64805000D01*
X161655354Y-64899009D01*
X161490926Y-65008876D01*
X163111107Y-63388695D01*
X163229287Y-63437768D01*
X163760383Y-63438231D01*
X164251229Y-63235418D01*
X164627098Y-62860204D01*
X164830768Y-62369713D01*
X164831231Y-61838617D01*
X164628418Y-61347771D01*
X164253204Y-60971902D01*
X163762713Y-60768232D01*
X163231617Y-60767769D01*
X162740771Y-60970582D01*
X162364902Y-61345796D01*
X162268760Y-61577330D01*
X162111852Y-61812161D01*
X162054000Y-62103000D01*
X162086054Y-62264144D01*
X158466599Y-65883599D01*
X158301852Y-66130161D01*
X158244000Y-66421000D01*
X158244000Y-69281198D01*
X156392381Y-71132817D01*
X156362100Y-71120243D01*
X155806339Y-71119758D01*
X155292697Y-71331990D01*
X154899371Y-71724630D01*
X154686243Y-72237900D01*
X154685758Y-72793661D01*
X141304055Y-72793661D01*
X141250692Y-72525391D01*
X140947860Y-72072172D01*
X140525561Y-71790000D01*
X140947860Y-71507828D01*
X141250692Y-71054609D01*
X141357032Y-70520000D01*
X141304055Y-70253661D01*
X149605758Y-70253661D01*
X149817990Y-70767303D01*
X150210630Y-71160629D01*
X150723900Y-71373757D01*
X151279661Y-71374242D01*
X151793303Y-71162010D01*
X152186629Y-70769370D01*
X152399757Y-70256100D01*
X152400242Y-69700339D01*
X152188010Y-69186697D01*
X151795370Y-68793371D01*
X151282100Y-68580243D01*
X150726339Y-68579758D01*
X150212697Y-68791990D01*
X149819371Y-69184630D01*
X149606243Y-69697900D01*
X149605758Y-70253661D01*
X141304055Y-70253661D01*
X141250692Y-69985391D01*
X140947860Y-69532172D01*
X140494641Y-69229340D01*
X139960032Y-69123000D01*
X139419968Y-69123000D01*
X138885359Y-69229340D01*
X138432140Y-69532172D01*
X138420000Y-69550341D01*
X138407860Y-69532172D01*
X137954641Y-69229340D01*
X137420032Y-69123000D01*
X136879968Y-69123000D01*
X136345359Y-69229340D01*
X135892140Y-69532172D01*
X135589308Y-69985391D01*
X135482968Y-70520000D01*
X123230576Y-70520000D01*
X122934698Y-70077189D01*
X122469151Y-69766120D01*
X121920000Y-69656887D01*
X121370849Y-69766120D01*
X120905302Y-70077189D01*
X120635014Y-70481703D01*
X120532389Y-70264866D01*
X120117423Y-69888959D01*
X119729039Y-69728096D01*
X119507000Y-69850085D01*
X119253000Y-69850085D01*
X119030961Y-69728096D01*
X118642577Y-69888959D01*
X118227611Y-70264866D01*
X118124986Y-70481703D01*
X117854698Y-70077189D01*
X117389151Y-69766120D01*
X116840000Y-69656887D01*
X116290849Y-69766120D01*
X115825302Y-70077189D01*
X115514233Y-70542736D01*
X115441000Y-70910903D01*
X115441000Y-67713661D01*
X154685758Y-67713661D01*
X154897990Y-68227303D01*
X155290630Y-68620629D01*
X155803900Y-68833757D01*
X156359661Y-68834242D01*
X156873303Y-68622010D01*
X157266629Y-68229370D01*
X157479757Y-67716100D01*
X157480242Y-67160339D01*
X157268010Y-66646697D01*
X156875370Y-66253371D01*
X156362100Y-66040243D01*
X155806339Y-66039758D01*
X155292697Y-66251990D01*
X154899371Y-66644630D01*
X154686243Y-67157900D01*
X154685758Y-67713661D01*
X115441000Y-67713661D01*
X115441000Y-63709097D01*
X115514233Y-64077264D01*
X115825302Y-64542811D01*
X116290849Y-64853880D01*
X116840000Y-64963113D01*
X117389151Y-64853880D01*
X117854698Y-64542811D01*
X118110000Y-64160725D01*
X118365302Y-64542811D01*
X118830849Y-64853880D01*
X119380000Y-64963113D01*
X119929151Y-64853880D01*
X120394698Y-64542811D01*
X120664986Y-64138297D01*
X120767611Y-64355134D01*
X121182577Y-64731041D01*
X121570961Y-64891904D01*
X121793000Y-64769915D01*
X121793000Y-63627000D01*
X121773000Y-63627000D01*
X121773000Y-63373000D01*
X121793000Y-63373000D01*
X121793000Y-63353000D01*
X122047000Y-63353000D01*
X122047000Y-63373000D01*
X122067000Y-63373000D01*
X122067000Y-63627000D01*
X122047000Y-63627000D01*
X122047000Y-64769915D01*
X122269039Y-64891904D01*
X122657423Y-64731041D01*
X123072389Y-64355134D01*
X123194000Y-64098182D01*
X123194000Y-65404995D01*
X123193999Y-65405000D01*
X123233712Y-65604645D01*
X123261367Y-65743675D01*
X123354861Y-65883599D01*
X123453210Y-66030790D01*
X124459208Y-67036787D01*
X124459210Y-67036790D01*
X124746325Y-67228633D01*
X124802516Y-67239810D01*
X125085000Y-67296001D01*
X125085005Y-67296000D01*
X143838236Y-67296000D01*
X144221354Y-67551991D01*
X144693968Y-67646000D01*
X145558032Y-67646000D01*
X146030646Y-67551991D01*
X146431309Y-67284277D01*
X146699023Y-66883614D01*
X146793032Y-66411000D01*
X146699023Y-65938386D01*
X146431309Y-65537723D01*
X146030646Y-65270009D01*
X145558032Y-65176000D01*
X144693968Y-65176000D01*
X144221354Y-65270009D01*
X143838236Y-65526000D01*
X125451579Y-65526000D01*
X124964000Y-65038420D01*
X124964000Y-63871000D01*
X125678968Y-63871000D01*
X125772977Y-64343614D01*
X126040691Y-64744277D01*
X126441354Y-65011991D01*
X126913968Y-65106000D01*
X127778032Y-65106000D01*
X128250646Y-65011991D01*
X128651309Y-64744277D01*
X128919023Y-64343614D01*
X129013032Y-63871000D01*
X143458968Y-63871000D01*
X143552977Y-64343614D01*
X143820691Y-64744277D01*
X144221354Y-65011991D01*
X144693968Y-65106000D01*
X145558032Y-65106000D01*
X146030646Y-65011991D01*
X146431309Y-64744277D01*
X146699023Y-64343614D01*
X146793032Y-63871000D01*
X146699023Y-63398386D01*
X146458405Y-63038275D01*
X149311331Y-63038275D01*
X149373169Y-63274042D01*
X149874122Y-63450419D01*
X150404440Y-63421664D01*
X150760831Y-63274042D01*
X150822669Y-63038275D01*
X150067000Y-62282605D01*
X149311331Y-63038275D01*
X146458405Y-63038275D01*
X146431309Y-62997723D01*
X146030646Y-62730009D01*
X145558032Y-62636000D01*
X144693968Y-62636000D01*
X144221354Y-62730009D01*
X143820691Y-62997723D01*
X143552977Y-63398386D01*
X143458968Y-63871000D01*
X129013032Y-63871000D01*
X128919023Y-63398386D01*
X128651309Y-62997723D01*
X128250646Y-62730009D01*
X127778032Y-62636000D01*
X126913968Y-62636000D01*
X126441354Y-62730009D01*
X126040691Y-62997723D01*
X125772977Y-63398386D01*
X125678968Y-63871000D01*
X124964000Y-63871000D01*
X124964000Y-61331000D01*
X125678968Y-61331000D01*
X125772977Y-61803614D01*
X126040691Y-62204277D01*
X126441354Y-62471991D01*
X126913968Y-62566000D01*
X127778032Y-62566000D01*
X128250646Y-62471991D01*
X128651309Y-62204277D01*
X128919023Y-61803614D01*
X128949855Y-61648609D01*
X143532538Y-61648609D01*
X143536408Y-61686281D01*
X143762920Y-62114474D01*
X144136053Y-62423390D01*
X144599000Y-62566000D01*
X144999000Y-62566000D01*
X144999000Y-61458000D01*
X145253000Y-61458000D01*
X145253000Y-62566000D01*
X145653000Y-62566000D01*
X146115947Y-62423390D01*
X146489080Y-62114474D01*
X146597181Y-61910122D01*
X148719581Y-61910122D01*
X148748336Y-62440440D01*
X148895958Y-62796831D01*
X149131725Y-62858669D01*
X149887395Y-62103000D01*
X150246605Y-62103000D01*
X151002275Y-62858669D01*
X151238042Y-62796831D01*
X151414419Y-62295878D01*
X151385664Y-61765560D01*
X151238042Y-61409169D01*
X151214522Y-61403000D01*
X153719560Y-61403000D01*
X153719560Y-62803000D01*
X153763838Y-63038317D01*
X153902910Y-63254441D01*
X154115110Y-63399431D01*
X154367000Y-63450440D01*
X155767000Y-63450440D01*
X156002317Y-63406162D01*
X156218441Y-63267090D01*
X156363431Y-63054890D01*
X156414440Y-62803000D01*
X156414440Y-61403000D01*
X157148560Y-61403000D01*
X157148560Y-62803000D01*
X157192838Y-63038317D01*
X157331910Y-63254441D01*
X157544110Y-63399431D01*
X157796000Y-63450440D01*
X159196000Y-63450440D01*
X159431317Y-63406162D01*
X159647441Y-63267090D01*
X159792431Y-63054890D01*
X159843440Y-62803000D01*
X159843440Y-61403000D01*
X159799162Y-61167683D01*
X159660090Y-60951559D01*
X159447890Y-60806569D01*
X159196000Y-60755560D01*
X157796000Y-60755560D01*
X157560683Y-60799838D01*
X157344559Y-60938910D01*
X157199569Y-61151110D01*
X157148560Y-61403000D01*
X156414440Y-61403000D01*
X156370162Y-61167683D01*
X156231090Y-60951559D01*
X156018890Y-60806569D01*
X155767000Y-60755560D01*
X154367000Y-60755560D01*
X154131683Y-60799838D01*
X153915559Y-60938910D01*
X153770569Y-61151110D01*
X153719560Y-61403000D01*
X151214522Y-61403000D01*
X151002275Y-61347331D01*
X150246605Y-62103000D01*
X149887395Y-62103000D01*
X149131725Y-61347331D01*
X148895958Y-61409169D01*
X148719581Y-61910122D01*
X146597181Y-61910122D01*
X146715592Y-61686281D01*
X146719462Y-61648609D01*
X146594731Y-61458000D01*
X145253000Y-61458000D01*
X144999000Y-61458000D01*
X143657269Y-61458000D01*
X143532538Y-61648609D01*
X128949855Y-61648609D01*
X129013032Y-61331000D01*
X128949856Y-61013391D01*
X143532538Y-61013391D01*
X143657269Y-61204000D01*
X144999000Y-61204000D01*
X144999000Y-60096000D01*
X145253000Y-60096000D01*
X145253000Y-61204000D01*
X146594731Y-61204000D01*
X146618468Y-61167725D01*
X149311331Y-61167725D01*
X150067000Y-61923395D01*
X150822669Y-61167725D01*
X150760831Y-60931958D01*
X150259878Y-60755581D01*
X149729560Y-60784336D01*
X149373169Y-60931958D01*
X149311331Y-61167725D01*
X146618468Y-61167725D01*
X146719462Y-61013391D01*
X146715592Y-60975719D01*
X146489080Y-60547526D01*
X146115947Y-60238610D01*
X145653000Y-60096000D01*
X145253000Y-60096000D01*
X144999000Y-60096000D01*
X144599000Y-60096000D01*
X144136053Y-60238610D01*
X143762920Y-60547526D01*
X143536408Y-60975719D01*
X143532538Y-61013391D01*
X128949856Y-61013391D01*
X128919023Y-60858386D01*
X128651309Y-60457723D01*
X128250646Y-60190009D01*
X127778032Y-60096000D01*
X126913968Y-60096000D01*
X126441354Y-60190009D01*
X126040691Y-60457723D01*
X125772977Y-60858386D01*
X125678968Y-61331000D01*
X124964000Y-61331000D01*
X124964000Y-60156276D01*
X125040645Y-60079765D01*
X125213803Y-59662756D01*
X125214197Y-59211225D01*
X125041767Y-58793914D01*
X125038859Y-58791000D01*
X125678968Y-58791000D01*
X125772977Y-59263614D01*
X126040691Y-59664277D01*
X126441354Y-59931991D01*
X126913968Y-60026000D01*
X127778032Y-60026000D01*
X128250646Y-59931991D01*
X128651309Y-59664277D01*
X128919023Y-59263614D01*
X129013032Y-58791000D01*
X143458968Y-58791000D01*
X143552977Y-59263614D01*
X143820691Y-59664277D01*
X144221354Y-59931991D01*
X144693968Y-60026000D01*
X145558032Y-60026000D01*
X146030646Y-59931991D01*
X146431309Y-59664277D01*
X146699023Y-59263614D01*
X146793032Y-58791000D01*
X146699023Y-58318386D01*
X146431309Y-57917723D01*
X146030646Y-57650009D01*
X145558032Y-57556000D01*
X144693968Y-57556000D01*
X144221354Y-57650009D01*
X143820691Y-57917723D01*
X143552977Y-58318386D01*
X143458968Y-58791000D01*
X129013032Y-58791000D01*
X128919023Y-58318386D01*
X128651309Y-57917723D01*
X128250646Y-57650009D01*
X127778032Y-57556000D01*
X126913968Y-57556000D01*
X126441354Y-57650009D01*
X126040691Y-57917723D01*
X125772977Y-58318386D01*
X125678968Y-58791000D01*
X125038859Y-58791000D01*
X124722765Y-58474355D01*
X124305756Y-58301197D01*
X123854225Y-58300803D01*
X123436914Y-58473233D01*
X123117355Y-58792235D01*
X122944197Y-59209244D01*
X122943803Y-59660775D01*
X123116233Y-60078086D01*
X123194000Y-60155989D01*
X123194000Y-60305261D01*
X122934698Y-59917189D01*
X122469151Y-59606120D01*
X121920000Y-59496887D01*
X121370849Y-59606120D01*
X120905302Y-59917189D01*
X120635014Y-60321703D01*
X120532389Y-60104866D01*
X120117423Y-59728959D01*
X119729039Y-59568096D01*
X119507000Y-59690085D01*
X119507000Y-60833000D01*
X119527000Y-60833000D01*
X119527000Y-61087000D01*
X119507000Y-61087000D01*
X119507000Y-61107000D01*
X119253000Y-61107000D01*
X119253000Y-61087000D01*
X119233000Y-61087000D01*
X119233000Y-60833000D01*
X119253000Y-60833000D01*
X119253000Y-59690085D01*
X119030961Y-59568096D01*
X118642577Y-59728959D01*
X118227611Y-60104866D01*
X118124986Y-60321703D01*
X117854698Y-59917189D01*
X117389151Y-59606120D01*
X116840000Y-59496887D01*
X116290849Y-59606120D01*
X115825302Y-59917189D01*
X115514233Y-60382736D01*
X115405000Y-60931887D01*
X115405000Y-60988113D01*
X115460096Y-61265102D01*
X114143599Y-62581599D01*
X113978852Y-62828161D01*
X113921000Y-63119000D01*
X113921000Y-71628000D01*
X113978852Y-71918839D01*
X114143599Y-72165401D01*
X114937000Y-72958802D01*
X114937000Y-73348504D01*
X114772345Y-73416538D01*
X114312154Y-73875927D01*
X114242779Y-74043000D01*
X113976496Y-74043000D01*
X113908462Y-73878345D01*
X113449073Y-73418154D01*
X112848547Y-73168794D01*
X112198306Y-73168226D01*
X111597345Y-73416538D01*
X111137154Y-73875927D01*
X110887794Y-74476453D01*
X110887449Y-74871496D01*
X110701675Y-74747367D01*
X110645484Y-74736190D01*
X110363000Y-74679999D01*
X110362995Y-74680000D01*
X103251005Y-74680000D01*
X103251000Y-74679999D01*
X102968516Y-74736190D01*
X102912325Y-74747367D01*
X102625210Y-74939210D01*
X102625208Y-74939213D01*
X100801975Y-76762445D01*
X100568277Y-76412691D01*
X100167614Y-76144977D01*
X99695000Y-76050968D01*
X99222386Y-76144977D01*
X98821723Y-76412691D01*
X98554009Y-76813354D01*
X98460000Y-77285968D01*
X90685000Y-77285968D01*
X90685000Y-67300000D01*
X109422968Y-67300000D01*
X109516977Y-67772614D01*
X109784691Y-68173277D01*
X110185354Y-68440991D01*
X110657968Y-68535000D01*
X111522032Y-68535000D01*
X111994646Y-68440991D01*
X112395309Y-68173277D01*
X112663023Y-67772614D01*
X112757032Y-67300000D01*
X112663023Y-66827386D01*
X112395309Y-66426723D01*
X111994646Y-66159009D01*
X111522032Y-66065000D01*
X110657968Y-66065000D01*
X110185354Y-66159009D01*
X109784691Y-66426723D01*
X109516977Y-66827386D01*
X109422968Y-67300000D01*
X90685000Y-67300000D01*
X90685000Y-61029694D01*
X98949226Y-61029694D01*
X99197538Y-61630655D01*
X99656927Y-62090846D01*
X100257453Y-62340206D01*
X100907694Y-62340774D01*
X101508655Y-62092462D01*
X101968846Y-61633073D01*
X102218206Y-61032547D01*
X102218208Y-61029694D01*
X102505226Y-61029694D01*
X102753538Y-61630655D01*
X103212927Y-62090846D01*
X103813453Y-62340206D01*
X104463694Y-62340774D01*
X105064655Y-62092462D01*
X105185327Y-61972000D01*
X106801153Y-61972000D01*
X106817538Y-62011655D01*
X106930553Y-62124868D01*
X105547523Y-63507897D01*
X105439225Y-63507803D01*
X105021914Y-63680233D01*
X104702355Y-63999235D01*
X104529197Y-64416244D01*
X104528803Y-64867775D01*
X104701233Y-65285086D01*
X105020235Y-65604645D01*
X105437244Y-65777803D01*
X105888775Y-65778197D01*
X106306086Y-65605767D01*
X106625645Y-65286765D01*
X106798803Y-64869756D01*
X106798898Y-64760000D01*
X109422968Y-64760000D01*
X109516977Y-65232614D01*
X109784691Y-65633277D01*
X110185354Y-65900991D01*
X110657968Y-65995000D01*
X111522032Y-65995000D01*
X111994646Y-65900991D01*
X112395309Y-65633277D01*
X112663023Y-65232614D01*
X112757032Y-64760000D01*
X112663023Y-64287386D01*
X112395309Y-63886723D01*
X111994646Y-63619009D01*
X111522032Y-63525000D01*
X110657968Y-63525000D01*
X110185354Y-63619009D01*
X109784691Y-63886723D01*
X109516977Y-64287386D01*
X109422968Y-64760000D01*
X106798898Y-64760000D01*
X106798899Y-64759681D01*
X108829787Y-62728792D01*
X108829790Y-62728790D01*
X108951478Y-62546670D01*
X109128655Y-62473462D01*
X109432980Y-62169668D01*
X109422968Y-62220000D01*
X109516977Y-62692614D01*
X109784691Y-63093277D01*
X110185354Y-63360991D01*
X110657968Y-63455000D01*
X111522032Y-63455000D01*
X111994646Y-63360991D01*
X112395309Y-63093277D01*
X112663023Y-62692614D01*
X112757032Y-62220000D01*
X112663023Y-61747386D01*
X112395309Y-61346723D01*
X111994646Y-61079009D01*
X111522032Y-60985000D01*
X110657968Y-60985000D01*
X110185354Y-61079009D01*
X109838296Y-61310906D01*
X109838774Y-60763306D01*
X109699004Y-60425038D01*
X109784691Y-60553277D01*
X110185354Y-60820991D01*
X110657968Y-60915000D01*
X111522032Y-60915000D01*
X111994646Y-60820991D01*
X112395309Y-60553277D01*
X112663023Y-60152614D01*
X112757032Y-59680000D01*
X112663023Y-59207386D01*
X112395309Y-58806723D01*
X111994646Y-58539009D01*
X111522032Y-58445000D01*
X110657968Y-58445000D01*
X110185354Y-58539009D01*
X109784691Y-58806723D01*
X109516977Y-59207386D01*
X109422968Y-59680000D01*
X109501108Y-60072835D01*
X109131073Y-59702154D01*
X108530547Y-59452794D01*
X107880306Y-59452226D01*
X107279345Y-59700538D01*
X106819154Y-60159927D01*
X106801684Y-60202000D01*
X105700273Y-60202000D01*
X105526462Y-59781345D01*
X105067073Y-59321154D01*
X104466547Y-59071794D01*
X103816306Y-59071226D01*
X103215345Y-59319538D01*
X102755154Y-59778927D01*
X102505794Y-60379453D01*
X102505226Y-61029694D01*
X102218208Y-61029694D01*
X102218774Y-60382306D01*
X101970462Y-59781345D01*
X101511073Y-59321154D01*
X100910547Y-59071794D01*
X100260306Y-59071226D01*
X99659345Y-59319538D01*
X99199154Y-59778927D01*
X98949794Y-60379453D01*
X98949226Y-61029694D01*
X90685000Y-61029694D01*
X90685000Y-57140000D01*
X109422968Y-57140000D01*
X109516977Y-57612614D01*
X109784691Y-58013277D01*
X110185354Y-58280991D01*
X110657968Y-58375000D01*
X111522032Y-58375000D01*
X111994646Y-58280991D01*
X112395309Y-58013277D01*
X112663023Y-57612614D01*
X112757032Y-57140000D01*
X112663023Y-56667386D01*
X112395309Y-56266723D01*
X112371778Y-56251000D01*
X125678968Y-56251000D01*
X125772977Y-56723614D01*
X126040691Y-57124277D01*
X126441354Y-57391991D01*
X126913968Y-57486000D01*
X127778032Y-57486000D01*
X128250646Y-57391991D01*
X128651309Y-57124277D01*
X128919023Y-56723614D01*
X129013032Y-56251000D01*
X143458968Y-56251000D01*
X143552977Y-56723614D01*
X143820691Y-57124277D01*
X144221354Y-57391991D01*
X144693968Y-57486000D01*
X145558032Y-57486000D01*
X146030646Y-57391991D01*
X146202742Y-57277000D01*
X156603960Y-57277000D01*
X156603960Y-59309000D01*
X156648238Y-59544317D01*
X156787310Y-59760441D01*
X156999510Y-59905431D01*
X157251400Y-59956440D01*
X158978600Y-59956440D01*
X159213917Y-59912162D01*
X159430041Y-59773090D01*
X159575031Y-59560890D01*
X159583400Y-59519561D01*
X159595330Y-59537415D01*
X160081511Y-59862271D01*
X160655000Y-59976345D01*
X161228489Y-59862271D01*
X161714670Y-59537415D01*
X161921461Y-59227931D01*
X162292964Y-59643732D01*
X162820209Y-59897709D01*
X162835974Y-59900358D01*
X163068000Y-59779217D01*
X163068000Y-58420000D01*
X163322000Y-58420000D01*
X163322000Y-59779217D01*
X163554026Y-59900358D01*
X163569791Y-59897709D01*
X164097036Y-59643732D01*
X164486954Y-59207320D01*
X164680184Y-58654913D01*
X164535924Y-58420000D01*
X163322000Y-58420000D01*
X163068000Y-58420000D01*
X163048000Y-58420000D01*
X163048000Y-58166000D01*
X163068000Y-58166000D01*
X163068000Y-56806783D01*
X163322000Y-56806783D01*
X163322000Y-58166000D01*
X164535924Y-58166000D01*
X164680184Y-57931087D01*
X164486954Y-57378680D01*
X164097036Y-56942268D01*
X163569791Y-56688291D01*
X163554026Y-56685642D01*
X163322000Y-56806783D01*
X163068000Y-56806783D01*
X162835974Y-56685642D01*
X162820209Y-56688291D01*
X162292964Y-56942268D01*
X161921461Y-57358069D01*
X161714670Y-57048585D01*
X161228489Y-56723729D01*
X160655000Y-56609655D01*
X160081511Y-56723729D01*
X159595330Y-57048585D01*
X159585757Y-57062913D01*
X159581762Y-57041683D01*
X159442690Y-56825559D01*
X159230490Y-56680569D01*
X158978600Y-56629560D01*
X157251400Y-56629560D01*
X157016083Y-56673838D01*
X156799959Y-56812910D01*
X156654969Y-57025110D01*
X156603960Y-57277000D01*
X146202742Y-57277000D01*
X146431309Y-57124277D01*
X146699023Y-56723614D01*
X146793032Y-56251000D01*
X146699023Y-55778386D01*
X146431309Y-55377723D01*
X146030646Y-55110009D01*
X145558032Y-55016000D01*
X144693968Y-55016000D01*
X144221354Y-55110009D01*
X143820691Y-55377723D01*
X143552977Y-55778386D01*
X143458968Y-56251000D01*
X129013032Y-56251000D01*
X128919023Y-55778386D01*
X128651309Y-55377723D01*
X128250646Y-55110009D01*
X127778032Y-55016000D01*
X126913968Y-55016000D01*
X126441354Y-55110009D01*
X126040691Y-55377723D01*
X125772977Y-55778386D01*
X125678968Y-56251000D01*
X112371778Y-56251000D01*
X111994646Y-55999009D01*
X111522032Y-55905000D01*
X110657968Y-55905000D01*
X110185354Y-55999009D01*
X109784691Y-56266723D01*
X109516977Y-56667386D01*
X109422968Y-57140000D01*
X90685000Y-57140000D01*
X90685000Y-49929968D01*
X91303000Y-49929968D01*
X91303000Y-50470032D01*
X91409340Y-51004641D01*
X91712172Y-51457860D01*
X92165391Y-51760692D01*
X92700000Y-51867032D01*
X93234609Y-51760692D01*
X93687828Y-51457860D01*
X93970000Y-51035561D01*
X94252172Y-51457860D01*
X94705391Y-51760692D01*
X95240000Y-51867032D01*
X95774609Y-51760692D01*
X96227828Y-51457860D01*
X96529762Y-51005985D01*
X96810657Y-51426375D01*
X97259983Y-51726605D01*
X97790000Y-51832032D01*
X98320017Y-51726605D01*
X98769343Y-51426375D01*
X99065489Y-50983161D01*
X99080036Y-51036721D01*
X99413106Y-51467736D01*
X99751386Y-51661507D01*
X99659345Y-51699538D01*
X99199154Y-52158927D01*
X98949794Y-52759453D01*
X98949226Y-53409694D01*
X99197538Y-54010655D01*
X99656927Y-54470846D01*
X100257453Y-54720206D01*
X100907694Y-54720774D01*
X101508655Y-54472462D01*
X101968846Y-54013073D01*
X102218206Y-53412547D01*
X102218774Y-52762306D01*
X101970462Y-52161345D01*
X101511073Y-51701154D01*
X101121676Y-51539462D01*
X101246894Y-51467736D01*
X101579964Y-51036721D01*
X101594511Y-50983161D01*
X101890657Y-51426375D01*
X102339983Y-51726605D01*
X102870000Y-51832032D01*
X103135529Y-51779215D01*
X102755154Y-52158927D01*
X102505794Y-52759453D01*
X102505226Y-53409694D01*
X102753538Y-54010655D01*
X103212927Y-54470846D01*
X103813453Y-54720206D01*
X104463694Y-54720774D01*
X105064655Y-54472462D01*
X105524846Y-54013073D01*
X105617185Y-53790694D01*
X106569226Y-53790694D01*
X106817538Y-54391655D01*
X107276927Y-54851846D01*
X107877453Y-55101206D01*
X108527694Y-55101774D01*
X108973407Y-54917609D01*
X109496538Y-54917609D01*
X109500408Y-54955281D01*
X109726920Y-55383474D01*
X110100053Y-55692390D01*
X110563000Y-55835000D01*
X110963000Y-55835000D01*
X110963000Y-54727000D01*
X111217000Y-54727000D01*
X111217000Y-55835000D01*
X111617000Y-55835000D01*
X112079947Y-55692390D01*
X112453080Y-55383474D01*
X112679592Y-54955281D01*
X112683462Y-54917609D01*
X112558731Y-54727000D01*
X111217000Y-54727000D01*
X110963000Y-54727000D01*
X109621269Y-54727000D01*
X109496538Y-54917609D01*
X108973407Y-54917609D01*
X109128655Y-54853462D01*
X109577217Y-54405682D01*
X109621269Y-54473000D01*
X110963000Y-54473000D01*
X110963000Y-53365000D01*
X111217000Y-53365000D01*
X111217000Y-54473000D01*
X112558731Y-54473000D01*
X112683462Y-54282391D01*
X112679592Y-54244719D01*
X112453080Y-53816526D01*
X112079947Y-53507610D01*
X111617000Y-53365000D01*
X111217000Y-53365000D01*
X110963000Y-53365000D01*
X110563000Y-53365000D01*
X110100053Y-53507610D01*
X109838266Y-53724343D01*
X109838626Y-53311887D01*
X115405000Y-53311887D01*
X115405000Y-53368113D01*
X115514233Y-53917264D01*
X115825302Y-54382811D01*
X116290849Y-54693880D01*
X116840000Y-54803113D01*
X117389151Y-54693880D01*
X117854698Y-54382811D01*
X118110000Y-54000725D01*
X118365302Y-54382811D01*
X118830849Y-54693880D01*
X119380000Y-54803113D01*
X119929151Y-54693880D01*
X120394698Y-54382811D01*
X120664986Y-53978297D01*
X120767611Y-54195134D01*
X121182577Y-54571041D01*
X121570961Y-54731904D01*
X121793000Y-54609915D01*
X121793000Y-53467000D01*
X122047000Y-53467000D01*
X122047000Y-54609915D01*
X122269039Y-54731904D01*
X122657423Y-54571041D01*
X123072389Y-54195134D01*
X123301521Y-53711000D01*
X143458968Y-53711000D01*
X143552977Y-54183614D01*
X143820691Y-54584277D01*
X144221354Y-54851991D01*
X144693968Y-54946000D01*
X145558032Y-54946000D01*
X146030646Y-54851991D01*
X146431309Y-54584277D01*
X146699023Y-54183614D01*
X146793032Y-53711000D01*
X146744498Y-53467000D01*
X154190960Y-53467000D01*
X154190960Y-55499000D01*
X154235238Y-55734317D01*
X154374310Y-55950441D01*
X154586510Y-56095431D01*
X154838400Y-56146440D01*
X156565600Y-56146440D01*
X156800917Y-56102162D01*
X157017041Y-55963090D01*
X157162031Y-55750890D01*
X157170400Y-55709561D01*
X157182330Y-55727415D01*
X157668511Y-56052271D01*
X158242000Y-56166345D01*
X158815489Y-56052271D01*
X159301670Y-55727415D01*
X159512000Y-55412634D01*
X159722330Y-55727415D01*
X160208511Y-56052271D01*
X160782000Y-56166345D01*
X161355489Y-56052271D01*
X161841670Y-55727415D01*
X162048461Y-55417931D01*
X162419964Y-55833732D01*
X162947209Y-56087709D01*
X162962974Y-56090358D01*
X163195000Y-55969217D01*
X163195000Y-54610000D01*
X163449000Y-54610000D01*
X163449000Y-55969217D01*
X163681026Y-56090358D01*
X163696791Y-56087709D01*
X164224036Y-55833732D01*
X164613954Y-55397320D01*
X164807184Y-54844913D01*
X164662924Y-54610000D01*
X163449000Y-54610000D01*
X163195000Y-54610000D01*
X163175000Y-54610000D01*
X163175000Y-54356000D01*
X163195000Y-54356000D01*
X163195000Y-52996783D01*
X163449000Y-52996783D01*
X163449000Y-54356000D01*
X164662924Y-54356000D01*
X164807184Y-54121087D01*
X164613954Y-53568680D01*
X164224036Y-53132268D01*
X163696791Y-52878291D01*
X163681026Y-52875642D01*
X163449000Y-52996783D01*
X163195000Y-52996783D01*
X162962974Y-52875642D01*
X162947209Y-52878291D01*
X162419964Y-53132268D01*
X162048461Y-53548069D01*
X161841670Y-53238585D01*
X161355489Y-52913729D01*
X160782000Y-52799655D01*
X160208511Y-52913729D01*
X159722330Y-53238585D01*
X159512000Y-53553366D01*
X159301670Y-53238585D01*
X158815489Y-52913729D01*
X158242000Y-52799655D01*
X157668511Y-52913729D01*
X157182330Y-53238585D01*
X157172757Y-53252913D01*
X157168762Y-53231683D01*
X157029690Y-53015559D01*
X156817490Y-52870569D01*
X156565600Y-52819560D01*
X154838400Y-52819560D01*
X154603083Y-52863838D01*
X154386959Y-53002910D01*
X154241969Y-53215110D01*
X154190960Y-53467000D01*
X146744498Y-53467000D01*
X146699023Y-53238386D01*
X146431309Y-52837723D01*
X146030646Y-52570009D01*
X145558032Y-52476000D01*
X144693968Y-52476000D01*
X144221354Y-52570009D01*
X143820691Y-52837723D01*
X143552977Y-53238386D01*
X143458968Y-53711000D01*
X123301521Y-53711000D01*
X123311914Y-53689041D01*
X123190629Y-53467000D01*
X122047000Y-53467000D01*
X121793000Y-53467000D01*
X121773000Y-53467000D01*
X121773000Y-53213000D01*
X121793000Y-53213000D01*
X121793000Y-52070085D01*
X122047000Y-52070085D01*
X122047000Y-53213000D01*
X123190629Y-53213000D01*
X123311914Y-52990959D01*
X123072389Y-52484866D01*
X122657423Y-52108959D01*
X122269039Y-51948096D01*
X122047000Y-52070085D01*
X121793000Y-52070085D01*
X121570961Y-51948096D01*
X121182577Y-52108959D01*
X120767611Y-52484866D01*
X120664986Y-52701703D01*
X120394698Y-52297189D01*
X119929151Y-51986120D01*
X119380000Y-51876887D01*
X118830849Y-51986120D01*
X118365302Y-52297189D01*
X118110000Y-52679275D01*
X117854698Y-52297189D01*
X117389151Y-51986120D01*
X116840000Y-51876887D01*
X116290849Y-51986120D01*
X115825302Y-52297189D01*
X115514233Y-52762736D01*
X115405000Y-53311887D01*
X109838626Y-53311887D01*
X109838774Y-53143306D01*
X109590462Y-52542345D01*
X109131073Y-52082154D01*
X108530547Y-51832794D01*
X107880306Y-51832226D01*
X107279345Y-52080538D01*
X106819154Y-52539927D01*
X106569794Y-53140453D01*
X106569226Y-53790694D01*
X105617185Y-53790694D01*
X105774206Y-53412547D01*
X105774774Y-52762306D01*
X105526462Y-52161345D01*
X105145128Y-51779346D01*
X105410000Y-51832032D01*
X105940017Y-51726605D01*
X106389343Y-51426375D01*
X106680000Y-50991376D01*
X106970657Y-51426375D01*
X107419983Y-51726605D01*
X107950000Y-51832032D01*
X108480017Y-51726605D01*
X108929343Y-51426375D01*
X109220000Y-50991376D01*
X109510657Y-51426375D01*
X109959983Y-51726605D01*
X110490000Y-51832032D01*
X111020017Y-51726605D01*
X111469343Y-51426375D01*
X111760000Y-50991376D01*
X112050657Y-51426375D01*
X112499983Y-51726605D01*
X113030000Y-51832032D01*
X113560017Y-51726605D01*
X114009343Y-51426375D01*
X114300000Y-50991376D01*
X114590657Y-51426375D01*
X115039983Y-51726605D01*
X115570000Y-51832032D01*
X116100017Y-51726605D01*
X116549343Y-51426375D01*
X116849573Y-50977049D01*
X116955000Y-50447032D01*
X116955000Y-49882968D01*
X117995000Y-49882968D01*
X117995000Y-50447032D01*
X118100427Y-50977049D01*
X118400657Y-51426375D01*
X118849983Y-51726605D01*
X119380000Y-51832032D01*
X119910017Y-51726605D01*
X120359343Y-51426375D01*
X120650000Y-50991376D01*
X120940657Y-51426375D01*
X121389983Y-51726605D01*
X121920000Y-51832032D01*
X122450017Y-51726605D01*
X122899343Y-51426375D01*
X123190000Y-50991376D01*
X123480657Y-51426375D01*
X123929983Y-51726605D01*
X124460000Y-51832032D01*
X124990017Y-51726605D01*
X125439343Y-51426375D01*
X125730000Y-50991376D01*
X126020657Y-51426375D01*
X126469983Y-51726605D01*
X127000000Y-51832032D01*
X127530017Y-51726605D01*
X127979343Y-51426375D01*
X128270000Y-50991376D01*
X128560657Y-51426375D01*
X129009983Y-51726605D01*
X129540000Y-51832032D01*
X130070017Y-51726605D01*
X130519343Y-51426375D01*
X130810000Y-50991376D01*
X131100657Y-51426375D01*
X131549983Y-51726605D01*
X132080000Y-51832032D01*
X132610017Y-51726605D01*
X133059343Y-51426375D01*
X133350000Y-50991376D01*
X133640657Y-51426375D01*
X134089983Y-51726605D01*
X134620000Y-51832032D01*
X135150017Y-51726605D01*
X135599343Y-51426375D01*
X135890000Y-50991376D01*
X136180657Y-51426375D01*
X136629983Y-51726605D01*
X137160000Y-51832032D01*
X137690017Y-51726605D01*
X138139343Y-51426375D01*
X138439573Y-50977049D01*
X138545000Y-50447032D01*
X138545000Y-49882968D01*
X140855000Y-49882968D01*
X140855000Y-50447032D01*
X140960427Y-50977049D01*
X141260657Y-51426375D01*
X141709983Y-51726605D01*
X142240000Y-51832032D01*
X142770017Y-51726605D01*
X143219343Y-51426375D01*
X143510000Y-50991376D01*
X143800657Y-51426375D01*
X144249983Y-51726605D01*
X144780000Y-51832032D01*
X145310017Y-51726605D01*
X145759343Y-51426375D01*
X146050000Y-50991376D01*
X146340657Y-51426375D01*
X146789983Y-51726605D01*
X147320000Y-51832032D01*
X147850017Y-51726605D01*
X148299343Y-51426375D01*
X148590000Y-50991376D01*
X148880657Y-51426375D01*
X149329983Y-51726605D01*
X149860000Y-51832032D01*
X150390017Y-51726605D01*
X150839343Y-51426375D01*
X151130000Y-50991376D01*
X151420657Y-51426375D01*
X151869983Y-51726605D01*
X152400000Y-51832032D01*
X152930017Y-51726605D01*
X153379343Y-51426375D01*
X153670000Y-50991376D01*
X153960657Y-51426375D01*
X154409983Y-51726605D01*
X154940000Y-51832032D01*
X155470017Y-51726605D01*
X155919343Y-51426375D01*
X156210000Y-50991376D01*
X156500657Y-51426375D01*
X156949983Y-51726605D01*
X157480000Y-51832032D01*
X158010017Y-51726605D01*
X158459343Y-51426375D01*
X158750000Y-50991376D01*
X159040657Y-51426375D01*
X159489983Y-51726605D01*
X160020000Y-51832032D01*
X160550017Y-51726605D01*
X160999343Y-51426375D01*
X161299573Y-50977049D01*
X161405000Y-50447032D01*
X161405000Y-50200000D01*
X165962968Y-50200000D01*
X166069308Y-50734609D01*
X166372140Y-51187828D01*
X166777841Y-51458909D01*
X166378625Y-51725657D01*
X166078395Y-52174983D01*
X165972968Y-52705000D01*
X166078395Y-53235017D01*
X166378625Y-53684343D01*
X166813624Y-53975000D01*
X166378625Y-54265657D01*
X166078395Y-54714983D01*
X165972968Y-55245000D01*
X166078395Y-55775017D01*
X166378625Y-56224343D01*
X166813624Y-56515000D01*
X166378625Y-56805657D01*
X166078395Y-57254983D01*
X165972968Y-57785000D01*
X166078395Y-58315017D01*
X166378625Y-58764343D01*
X166813624Y-59055000D01*
X166378625Y-59345657D01*
X166078395Y-59794983D01*
X165972968Y-60325000D01*
X166078395Y-60855017D01*
X166378625Y-61304343D01*
X166813624Y-61595000D01*
X166378625Y-61885657D01*
X166078395Y-62334983D01*
X165972968Y-62865000D01*
X166078395Y-63395017D01*
X166378625Y-63844343D01*
X166813624Y-64135000D01*
X166378625Y-64425657D01*
X166078395Y-64874983D01*
X165972968Y-65405000D01*
X166078395Y-65935017D01*
X166378625Y-66384343D01*
X166813624Y-66675000D01*
X166378625Y-66965657D01*
X166078395Y-67414983D01*
X165972968Y-67945000D01*
X166078395Y-68475017D01*
X166378625Y-68924343D01*
X166813624Y-69215000D01*
X166378625Y-69505657D01*
X166078395Y-69954983D01*
X165972968Y-70485000D01*
X166078395Y-71015017D01*
X166378625Y-71464343D01*
X166813624Y-71755000D01*
X166378625Y-72045657D01*
X166078395Y-72494983D01*
X165972968Y-73025000D01*
X166078395Y-73555017D01*
X166378625Y-74004343D01*
X166813624Y-74295000D01*
X166378625Y-74585657D01*
X166078395Y-75034983D01*
X165972968Y-75565000D01*
X166078395Y-76095017D01*
X166378625Y-76544343D01*
X166813624Y-76835000D01*
X166378625Y-77125657D01*
X166078395Y-77574983D01*
X165972968Y-78105000D01*
X166078395Y-78635017D01*
X166378625Y-79084343D01*
X166813624Y-79375000D01*
X166378625Y-79665657D01*
X166078395Y-80114983D01*
X165972968Y-80645000D01*
X166078395Y-81175017D01*
X166378625Y-81624343D01*
X166813624Y-81915000D01*
X166378625Y-82205657D01*
X166078395Y-82654983D01*
X165972968Y-83185000D01*
X166078395Y-83715017D01*
X166378625Y-84164343D01*
X166813624Y-84455000D01*
X166378625Y-84745657D01*
X166078395Y-85194983D01*
X165972968Y-85725000D01*
X166078395Y-86255017D01*
X166378625Y-86704343D01*
X166813624Y-86995000D01*
X166378625Y-87285657D01*
X166078395Y-87734983D01*
X165972968Y-88265000D01*
X166078395Y-88795017D01*
X166378625Y-89244343D01*
X166813624Y-89535000D01*
X166378625Y-89825657D01*
X166078395Y-90274983D01*
X165972968Y-90805000D01*
X166078395Y-91335017D01*
X166378625Y-91784343D01*
X166821839Y-92080489D01*
X166768279Y-92095036D01*
X166337264Y-92428106D01*
X166066519Y-92900765D01*
X166047682Y-93003815D01*
X166170344Y-93218000D01*
X167513000Y-93218000D01*
X167513000Y-93198000D01*
X167767000Y-93198000D01*
X167767000Y-93218000D01*
X170053000Y-93218000D01*
X170053000Y-93198000D01*
X170307000Y-93198000D01*
X170307000Y-93218000D01*
X171649656Y-93218000D01*
X171772318Y-93003815D01*
X171753481Y-92900765D01*
X171482736Y-92428106D01*
X171051721Y-92095036D01*
X170998161Y-92080489D01*
X171441375Y-91784343D01*
X171741605Y-91335017D01*
X171847032Y-90805000D01*
X171741605Y-90274983D01*
X171441375Y-89825657D01*
X171006376Y-89535000D01*
X171441375Y-89244343D01*
X171741605Y-88795017D01*
X171847032Y-88265000D01*
X171741605Y-87734983D01*
X171441375Y-87285657D01*
X171006376Y-86995000D01*
X171441375Y-86704343D01*
X171741605Y-86255017D01*
X171847032Y-85725000D01*
X171741605Y-85194983D01*
X171441375Y-84745657D01*
X171006376Y-84455000D01*
X171441375Y-84164343D01*
X171741605Y-83715017D01*
X171847032Y-83185000D01*
X171741605Y-82654983D01*
X171441375Y-82205657D01*
X171006376Y-81915000D01*
X171441375Y-81624343D01*
X171741605Y-81175017D01*
X171847032Y-80645000D01*
X171741605Y-80114983D01*
X171441375Y-79665657D01*
X171006376Y-79375000D01*
X171441375Y-79084343D01*
X171741605Y-78635017D01*
X171847032Y-78105000D01*
X171741605Y-77574983D01*
X171441375Y-77125657D01*
X171006376Y-76835000D01*
X171441375Y-76544343D01*
X171741605Y-76095017D01*
X171847032Y-75565000D01*
X171741605Y-75034983D01*
X171441375Y-74585657D01*
X171006376Y-74295000D01*
X171441375Y-74004343D01*
X171741605Y-73555017D01*
X171847032Y-73025000D01*
X171741605Y-72494983D01*
X171441375Y-72045657D01*
X171006376Y-71755000D01*
X171441375Y-71464343D01*
X171741605Y-71015017D01*
X171847032Y-70485000D01*
X171741605Y-69954983D01*
X171441375Y-69505657D01*
X171006376Y-69215000D01*
X171441375Y-68924343D01*
X171741605Y-68475017D01*
X171847032Y-67945000D01*
X171741605Y-67414983D01*
X171441375Y-66965657D01*
X171006376Y-66675000D01*
X171441375Y-66384343D01*
X171741605Y-65935017D01*
X171847032Y-65405000D01*
X171741605Y-64874983D01*
X171441375Y-64425657D01*
X171006376Y-64135000D01*
X171441375Y-63844343D01*
X171741605Y-63395017D01*
X171847032Y-62865000D01*
X171741605Y-62334983D01*
X171441375Y-61885657D01*
X171006376Y-61595000D01*
X171441375Y-61304343D01*
X171741605Y-60855017D01*
X171847032Y-60325000D01*
X171741605Y-59794983D01*
X171441375Y-59345657D01*
X171006376Y-59055000D01*
X171441375Y-58764343D01*
X171741605Y-58315017D01*
X171847032Y-57785000D01*
X171741605Y-57254983D01*
X171441375Y-56805657D01*
X171006376Y-56515000D01*
X171441375Y-56224343D01*
X171741605Y-55775017D01*
X171847032Y-55245000D01*
X171741605Y-54714983D01*
X171441375Y-54265657D01*
X171006376Y-53975000D01*
X171441375Y-53684343D01*
X171741605Y-53235017D01*
X171847032Y-52705000D01*
X171741605Y-52174983D01*
X171441375Y-51725657D01*
X171032159Y-51452228D01*
X171427860Y-51187828D01*
X171730692Y-50734609D01*
X171837032Y-50200000D01*
X171730692Y-49665391D01*
X171427860Y-49212172D01*
X170974641Y-48909340D01*
X170440032Y-48803000D01*
X169899968Y-48803000D01*
X169365359Y-48909340D01*
X168912140Y-49212172D01*
X168900000Y-49230341D01*
X168887860Y-49212172D01*
X168434641Y-48909340D01*
X167900032Y-48803000D01*
X167359968Y-48803000D01*
X166825359Y-48909340D01*
X166372140Y-49212172D01*
X166069308Y-49665391D01*
X165962968Y-50200000D01*
X161405000Y-50200000D01*
X161405000Y-49882968D01*
X161299573Y-49352951D01*
X160999343Y-48903625D01*
X160550017Y-48603395D01*
X160020000Y-48497968D01*
X159489983Y-48603395D01*
X159040657Y-48903625D01*
X158750000Y-49338624D01*
X158459343Y-48903625D01*
X158010017Y-48603395D01*
X157480000Y-48497968D01*
X156949983Y-48603395D01*
X156500657Y-48903625D01*
X156210000Y-49338624D01*
X155919343Y-48903625D01*
X155470017Y-48603395D01*
X154940000Y-48497968D01*
X154409983Y-48603395D01*
X153960657Y-48903625D01*
X153670000Y-49338624D01*
X153379343Y-48903625D01*
X152930017Y-48603395D01*
X152400000Y-48497968D01*
X151869983Y-48603395D01*
X151420657Y-48903625D01*
X151130000Y-49338624D01*
X150839343Y-48903625D01*
X150390017Y-48603395D01*
X149860000Y-48497968D01*
X149329983Y-48603395D01*
X148880657Y-48903625D01*
X148590000Y-49338624D01*
X148299343Y-48903625D01*
X147850017Y-48603395D01*
X147320000Y-48497968D01*
X146789983Y-48603395D01*
X146340657Y-48903625D01*
X146050000Y-49338624D01*
X145759343Y-48903625D01*
X145310017Y-48603395D01*
X144780000Y-48497968D01*
X144249983Y-48603395D01*
X143800657Y-48903625D01*
X143510000Y-49338624D01*
X143219343Y-48903625D01*
X142770017Y-48603395D01*
X142240000Y-48497968D01*
X141709983Y-48603395D01*
X141260657Y-48903625D01*
X140960427Y-49352951D01*
X140855000Y-49882968D01*
X138545000Y-49882968D01*
X138439573Y-49352951D01*
X138139343Y-48903625D01*
X137690017Y-48603395D01*
X137160000Y-48497968D01*
X136629983Y-48603395D01*
X136180657Y-48903625D01*
X135890000Y-49338624D01*
X135599343Y-48903625D01*
X135150017Y-48603395D01*
X134620000Y-48497968D01*
X134089983Y-48603395D01*
X133640657Y-48903625D01*
X133350000Y-49338624D01*
X133059343Y-48903625D01*
X132610017Y-48603395D01*
X132080000Y-48497968D01*
X131549983Y-48603395D01*
X131100657Y-48903625D01*
X130810000Y-49338624D01*
X130519343Y-48903625D01*
X130070017Y-48603395D01*
X129540000Y-48497968D01*
X129009983Y-48603395D01*
X128560657Y-48903625D01*
X128270000Y-49338624D01*
X127979343Y-48903625D01*
X127530017Y-48603395D01*
X127000000Y-48497968D01*
X126469983Y-48603395D01*
X126020657Y-48903625D01*
X125730000Y-49338624D01*
X125439343Y-48903625D01*
X124990017Y-48603395D01*
X124460000Y-48497968D01*
X123929983Y-48603395D01*
X123480657Y-48903625D01*
X123190000Y-49338624D01*
X122899343Y-48903625D01*
X122450017Y-48603395D01*
X121920000Y-48497968D01*
X121389983Y-48603395D01*
X120940657Y-48903625D01*
X120650000Y-49338624D01*
X120359343Y-48903625D01*
X119910017Y-48603395D01*
X119380000Y-48497968D01*
X118849983Y-48603395D01*
X118400657Y-48903625D01*
X118100427Y-49352951D01*
X117995000Y-49882968D01*
X116955000Y-49882968D01*
X116849573Y-49352951D01*
X116549343Y-48903625D01*
X116100017Y-48603395D01*
X115570000Y-48497968D01*
X115039983Y-48603395D01*
X114590657Y-48903625D01*
X114300000Y-49338624D01*
X114009343Y-48903625D01*
X113560017Y-48603395D01*
X113030000Y-48497968D01*
X112499983Y-48603395D01*
X112050657Y-48903625D01*
X111760000Y-49338624D01*
X111469343Y-48903625D01*
X111020017Y-48603395D01*
X110490000Y-48497968D01*
X109959983Y-48603395D01*
X109510657Y-48903625D01*
X109220000Y-49338624D01*
X108929343Y-48903625D01*
X108480017Y-48603395D01*
X107950000Y-48497968D01*
X107419983Y-48603395D01*
X106970657Y-48903625D01*
X106680000Y-49338624D01*
X106389343Y-48903625D01*
X105940017Y-48603395D01*
X105410000Y-48497968D01*
X104879983Y-48603395D01*
X104430657Y-48903625D01*
X104140000Y-49338624D01*
X103849343Y-48903625D01*
X103400017Y-48603395D01*
X102870000Y-48497968D01*
X102339983Y-48603395D01*
X101890657Y-48903625D01*
X101594511Y-49346839D01*
X101579964Y-49293279D01*
X101246894Y-48862264D01*
X100774235Y-48591519D01*
X100671185Y-48572682D01*
X100457000Y-48695344D01*
X100457000Y-50038000D01*
X100477000Y-50038000D01*
X100477000Y-50292000D01*
X100457000Y-50292000D01*
X100457000Y-50312000D01*
X100203000Y-50312000D01*
X100203000Y-50292000D01*
X100183000Y-50292000D01*
X100183000Y-50038000D01*
X100203000Y-50038000D01*
X100203000Y-48695344D01*
X99988815Y-48572682D01*
X99885765Y-48591519D01*
X99413106Y-48862264D01*
X99080036Y-49293279D01*
X99065489Y-49346839D01*
X98769343Y-48903625D01*
X98320017Y-48603395D01*
X97790000Y-48497968D01*
X97259983Y-48603395D01*
X96810657Y-48903625D01*
X96510427Y-49352951D01*
X96508568Y-49362296D01*
X96227828Y-48942140D01*
X95774609Y-48639308D01*
X95240000Y-48532968D01*
X94705391Y-48639308D01*
X94252172Y-48942140D01*
X93970000Y-49364439D01*
X93687828Y-48942140D01*
X93234609Y-48639308D01*
X92700000Y-48532968D01*
X92165391Y-48639308D01*
X91712172Y-48942140D01*
X91409340Y-49395359D01*
X91303000Y-49929968D01*
X90685000Y-49929968D01*
X90685000Y-46101000D01*
X179070000Y-46101000D01*
X179070000Y-114046182D01*
X179070000Y-114046182D01*
G37*
X179070000Y-114046182D02*
X90804529Y-114172818D01*
X90795651Y-111780172D01*
X91439538Y-111780172D01*
X91844709Y-112760761D01*
X92594293Y-113511655D01*
X93574173Y-113918536D01*
X94635172Y-113919462D01*
X95615761Y-113514291D01*
X96366655Y-112764707D01*
X96773536Y-111784827D01*
X96773650Y-111653172D01*
X173354538Y-111653172D01*
X173759709Y-112633761D01*
X174509293Y-113384655D01*
X175489173Y-113791536D01*
X176550172Y-113792462D01*
X177530761Y-113387291D01*
X178281655Y-112637707D01*
X178688536Y-111657827D01*
X178689462Y-110596828D01*
X178284291Y-109616239D01*
X177534707Y-108865345D01*
X176554827Y-108458464D01*
X175493828Y-108457538D01*
X174513239Y-108862709D01*
X173762345Y-109612293D01*
X173355464Y-110592173D01*
X173354538Y-111653172D01*
X96773650Y-111653172D01*
X96774462Y-110723828D01*
X96369291Y-109743239D01*
X95619707Y-108992345D01*
X94639827Y-108585464D01*
X93578828Y-108584538D01*
X92598239Y-108989709D01*
X91847345Y-109739293D01*
X91440464Y-110719173D01*
X91439538Y-111780172D01*
X90795651Y-111780172D01*
X90769658Y-104775000D01*
X96507560Y-104775000D01*
X96507560Y-108585000D01*
X96551838Y-108820317D01*
X96690910Y-109036441D01*
X96903110Y-109181431D01*
X97155000Y-109232440D01*
X100965000Y-109232440D01*
X101200317Y-109188162D01*
X101416441Y-109049090D01*
X101561431Y-108836890D01*
X101612440Y-108585000D01*
X101612440Y-107214193D01*
X101985437Y-108116915D01*
X102699327Y-108832052D01*
X103632546Y-109219559D01*
X104643021Y-109220440D01*
X105576915Y-108834563D01*
X106292052Y-108120673D01*
X106679559Y-107187454D01*
X106679563Y-107183028D01*
X107065437Y-108116915D01*
X107779327Y-108832052D01*
X108712546Y-109219559D01*
X109723021Y-109220440D01*
X110656915Y-108834563D01*
X111005646Y-108486440D01*
X112673165Y-108486440D01*
X112882353Y-108847289D01*
X113819650Y-109224824D01*
X114830077Y-109214933D01*
X115717647Y-108847289D01*
X115926835Y-108486440D01*
X117753165Y-108486440D01*
X117962353Y-108847289D01*
X118899650Y-109224824D01*
X119910077Y-109214933D01*
X120797647Y-108847289D01*
X121006835Y-108486440D01*
X119380000Y-106859605D01*
X117753165Y-108486440D01*
X115926835Y-108486440D01*
X114300000Y-106859605D01*
X112673165Y-108486440D01*
X111005646Y-108486440D01*
X111372052Y-108120673D01*
X111759559Y-107187454D01*
X111759991Y-106691568D01*
X111765067Y-107210077D01*
X112132711Y-108097647D01*
X112493560Y-108306835D01*
X114120395Y-106680000D01*
X114479605Y-106680000D01*
X116106440Y-108306835D01*
X116467289Y-108097647D01*
X116844586Y-107160941D01*
X116845067Y-107210077D01*
X117212711Y-108097647D01*
X117573560Y-108306835D01*
X119200395Y-106680000D01*
X119559605Y-106680000D01*
X121186440Y-108306835D01*
X121547289Y-108097647D01*
X121924824Y-107160350D01*
X121914933Y-106149923D01*
X121547289Y-105262353D01*
X121186440Y-105053165D01*
X119559605Y-106680000D01*
X119200395Y-106680000D01*
X117573560Y-105053165D01*
X117212711Y-105262353D01*
X116835414Y-106199059D01*
X116834933Y-106149923D01*
X116467289Y-105262353D01*
X116106440Y-105053165D01*
X114479605Y-106680000D01*
X114120395Y-106680000D01*
X112493560Y-105053165D01*
X112132711Y-105262353D01*
X111760432Y-106186602D01*
X111760440Y-106176979D01*
X111374563Y-105243085D01*
X111005683Y-104873560D01*
X112673165Y-104873560D01*
X114300000Y-106500395D01*
X115926835Y-104873560D01*
X117753165Y-104873560D01*
X119380000Y-106500395D01*
X121006835Y-104873560D01*
X120797647Y-104512711D01*
X119860350Y-104135176D01*
X118849923Y-104145067D01*
X117962353Y-104512711D01*
X117753165Y-104873560D01*
X115926835Y-104873560D01*
X115717647Y-104512711D01*
X114780350Y-104135176D01*
X113769923Y-104145067D01*
X112882353Y-104512711D01*
X112673165Y-104873560D01*
X111005683Y-104873560D01*
X110660673Y-104527948D01*
X109727454Y-104140441D01*
X108716979Y-104139560D01*
X107783085Y-104525437D01*
X107067948Y-105239327D01*
X106680441Y-106172546D01*
X106680437Y-106176972D01*
X106294563Y-105243085D01*
X105580673Y-104527948D01*
X104647454Y-104140441D01*
X103636979Y-104139560D01*
X102703085Y-104525437D01*
X101987948Y-105239327D01*
X101612440Y-106143649D01*
X101612440Y-104775000D01*
X101568162Y-104539683D01*
X101429090Y-104323559D01*
X101216890Y-104178569D01*
X100965000Y-104127560D01*
X97155000Y-104127560D01*
X96919683Y-104171838D01*
X96703559Y-104310910D01*
X96558569Y-104523110D01*
X96507560Y-104775000D01*
X90769658Y-104775000D01*
X90725247Y-92805968D01*
X98505000Y-92805968D01*
X98505000Y-93670032D01*
X98599009Y-94142646D01*
X98800000Y-94443451D01*
X98800000Y-95620995D01*
X98799999Y-95621000D01*
X98856190Y-95903484D01*
X98867367Y-95959675D01*
X98976682Y-96123277D01*
X99059210Y-96246790D01*
X99450208Y-96637787D01*
X99450210Y-96637790D01*
X99630070Y-96757968D01*
X99737326Y-96829634D01*
X100076000Y-96897001D01*
X100076005Y-96897000D01*
X101066996Y-96897000D01*
X101059983Y-96898395D01*
X100610657Y-97198625D01*
X100310427Y-97647951D01*
X100205000Y-98177968D01*
X100205000Y-98742032D01*
X100310427Y-99272049D01*
X100610657Y-99721375D01*
X101059983Y-100021605D01*
X101590000Y-100127032D01*
X102120017Y-100021605D01*
X102569343Y-99721375D01*
X102860000Y-99286376D01*
X103150657Y-99721375D01*
X103599983Y-100021605D01*
X104130000Y-100127032D01*
X104660017Y-100021605D01*
X105109343Y-99721375D01*
X105409573Y-99272049D01*
X105412840Y-99255626D01*
X105700657Y-99686375D01*
X106149983Y-99986605D01*
X106680000Y-100092032D01*
X107210017Y-99986605D01*
X107659343Y-99686375D01*
X107950000Y-99251376D01*
X108240657Y-99686375D01*
X108689983Y-99986605D01*
X109220000Y-100092032D01*
X109750017Y-99986605D01*
X110199343Y-99686375D01*
X110490000Y-99251376D01*
X110780657Y-99686375D01*
X111229983Y-99986605D01*
X111760000Y-100092032D01*
X112290017Y-99986605D01*
X112739343Y-99686375D01*
X113035489Y-99243161D01*
X113050036Y-99296721D01*
X113383106Y-99727736D01*
X113855765Y-99998481D01*
X113958815Y-100017318D01*
X114173000Y-99894656D01*
X114173000Y-98552000D01*
X114427000Y-98552000D01*
X114427000Y-99894656D01*
X114641185Y-100017318D01*
X114744235Y-99998481D01*
X115216894Y-99727736D01*
X115549964Y-99296721D01*
X115570000Y-99222953D01*
X115590036Y-99296721D01*
X115923106Y-99727736D01*
X116395765Y-99998481D01*
X116498815Y-100017318D01*
X116713000Y-99894656D01*
X116713000Y-98552000D01*
X115608132Y-98552000D01*
X115570000Y-98603924D01*
X115531868Y-98552000D01*
X114427000Y-98552000D01*
X114173000Y-98552000D01*
X114153000Y-98552000D01*
X114153000Y-98298000D01*
X114173000Y-98298000D01*
X114173000Y-96955344D01*
X114427000Y-96955344D01*
X114427000Y-98298000D01*
X115531868Y-98298000D01*
X115570000Y-98246076D01*
X115608132Y-98298000D01*
X116713000Y-98298000D01*
X116713000Y-96955344D01*
X116967000Y-96955344D01*
X116967000Y-98298000D01*
X116987000Y-98298000D01*
X116987000Y-98552000D01*
X116967000Y-98552000D01*
X116967000Y-99894656D01*
X117181185Y-100017318D01*
X117284235Y-99998481D01*
X117756894Y-99727736D01*
X118089964Y-99296721D01*
X118104511Y-99243161D01*
X118400657Y-99686375D01*
X118849983Y-99986605D01*
X119105938Y-100037518D01*
X126660272Y-107591851D01*
X126075345Y-107833538D01*
X125729801Y-108178480D01*
X125387073Y-107835154D01*
X124786547Y-107585794D01*
X124136306Y-107585226D01*
X123535345Y-107833538D01*
X123075154Y-108292927D01*
X122825794Y-108893453D01*
X122825226Y-109543694D01*
X123073538Y-110144655D01*
X123532927Y-110604846D01*
X124133453Y-110854206D01*
X124783694Y-110854774D01*
X125384655Y-110606462D01*
X125730199Y-110261520D01*
X126072927Y-110604846D01*
X126673453Y-110854206D01*
X127323694Y-110854774D01*
X127924655Y-110606462D01*
X128270199Y-110261520D01*
X128612927Y-110604846D01*
X129213453Y-110854206D01*
X129863694Y-110854774D01*
X130464655Y-110606462D01*
X130924846Y-110147073D01*
X130954659Y-110075275D01*
X135261331Y-110075275D01*
X135323169Y-110311042D01*
X135824122Y-110487419D01*
X136354440Y-110458664D01*
X136710831Y-110311042D01*
X136739358Y-110202275D01*
X140722331Y-110202275D01*
X140784169Y-110438042D01*
X141285122Y-110614419D01*
X141815440Y-110585664D01*
X142171831Y-110438042D01*
X142233669Y-110202275D01*
X141478000Y-109446605D01*
X140722331Y-110202275D01*
X136739358Y-110202275D01*
X136772669Y-110075275D01*
X136017000Y-109319605D01*
X135261331Y-110075275D01*
X130954659Y-110075275D01*
X131174206Y-109546547D01*
X131174729Y-108947122D01*
X134669581Y-108947122D01*
X134698336Y-109477440D01*
X134845958Y-109833831D01*
X135081725Y-109895669D01*
X135837395Y-109140000D01*
X136196605Y-109140000D01*
X136952275Y-109895669D01*
X137188042Y-109833831D01*
X137364419Y-109332878D01*
X137350389Y-109074122D01*
X140130581Y-109074122D01*
X140159336Y-109604440D01*
X140306958Y-109960831D01*
X140542725Y-110022669D01*
X141298395Y-109267000D01*
X141657605Y-109267000D01*
X142413275Y-110022669D01*
X142649042Y-109960831D01*
X142825419Y-109459878D01*
X142796664Y-108929560D01*
X142649042Y-108573169D01*
X142413275Y-108511331D01*
X141657605Y-109267000D01*
X141298395Y-109267000D01*
X140542725Y-108511331D01*
X140306958Y-108573169D01*
X140130581Y-109074122D01*
X137350389Y-109074122D01*
X137335664Y-108802560D01*
X137188042Y-108446169D01*
X136952275Y-108384331D01*
X136196605Y-109140000D01*
X135837395Y-109140000D01*
X135081725Y-108384331D01*
X134845958Y-108446169D01*
X134669581Y-108947122D01*
X131174729Y-108947122D01*
X131174774Y-108896306D01*
X130926462Y-108295345D01*
X130836000Y-108204725D01*
X135261331Y-108204725D01*
X136017000Y-108960395D01*
X136645669Y-108331725D01*
X140722331Y-108331725D01*
X141478000Y-109087395D01*
X142233669Y-108331725D01*
X142171831Y-108095958D01*
X141670878Y-107919581D01*
X141140560Y-107948336D01*
X140784169Y-108095958D01*
X140722331Y-108331725D01*
X136645669Y-108331725D01*
X136772669Y-108204725D01*
X136710831Y-107968958D01*
X136209878Y-107792581D01*
X135679560Y-107821336D01*
X135323169Y-107968958D01*
X135261331Y-108204725D01*
X130836000Y-108204725D01*
X130467073Y-107835154D01*
X129866547Y-107585794D01*
X129216306Y-107585226D01*
X129174202Y-107602623D01*
X125011579Y-103440000D01*
X134669560Y-103440000D01*
X134669560Y-104840000D01*
X134713838Y-105075317D01*
X134852910Y-105291441D01*
X135065110Y-105436431D01*
X135317000Y-105487440D01*
X136717000Y-105487440D01*
X136952317Y-105443162D01*
X137168441Y-105304090D01*
X137313431Y-105091890D01*
X137364440Y-104840000D01*
X137364440Y-103567000D01*
X140130560Y-103567000D01*
X140130560Y-104967000D01*
X140174838Y-105202317D01*
X140313910Y-105418441D01*
X140526110Y-105563431D01*
X140778000Y-105614440D01*
X142178000Y-105614440D01*
X142413317Y-105570162D01*
X142629441Y-105431090D01*
X142774431Y-105218890D01*
X142825440Y-104967000D01*
X142825440Y-104775000D01*
X147307560Y-104775000D01*
X147307560Y-108585000D01*
X147351838Y-108820317D01*
X147490910Y-109036441D01*
X147703110Y-109181431D01*
X147955000Y-109232440D01*
X151765000Y-109232440D01*
X152000317Y-109188162D01*
X152216441Y-109049090D01*
X152361431Y-108836890D01*
X152412440Y-108585000D01*
X152412440Y-107214193D01*
X152785437Y-108116915D01*
X153499327Y-108832052D01*
X154432546Y-109219559D01*
X155443021Y-109220440D01*
X156376915Y-108834563D01*
X157092052Y-108120673D01*
X157479559Y-107187454D01*
X157479563Y-107183028D01*
X157865437Y-108116915D01*
X158579327Y-108832052D01*
X159512546Y-109219559D01*
X160523021Y-109220440D01*
X161456915Y-108834563D01*
X162172052Y-108120673D01*
X162559559Y-107187454D01*
X162559563Y-107183028D01*
X162945437Y-108116915D01*
X163659327Y-108832052D01*
X164592546Y-109219559D01*
X165603021Y-109220440D01*
X166536915Y-108834563D01*
X166885646Y-108486440D01*
X168553165Y-108486440D01*
X168762353Y-108847289D01*
X169699650Y-109224824D01*
X170710077Y-109214933D01*
X171597647Y-108847289D01*
X171806835Y-108486440D01*
X170180000Y-106859605D01*
X168553165Y-108486440D01*
X166885646Y-108486440D01*
X167252052Y-108120673D01*
X167639559Y-107187454D01*
X167639991Y-106691568D01*
X167645067Y-107210077D01*
X168012711Y-108097647D01*
X168373560Y-108306835D01*
X170000395Y-106680000D01*
X170359605Y-106680000D01*
X171986440Y-108306835D01*
X172347289Y-108097647D01*
X172724824Y-107160350D01*
X172714933Y-106149923D01*
X172347289Y-105262353D01*
X171986440Y-105053165D01*
X170359605Y-106680000D01*
X170000395Y-106680000D01*
X168373560Y-105053165D01*
X168012711Y-105262353D01*
X167640432Y-106186602D01*
X167640440Y-106176979D01*
X167254563Y-105243085D01*
X166885683Y-104873560D01*
X168553165Y-104873560D01*
X170180000Y-106500395D01*
X171806835Y-104873560D01*
X171597647Y-104512711D01*
X170660350Y-104135176D01*
X169649923Y-104145067D01*
X168762353Y-104512711D01*
X168553165Y-104873560D01*
X166885683Y-104873560D01*
X166540673Y-104527948D01*
X165607454Y-104140441D01*
X164596979Y-104139560D01*
X163663085Y-104525437D01*
X162947948Y-105239327D01*
X162560441Y-106172546D01*
X162560437Y-106176972D01*
X162174563Y-105243085D01*
X161460673Y-104527948D01*
X160527454Y-104140441D01*
X159516979Y-104139560D01*
X158583085Y-104525437D01*
X157867948Y-105239327D01*
X157480441Y-106172546D01*
X157480437Y-106176972D01*
X157094563Y-105243085D01*
X156380673Y-104527948D01*
X155447454Y-104140441D01*
X154436979Y-104139560D01*
X153503085Y-104525437D01*
X152787948Y-105239327D01*
X152412440Y-106143649D01*
X152412440Y-104775000D01*
X152368162Y-104539683D01*
X152229090Y-104323559D01*
X152016890Y-104178569D01*
X151765000Y-104127560D01*
X147955000Y-104127560D01*
X147719683Y-104171838D01*
X147503559Y-104310910D01*
X147358569Y-104523110D01*
X147307560Y-104775000D01*
X142825440Y-104775000D01*
X142825440Y-103567000D01*
X142781162Y-103331683D01*
X142642090Y-103115559D01*
X142429890Y-102970569D01*
X142178000Y-102919560D01*
X140778000Y-102919560D01*
X140542683Y-102963838D01*
X140326559Y-103102910D01*
X140181569Y-103315110D01*
X140130560Y-103567000D01*
X137364440Y-103567000D01*
X137364440Y-103440000D01*
X137320162Y-103204683D01*
X137181090Y-102988559D01*
X136968890Y-102843569D01*
X136717000Y-102792560D01*
X135317000Y-102792560D01*
X135081683Y-102836838D01*
X134865559Y-102975910D01*
X134720569Y-103188110D01*
X134669560Y-103440000D01*
X125011579Y-103440000D01*
X124799728Y-103228149D01*
X125384655Y-102986462D01*
X125730199Y-102641520D01*
X126072927Y-102984846D01*
X126673453Y-103234206D01*
X127323694Y-103234774D01*
X127924655Y-102986462D01*
X128270199Y-102641520D01*
X128612927Y-102984846D01*
X129213453Y-103234206D01*
X129863694Y-103234774D01*
X130464655Y-102986462D01*
X130924846Y-102527073D01*
X131174206Y-101926547D01*
X131174774Y-101276306D01*
X130926462Y-100675345D01*
X130467073Y-100215154D01*
X129966333Y-100007229D01*
X130070017Y-99986605D01*
X130519343Y-99686375D01*
X130810000Y-99251376D01*
X131100657Y-99686375D01*
X131549983Y-99986605D01*
X132080000Y-100092032D01*
X132610017Y-99986605D01*
X133059343Y-99686375D01*
X133350000Y-99251376D01*
X133640657Y-99686375D01*
X134089983Y-99986605D01*
X134620000Y-100092032D01*
X135150017Y-99986605D01*
X135599343Y-99686375D01*
X135890000Y-99251376D01*
X136180657Y-99686375D01*
X136629983Y-99986605D01*
X137160000Y-100092032D01*
X137690017Y-99986605D01*
X138139343Y-99686375D01*
X138430000Y-99251376D01*
X138720657Y-99686375D01*
X139169983Y-99986605D01*
X139700000Y-100092032D01*
X140230017Y-99986605D01*
X140679343Y-99686375D01*
X140970000Y-99251376D01*
X141260657Y-99686375D01*
X141709983Y-99986605D01*
X142240000Y-100092032D01*
X142770017Y-99986605D01*
X143219343Y-99686375D01*
X143519573Y-99237049D01*
X143625000Y-98707032D01*
X143625000Y-98142968D01*
X145935000Y-98142968D01*
X145935000Y-98707032D01*
X146040427Y-99237049D01*
X146340657Y-99686375D01*
X146789983Y-99986605D01*
X147320000Y-100092032D01*
X147850017Y-99986605D01*
X148299343Y-99686375D01*
X148590000Y-99251376D01*
X148880657Y-99686375D01*
X149329983Y-99986605D01*
X149860000Y-100092032D01*
X150390017Y-99986605D01*
X150839343Y-99686375D01*
X151130000Y-99251376D01*
X151420657Y-99686375D01*
X151869983Y-99986605D01*
X152400000Y-100092032D01*
X152930017Y-99986605D01*
X153379343Y-99686375D01*
X153670000Y-99251376D01*
X153960657Y-99686375D01*
X154409983Y-99986605D01*
X154940000Y-100092032D01*
X155470017Y-99986605D01*
X155919343Y-99686375D01*
X156210000Y-99251376D01*
X156500657Y-99686375D01*
X156949983Y-99986605D01*
X157480000Y-100092032D01*
X158010017Y-99986605D01*
X158459343Y-99686375D01*
X158750000Y-99251376D01*
X159040657Y-99686375D01*
X159489983Y-99986605D01*
X160020000Y-100092032D01*
X160550017Y-99986605D01*
X160999343Y-99686375D01*
X161290000Y-99251376D01*
X161580657Y-99686375D01*
X162029983Y-99986605D01*
X162560000Y-100092032D01*
X163090017Y-99986605D01*
X163539343Y-99686375D01*
X163830000Y-99251376D01*
X164120657Y-99686375D01*
X164569983Y-99986605D01*
X165100000Y-100092032D01*
X165630017Y-99986605D01*
X166079343Y-99686375D01*
X166379573Y-99237049D01*
X166485000Y-98707032D01*
X166485000Y-98142968D01*
X166379573Y-97612951D01*
X166079343Y-97163625D01*
X165630017Y-96863395D01*
X165100000Y-96757968D01*
X164569983Y-96863395D01*
X164120657Y-97163625D01*
X163830000Y-97598624D01*
X163539343Y-97163625D01*
X163090017Y-96863395D01*
X162560000Y-96757968D01*
X162029983Y-96863395D01*
X161580657Y-97163625D01*
X161290000Y-97598624D01*
X160999343Y-97163625D01*
X160550017Y-96863395D01*
X160020000Y-96757968D01*
X159489983Y-96863395D01*
X159040657Y-97163625D01*
X158750000Y-97598624D01*
X158459343Y-97163625D01*
X158010017Y-96863395D01*
X157480000Y-96757968D01*
X156949983Y-96863395D01*
X156500657Y-97163625D01*
X156210000Y-97598624D01*
X155919343Y-97163625D01*
X155470017Y-96863395D01*
X154940000Y-96757968D01*
X154409983Y-96863395D01*
X153960657Y-97163625D01*
X153670000Y-97598624D01*
X153379343Y-97163625D01*
X152930017Y-96863395D01*
X152400000Y-96757968D01*
X151869983Y-96863395D01*
X151420657Y-97163625D01*
X151130000Y-97598624D01*
X150839343Y-97163625D01*
X150390017Y-96863395D01*
X149860000Y-96757968D01*
X149329983Y-96863395D01*
X148880657Y-97163625D01*
X148590000Y-97598624D01*
X148299343Y-97163625D01*
X147850017Y-96863395D01*
X147320000Y-96757968D01*
X146789983Y-96863395D01*
X146340657Y-97163625D01*
X146040427Y-97612951D01*
X145935000Y-98142968D01*
X143625000Y-98142968D01*
X143519573Y-97612951D01*
X143219343Y-97163625D01*
X142770017Y-96863395D01*
X142240000Y-96757968D01*
X141709983Y-96863395D01*
X141260657Y-97163625D01*
X140970000Y-97598624D01*
X140679343Y-97163625D01*
X140230017Y-96863395D01*
X139700000Y-96757968D01*
X139169983Y-96863395D01*
X138720657Y-97163625D01*
X138430000Y-97598624D01*
X138139343Y-97163625D01*
X137690017Y-96863395D01*
X137160000Y-96757968D01*
X136629983Y-96863395D01*
X136180657Y-97163625D01*
X135890000Y-97598624D01*
X135599343Y-97163625D01*
X135150017Y-96863395D01*
X134620000Y-96757968D01*
X134089983Y-96863395D01*
X133640657Y-97163625D01*
X133350000Y-97598624D01*
X133059343Y-97163625D01*
X132610017Y-96863395D01*
X132080000Y-96757968D01*
X131549983Y-96863395D01*
X131100657Y-97163625D01*
X130810000Y-97598624D01*
X130519343Y-97163625D01*
X130101660Y-96884538D01*
X130371694Y-96884774D01*
X130972655Y-96636462D01*
X131432846Y-96177073D01*
X131572034Y-95841870D01*
X131709538Y-96174655D01*
X132168927Y-96634846D01*
X132769453Y-96884206D01*
X133419694Y-96884774D01*
X134020655Y-96636462D01*
X134480846Y-96177073D01*
X134620034Y-95841870D01*
X134757538Y-96174655D01*
X135216927Y-96634846D01*
X135817453Y-96884206D01*
X136467694Y-96884774D01*
X137068655Y-96636462D01*
X137528846Y-96177073D01*
X137778206Y-95576547D01*
X137778774Y-94926306D01*
X137530462Y-94325345D01*
X137461898Y-94256661D01*
X154812758Y-94256661D01*
X155024990Y-94770303D01*
X155417630Y-95163629D01*
X155930900Y-95376757D01*
X156486661Y-95377242D01*
X156794610Y-95250000D01*
X160892968Y-95250000D01*
X160986977Y-95722614D01*
X161254691Y-96123277D01*
X161655354Y-96390991D01*
X162127968Y-96485000D01*
X162992032Y-96485000D01*
X163464646Y-96390991D01*
X163865309Y-96123277D01*
X164133023Y-95722614D01*
X164227032Y-95250000D01*
X164133023Y-94777386D01*
X163865309Y-94376723D01*
X163464646Y-94109009D01*
X162992032Y-94015000D01*
X162127968Y-94015000D01*
X161655354Y-94109009D01*
X161254691Y-94376723D01*
X160986977Y-94777386D01*
X160892968Y-95250000D01*
X156794610Y-95250000D01*
X157000303Y-95165010D01*
X157393629Y-94772370D01*
X157606757Y-94259100D01*
X157607242Y-93703339D01*
X157395010Y-93189697D01*
X157002370Y-92796371D01*
X156794366Y-92710000D01*
X160892968Y-92710000D01*
X160986977Y-93182614D01*
X161254691Y-93583277D01*
X161655354Y-93850991D01*
X162127968Y-93945000D01*
X162992032Y-93945000D01*
X163464646Y-93850991D01*
X163711296Y-93686185D01*
X166047682Y-93686185D01*
X166066519Y-93789235D01*
X166337264Y-94261894D01*
X166768279Y-94594964D01*
X167293945Y-94737739D01*
X167513000Y-94576868D01*
X167513000Y-93472000D01*
X167767000Y-93472000D01*
X167767000Y-94576868D01*
X167986055Y-94737739D01*
X168511721Y-94594964D01*
X168910000Y-94287191D01*
X169308279Y-94594964D01*
X169833945Y-94737739D01*
X170053000Y-94576868D01*
X170053000Y-93472000D01*
X170307000Y-93472000D01*
X170307000Y-94576868D01*
X170526055Y-94737739D01*
X171051721Y-94594964D01*
X171482736Y-94261894D01*
X171753481Y-93789235D01*
X171772318Y-93686185D01*
X171649656Y-93472000D01*
X170307000Y-93472000D01*
X170053000Y-93472000D01*
X167767000Y-93472000D01*
X167513000Y-93472000D01*
X166170344Y-93472000D01*
X166047682Y-93686185D01*
X163711296Y-93686185D01*
X163865309Y-93583277D01*
X164133023Y-93182614D01*
X164227032Y-92710000D01*
X164133023Y-92237386D01*
X163865309Y-91836723D01*
X163464646Y-91569009D01*
X162992032Y-91475000D01*
X162127968Y-91475000D01*
X161655354Y-91569009D01*
X161254691Y-91836723D01*
X160986977Y-92237386D01*
X160892968Y-92710000D01*
X156794366Y-92710000D01*
X156489100Y-92583243D01*
X155933339Y-92582758D01*
X155419697Y-92794990D01*
X155026371Y-93187630D01*
X154813243Y-93700900D01*
X154812758Y-94256661D01*
X137461898Y-94256661D01*
X137071073Y-93865154D01*
X136470547Y-93615794D01*
X135820306Y-93615226D01*
X135219345Y-93863538D01*
X134759154Y-94322927D01*
X134619966Y-94658130D01*
X134482462Y-94325345D01*
X134023073Y-93865154D01*
X133422547Y-93615794D01*
X132772306Y-93615226D01*
X132171345Y-93863538D01*
X131711154Y-94322927D01*
X131571966Y-94658130D01*
X131434462Y-94325345D01*
X130975073Y-93865154D01*
X130374547Y-93615794D01*
X129724306Y-93615226D01*
X129123345Y-93863538D01*
X128663154Y-94322927D01*
X128523966Y-94658130D01*
X128386462Y-94325345D01*
X127927073Y-93865154D01*
X127326547Y-93615794D01*
X126676306Y-93615226D01*
X126075345Y-93863538D01*
X125615154Y-94322927D01*
X125539623Y-94504827D01*
X125465462Y-94325345D01*
X125006073Y-93865154D01*
X124405547Y-93615794D01*
X123755306Y-93615226D01*
X123154345Y-93863538D01*
X122694154Y-94322927D01*
X122554966Y-94658130D01*
X122417462Y-94325345D01*
X121958073Y-93865154D01*
X121357547Y-93615794D01*
X120707306Y-93615226D01*
X120106345Y-93863538D01*
X119646154Y-94322927D01*
X119396794Y-94923453D01*
X119396226Y-95573694D01*
X119644538Y-96174655D01*
X120103927Y-96634846D01*
X120704453Y-96884206D01*
X121354694Y-96884774D01*
X121955655Y-96636462D01*
X122415846Y-96177073D01*
X122555034Y-95841870D01*
X122692538Y-96174655D01*
X123151927Y-96634846D01*
X123752453Y-96884206D01*
X123898646Y-96884334D01*
X123480657Y-97163625D01*
X123180427Y-97612951D01*
X123075000Y-98142968D01*
X123075000Y-98707032D01*
X123180427Y-99237049D01*
X123480657Y-99686375D01*
X123929983Y-99986605D01*
X124034331Y-100007361D01*
X123535345Y-100213538D01*
X123075154Y-100672927D01*
X122831439Y-101259859D01*
X120684303Y-99112723D01*
X120765000Y-98707032D01*
X120765000Y-98142968D01*
X120659573Y-97612951D01*
X120359343Y-97163625D01*
X119910017Y-96863395D01*
X119380000Y-96757968D01*
X118849983Y-96863395D01*
X118400657Y-97163625D01*
X118104511Y-97606839D01*
X118089964Y-97553279D01*
X117756894Y-97122264D01*
X117284235Y-96851519D01*
X117181185Y-96832682D01*
X116967000Y-96955344D01*
X116713000Y-96955344D01*
X116498815Y-96832682D01*
X116395765Y-96851519D01*
X115923106Y-97122264D01*
X115590036Y-97553279D01*
X115570000Y-97627047D01*
X115549964Y-97553279D01*
X115216894Y-97122264D01*
X114744235Y-96851519D01*
X114641185Y-96832682D01*
X114427000Y-96955344D01*
X114173000Y-96955344D01*
X113958815Y-96832682D01*
X113855765Y-96851519D01*
X113383106Y-97122264D01*
X113050036Y-97553279D01*
X113035489Y-97606839D01*
X112739343Y-97163625D01*
X112323723Y-96885917D01*
X112550484Y-96840810D01*
X112606675Y-96829633D01*
X112893790Y-96637790D01*
X114204139Y-95327440D01*
X115000000Y-95327440D01*
X115235317Y-95283162D01*
X115451441Y-95144090D01*
X115596431Y-94931890D01*
X115647440Y-94680000D01*
X115647440Y-94476108D01*
X115752633Y-94318675D01*
X115820000Y-93980000D01*
X115752633Y-93641325D01*
X115647440Y-93483892D01*
X115647440Y-93280000D01*
X115603162Y-93044683D01*
X115464090Y-92828559D01*
X115251890Y-92683569D01*
X115000000Y-92632560D01*
X113600000Y-92632560D01*
X113364683Y-92676838D01*
X113148559Y-92815910D01*
X113003569Y-93028110D01*
X112952560Y-93280000D01*
X112952560Y-94075861D01*
X111901420Y-95127000D01*
X100570000Y-95127000D01*
X100570000Y-94572226D01*
X100613277Y-94543309D01*
X100880991Y-94142646D01*
X100975000Y-93670032D01*
X100975000Y-93365000D01*
X108030000Y-93365000D01*
X108030000Y-93765000D01*
X108172610Y-94227947D01*
X108481526Y-94601080D01*
X108909719Y-94827592D01*
X108947391Y-94831462D01*
X109138000Y-94706731D01*
X109138000Y-93365000D01*
X109392000Y-93365000D01*
X109392000Y-94706731D01*
X109582609Y-94831462D01*
X109620281Y-94827592D01*
X110048474Y-94601080D01*
X110357390Y-94227947D01*
X110500000Y-93765000D01*
X110500000Y-93365000D01*
X109392000Y-93365000D01*
X109138000Y-93365000D01*
X108030000Y-93365000D01*
X100975000Y-93365000D01*
X100975000Y-92805968D01*
X100956110Y-92711000D01*
X108030000Y-92711000D01*
X108030000Y-93111000D01*
X109138000Y-93111000D01*
X109138000Y-91769269D01*
X109392000Y-91769269D01*
X109392000Y-93111000D01*
X110500000Y-93111000D01*
X110500000Y-92711000D01*
X110357390Y-92248053D01*
X110048474Y-91874920D01*
X109749305Y-91716661D01*
X149732758Y-91716661D01*
X149944990Y-92230303D01*
X150337630Y-92623629D01*
X150850900Y-92836757D01*
X151406661Y-92837242D01*
X151920303Y-92625010D01*
X152313629Y-92232370D01*
X152526757Y-91719100D01*
X152527242Y-91163339D01*
X152315010Y-90649697D01*
X151922370Y-90256371D01*
X151409100Y-90043243D01*
X150853339Y-90042758D01*
X150339697Y-90254990D01*
X149946371Y-90647630D01*
X149733243Y-91160900D01*
X149732758Y-91716661D01*
X109749305Y-91716661D01*
X109620281Y-91648408D01*
X109582609Y-91644538D01*
X109392000Y-91769269D01*
X109138000Y-91769269D01*
X108947391Y-91644538D01*
X108909719Y-91648408D01*
X108481526Y-91874920D01*
X108172610Y-92248053D01*
X108030000Y-92711000D01*
X100956110Y-92711000D01*
X100880991Y-92333354D01*
X100613277Y-91932691D01*
X100212614Y-91664977D01*
X99740000Y-91570968D01*
X99267386Y-91664977D01*
X98866723Y-91932691D01*
X98599009Y-92333354D01*
X98505000Y-92805968D01*
X90725247Y-92805968D01*
X90714521Y-89915275D01*
X113544331Y-89915275D01*
X113606169Y-90151042D01*
X114107122Y-90327419D01*
X114637440Y-90298664D01*
X114993831Y-90151042D01*
X115055669Y-89915275D01*
X115020608Y-89880213D01*
X155409392Y-89880213D01*
X155478857Y-90122397D01*
X156002302Y-90309144D01*
X156557368Y-90281362D01*
X156826219Y-90170000D01*
X160892968Y-90170000D01*
X160986977Y-90642614D01*
X161254691Y-91043277D01*
X161655354Y-91310991D01*
X162127968Y-91405000D01*
X162992032Y-91405000D01*
X163464646Y-91310991D01*
X163865309Y-91043277D01*
X164133023Y-90642614D01*
X164227032Y-90170000D01*
X164133023Y-89697386D01*
X163865309Y-89296723D01*
X163464646Y-89029009D01*
X162992032Y-88935000D01*
X162127968Y-88935000D01*
X161655354Y-89029009D01*
X161254691Y-89296723D01*
X160986977Y-89697386D01*
X160892968Y-90170000D01*
X156826219Y-90170000D01*
X156941143Y-90122397D01*
X157010608Y-89880213D01*
X156210000Y-89079605D01*
X155409392Y-89880213D01*
X115020608Y-89880213D01*
X114300000Y-89159605D01*
X113544331Y-89915275D01*
X90714521Y-89915275D01*
X90689677Y-83220000D01*
X94842968Y-83220000D01*
X94949308Y-83754609D01*
X95252140Y-84207828D01*
X95674439Y-84490000D01*
X95252140Y-84772172D01*
X94949308Y-85225391D01*
X94842968Y-85760000D01*
X94949308Y-86294609D01*
X95252140Y-86747828D01*
X95674439Y-87030000D01*
X95252140Y-87312172D01*
X94949308Y-87765391D01*
X94842968Y-88300000D01*
X94949308Y-88834609D01*
X95252140Y-89287828D01*
X95705359Y-89590660D01*
X96239968Y-89697000D01*
X96780032Y-89697000D01*
X97314641Y-89590660D01*
X97767860Y-89287828D01*
X97780000Y-89269659D01*
X97792140Y-89287828D01*
X98245359Y-89590660D01*
X98779968Y-89697000D01*
X99320032Y-89697000D01*
X99854641Y-89590660D01*
X100307860Y-89287828D01*
X100610692Y-88834609D01*
X100620137Y-88787122D01*
X112952581Y-88787122D01*
X112981336Y-89317440D01*
X113128958Y-89673831D01*
X113364725Y-89735669D01*
X114120395Y-88980000D01*
X114479605Y-88980000D01*
X115235275Y-89735669D01*
X115471042Y-89673831D01*
X115647419Y-89172878D01*
X115626234Y-88782163D01*
X120058443Y-88782163D01*
X120157042Y-89048965D01*
X120766582Y-89275401D01*
X121416377Y-89251341D01*
X121904958Y-89048965D01*
X122003557Y-88782163D01*
X123106443Y-88782163D01*
X123205042Y-89048965D01*
X123814582Y-89275401D01*
X124464377Y-89251341D01*
X124952958Y-89048965D01*
X125051557Y-88782163D01*
X126027443Y-88782163D01*
X126126042Y-89048965D01*
X126735582Y-89275401D01*
X127385377Y-89251341D01*
X127873958Y-89048965D01*
X127972557Y-88782163D01*
X129075443Y-88782163D01*
X129174042Y-89048965D01*
X129783582Y-89275401D01*
X130433377Y-89251341D01*
X130921958Y-89048965D01*
X131020557Y-88782163D01*
X132123443Y-88782163D01*
X132222042Y-89048965D01*
X132831582Y-89275401D01*
X133481377Y-89251341D01*
X133969958Y-89048965D01*
X134068557Y-88782163D01*
X135171443Y-88782163D01*
X135270042Y-89048965D01*
X135879582Y-89275401D01*
X136529377Y-89251341D01*
X137017958Y-89048965D01*
X137116557Y-88782163D01*
X137026697Y-88692302D01*
X154800856Y-88692302D01*
X154828638Y-89247368D01*
X154987603Y-89631143D01*
X155229787Y-89700608D01*
X156030395Y-88900000D01*
X156389605Y-88900000D01*
X157190213Y-89700608D01*
X157432397Y-89631143D01*
X157619144Y-89107698D01*
X157591362Y-88552632D01*
X157432397Y-88168857D01*
X157190213Y-88099392D01*
X156389605Y-88900000D01*
X156030395Y-88900000D01*
X155229787Y-88099392D01*
X154987603Y-88168857D01*
X154800856Y-88692302D01*
X137026697Y-88692302D01*
X136144000Y-87809605D01*
X135171443Y-88782163D01*
X134068557Y-88782163D01*
X133096000Y-87809605D01*
X132123443Y-88782163D01*
X131020557Y-88782163D01*
X130048000Y-87809605D01*
X129075443Y-88782163D01*
X127972557Y-88782163D01*
X127000000Y-87809605D01*
X126027443Y-88782163D01*
X125051557Y-88782163D01*
X124079000Y-87809605D01*
X123106443Y-88782163D01*
X122003557Y-88782163D01*
X121031000Y-87809605D01*
X120058443Y-88782163D01*
X115626234Y-88782163D01*
X115618664Y-88642560D01*
X115471042Y-88286169D01*
X115235275Y-88224331D01*
X114479605Y-88980000D01*
X114120395Y-88980000D01*
X113364725Y-88224331D01*
X113128958Y-88286169D01*
X112952581Y-88787122D01*
X100620137Y-88787122D01*
X100717032Y-88300000D01*
X100666255Y-88044725D01*
X113544331Y-88044725D01*
X114300000Y-88800395D01*
X115055669Y-88044725D01*
X114993831Y-87808958D01*
X114492878Y-87632581D01*
X113962560Y-87661336D01*
X113606169Y-87808958D01*
X113544331Y-88044725D01*
X100666255Y-88044725D01*
X100610692Y-87765391D01*
X100343548Y-87365582D01*
X119385599Y-87365582D01*
X119409659Y-88015377D01*
X119612035Y-88503958D01*
X119878837Y-88602557D01*
X120851395Y-87630000D01*
X121210605Y-87630000D01*
X122183163Y-88602557D01*
X122449965Y-88503958D01*
X122549288Y-88236591D01*
X122660035Y-88503958D01*
X122926837Y-88602557D01*
X123899395Y-87630000D01*
X124258605Y-87630000D01*
X125231163Y-88602557D01*
X125497965Y-88503958D01*
X125537241Y-88398230D01*
X125581035Y-88503958D01*
X125847837Y-88602557D01*
X126820395Y-87630000D01*
X127179605Y-87630000D01*
X128152163Y-88602557D01*
X128418965Y-88503958D01*
X128518288Y-88236591D01*
X128629035Y-88503958D01*
X128895837Y-88602557D01*
X129868395Y-87630000D01*
X130227605Y-87630000D01*
X131200163Y-88602557D01*
X131466965Y-88503958D01*
X131566288Y-88236591D01*
X131677035Y-88503958D01*
X131943837Y-88602557D01*
X132916395Y-87630000D01*
X133275605Y-87630000D01*
X134248163Y-88602557D01*
X134514965Y-88503958D01*
X134614288Y-88236591D01*
X134725035Y-88503958D01*
X134991837Y-88602557D01*
X135964395Y-87630000D01*
X136323605Y-87630000D01*
X137296163Y-88602557D01*
X137562965Y-88503958D01*
X137779976Y-87919787D01*
X155409392Y-87919787D01*
X156210000Y-88720395D01*
X157010608Y-87919787D01*
X156941143Y-87677603D01*
X156807714Y-87630000D01*
X160892968Y-87630000D01*
X160986977Y-88102614D01*
X161254691Y-88503277D01*
X161655354Y-88770991D01*
X162127968Y-88865000D01*
X162992032Y-88865000D01*
X163464646Y-88770991D01*
X163865309Y-88503277D01*
X164133023Y-88102614D01*
X164227032Y-87630000D01*
X164133023Y-87157386D01*
X163865309Y-86756723D01*
X163464646Y-86489009D01*
X162992032Y-86395000D01*
X162127968Y-86395000D01*
X161655354Y-86489009D01*
X161254691Y-86756723D01*
X160986977Y-87157386D01*
X160892968Y-87630000D01*
X156807714Y-87630000D01*
X156417698Y-87490856D01*
X155862632Y-87518638D01*
X155478857Y-87677603D01*
X155409392Y-87919787D01*
X137779976Y-87919787D01*
X137789401Y-87894418D01*
X137765341Y-87244623D01*
X137562965Y-86756042D01*
X137296163Y-86657443D01*
X136323605Y-87630000D01*
X135964395Y-87630000D01*
X134991837Y-86657443D01*
X134725035Y-86756042D01*
X134625712Y-87023409D01*
X134514965Y-86756042D01*
X134248163Y-86657443D01*
X133275605Y-87630000D01*
X132916395Y-87630000D01*
X131943837Y-86657443D01*
X131677035Y-86756042D01*
X131577712Y-87023409D01*
X131466965Y-86756042D01*
X131200163Y-86657443D01*
X130227605Y-87630000D01*
X129868395Y-87630000D01*
X128895837Y-86657443D01*
X128629035Y-86756042D01*
X128529712Y-87023409D01*
X128418965Y-86756042D01*
X128152163Y-86657443D01*
X127179605Y-87630000D01*
X126820395Y-87630000D01*
X125847837Y-86657443D01*
X125581035Y-86756042D01*
X125541759Y-86861770D01*
X125497965Y-86756042D01*
X125231163Y-86657443D01*
X124258605Y-87630000D01*
X123899395Y-87630000D01*
X122926837Y-86657443D01*
X122660035Y-86756042D01*
X122560712Y-87023409D01*
X122449965Y-86756042D01*
X122183163Y-86657443D01*
X121210605Y-87630000D01*
X120851395Y-87630000D01*
X119878837Y-86657443D01*
X119612035Y-86756042D01*
X119385599Y-87365582D01*
X100343548Y-87365582D01*
X100307860Y-87312172D01*
X99885561Y-87030000D01*
X100307860Y-86747828D01*
X100488262Y-86477837D01*
X120058443Y-86477837D01*
X121031000Y-87450395D01*
X122003557Y-86477837D01*
X123106443Y-86477837D01*
X124079000Y-87450395D01*
X125051557Y-86477837D01*
X126027443Y-86477837D01*
X127000000Y-87450395D01*
X127972557Y-86477837D01*
X129075443Y-86477837D01*
X130048000Y-87450395D01*
X131020557Y-86477837D01*
X132123443Y-86477837D01*
X133096000Y-87450395D01*
X134068557Y-86477837D01*
X135171443Y-86477837D01*
X136144000Y-87450395D01*
X137116557Y-86477837D01*
X137017958Y-86211035D01*
X136408418Y-85984599D01*
X135758623Y-86008659D01*
X135270042Y-86211035D01*
X135171443Y-86477837D01*
X134068557Y-86477837D01*
X133969958Y-86211035D01*
X133360418Y-85984599D01*
X132710623Y-86008659D01*
X132222042Y-86211035D01*
X132123443Y-86477837D01*
X131020557Y-86477837D01*
X130921958Y-86211035D01*
X130312418Y-85984599D01*
X129662623Y-86008659D01*
X129174042Y-86211035D01*
X129075443Y-86477837D01*
X127972557Y-86477837D01*
X127873958Y-86211035D01*
X127264418Y-85984599D01*
X126614623Y-86008659D01*
X126126042Y-86211035D01*
X126027443Y-86477837D01*
X125051557Y-86477837D01*
X124952958Y-86211035D01*
X124343418Y-85984599D01*
X123693623Y-86008659D01*
X123205042Y-86211035D01*
X123106443Y-86477837D01*
X122003557Y-86477837D01*
X121904958Y-86211035D01*
X121295418Y-85984599D01*
X120645623Y-86008659D01*
X120157042Y-86211035D01*
X120058443Y-86477837D01*
X100488262Y-86477837D01*
X100610692Y-86294609D01*
X100717032Y-85760000D01*
X100610692Y-85225391D01*
X100307860Y-84772172D01*
X99885561Y-84490000D01*
X100307860Y-84207828D01*
X100610692Y-83754609D01*
X100717032Y-83220000D01*
X100622886Y-82746694D01*
X110887226Y-82746694D01*
X111135538Y-83347655D01*
X111594927Y-83807846D01*
X112195453Y-84057206D01*
X112845694Y-84057774D01*
X113446655Y-83809462D01*
X113906846Y-83350073D01*
X114109691Y-82861568D01*
X114310538Y-83347655D01*
X114769927Y-83807846D01*
X115370453Y-84057206D01*
X116020694Y-84057774D01*
X116621655Y-83809462D01*
X117081846Y-83350073D01*
X117331206Y-82749547D01*
X117331208Y-82746694D01*
X117364226Y-82746694D01*
X117612538Y-83347655D01*
X118071927Y-83807846D01*
X118672453Y-84057206D01*
X119322694Y-84057774D01*
X119923655Y-83809462D01*
X120383846Y-83350073D01*
X120586691Y-82861568D01*
X120787538Y-83347655D01*
X121246927Y-83807846D01*
X121847453Y-84057206D01*
X122497694Y-84057774D01*
X123098655Y-83809462D01*
X123539869Y-83369016D01*
X128947590Y-83369016D01*
X129003271Y-83599611D01*
X129486078Y-83767622D01*
X129996428Y-83738083D01*
X130330729Y-83599611D01*
X130386410Y-83369016D01*
X129667000Y-82649605D01*
X128947590Y-83369016D01*
X123539869Y-83369016D01*
X123558846Y-83350073D01*
X123808206Y-82749547D01*
X123808608Y-82289078D01*
X128369378Y-82289078D01*
X128398917Y-82799428D01*
X128537389Y-83133729D01*
X128767984Y-83189410D01*
X129487395Y-82470000D01*
X129846605Y-82470000D01*
X130566016Y-83189410D01*
X130796611Y-83133729D01*
X130964622Y-82650922D01*
X130935083Y-82140572D01*
X130796611Y-81806271D01*
X130566016Y-81750590D01*
X129846605Y-82470000D01*
X129487395Y-82470000D01*
X128767984Y-81750590D01*
X128537389Y-81806271D01*
X128369378Y-82289078D01*
X123808608Y-82289078D01*
X123808774Y-82099306D01*
X123590476Y-81570984D01*
X128947590Y-81570984D01*
X129667000Y-82290395D01*
X130386410Y-81570984D01*
X130330729Y-81340389D01*
X129847922Y-81172378D01*
X129337572Y-81201917D01*
X129003271Y-81340389D01*
X128947590Y-81570984D01*
X123590476Y-81570984D01*
X123560462Y-81498345D01*
X123101073Y-81038154D01*
X122500547Y-80788794D01*
X121850306Y-80788226D01*
X121249345Y-81036538D01*
X120789154Y-81495927D01*
X120586309Y-81984432D01*
X120385462Y-81498345D01*
X119926073Y-81038154D01*
X119325547Y-80788794D01*
X118675306Y-80788226D01*
X118074345Y-81036538D01*
X117614154Y-81495927D01*
X117364794Y-82096453D01*
X117364226Y-82746694D01*
X117331208Y-82746694D01*
X117331774Y-82099306D01*
X117083462Y-81498345D01*
X116624073Y-81038154D01*
X116023547Y-80788794D01*
X115373306Y-80788226D01*
X114772345Y-81036538D01*
X114312154Y-81495927D01*
X114109309Y-81984432D01*
X113908462Y-81498345D01*
X113449073Y-81038154D01*
X112848547Y-80788794D01*
X112198306Y-80788226D01*
X111597345Y-81036538D01*
X111137154Y-81495927D01*
X110887794Y-82096453D01*
X110887226Y-82746694D01*
X100622886Y-82746694D01*
X100610692Y-82685391D01*
X100307860Y-82232172D01*
X99854641Y-81929340D01*
X99320032Y-81823000D01*
X98779968Y-81823000D01*
X98245359Y-81929340D01*
X97792140Y-82232172D01*
X97780000Y-82250341D01*
X97767860Y-82232172D01*
X97314641Y-81929340D01*
X96780032Y-81823000D01*
X96239968Y-81823000D01*
X95705359Y-81929340D01*
X95252140Y-82232172D01*
X94949308Y-82685391D01*
X94842968Y-83220000D01*
X90689677Y-83220000D01*
X90685000Y-81959804D01*
X90685000Y-77285968D01*
X98460000Y-77285968D01*
X98460000Y-78150032D01*
X98554009Y-78622646D01*
X98821723Y-79023309D01*
X99222386Y-79291023D01*
X99695000Y-79385032D01*
X100167614Y-79291023D01*
X100568277Y-79023309D01*
X100835991Y-78622646D01*
X100839899Y-78603000D01*
X101097995Y-78603000D01*
X101098000Y-78603001D01*
X101380484Y-78546810D01*
X101436675Y-78535633D01*
X101723790Y-78343790D01*
X102222579Y-77845000D01*
X107960000Y-77845000D01*
X107960000Y-78245000D01*
X108102610Y-78707947D01*
X108411526Y-79081080D01*
X108839719Y-79307592D01*
X108877391Y-79311462D01*
X109068000Y-79186731D01*
X109068000Y-77845000D01*
X109322000Y-77845000D01*
X109322000Y-79186731D01*
X109512609Y-79311462D01*
X109550281Y-79307592D01*
X109978474Y-79081080D01*
X110287390Y-78707947D01*
X110430000Y-78245000D01*
X110430000Y-77845000D01*
X109322000Y-77845000D01*
X109068000Y-77845000D01*
X107960000Y-77845000D01*
X102222579Y-77845000D01*
X103617579Y-76450000D01*
X108332809Y-76450000D01*
X108102610Y-76728053D01*
X107960000Y-77191000D01*
X107960000Y-77591000D01*
X109068000Y-77591000D01*
X109068000Y-77571000D01*
X109322000Y-77571000D01*
X109322000Y-77591000D01*
X110430000Y-77591000D01*
X110430000Y-77191000D01*
X110293140Y-76746720D01*
X111515208Y-77968787D01*
X111515210Y-77968790D01*
X111802325Y-78160633D01*
X111858516Y-78171810D01*
X112141000Y-78228001D01*
X112141005Y-78228000D01*
X128389882Y-78228000D01*
X128413838Y-78355317D01*
X128552910Y-78571441D01*
X128765110Y-78716431D01*
X129017000Y-78767440D01*
X130317000Y-78767440D01*
X130552317Y-78723162D01*
X130768441Y-78584090D01*
X130913431Y-78371890D01*
X130916851Y-78355000D01*
X132602420Y-78355000D01*
X141233208Y-86985787D01*
X141233210Y-86985790D01*
X141425054Y-87113975D01*
X141520326Y-87177634D01*
X141859000Y-87245001D01*
X141859005Y-87245000D01*
X150039522Y-87245000D01*
X150337630Y-87543629D01*
X150850900Y-87756757D01*
X151406661Y-87757242D01*
X151920303Y-87545010D01*
X152313629Y-87152370D01*
X152526757Y-86639100D01*
X152527242Y-86083339D01*
X152315010Y-85569697D01*
X152153205Y-85407609D01*
X160966538Y-85407609D01*
X160970408Y-85445281D01*
X161196920Y-85873474D01*
X161570053Y-86182390D01*
X162033000Y-86325000D01*
X162433000Y-86325000D01*
X162433000Y-85217000D01*
X162687000Y-85217000D01*
X162687000Y-86325000D01*
X163087000Y-86325000D01*
X163549947Y-86182390D01*
X163923080Y-85873474D01*
X164149592Y-85445281D01*
X164153462Y-85407609D01*
X164028731Y-85217000D01*
X162687000Y-85217000D01*
X162433000Y-85217000D01*
X161091269Y-85217000D01*
X160966538Y-85407609D01*
X152153205Y-85407609D01*
X151922370Y-85176371D01*
X151409100Y-84963243D01*
X150853339Y-84962758D01*
X150339697Y-85174990D01*
X150039163Y-85475000D01*
X142225579Y-85475000D01*
X140847241Y-84096661D01*
X154812758Y-84096661D01*
X155024990Y-84610303D01*
X155417630Y-85003629D01*
X155930900Y-85216757D01*
X156486661Y-85217242D01*
X157000303Y-85005010D01*
X157233328Y-84772391D01*
X160966538Y-84772391D01*
X161091269Y-84963000D01*
X162433000Y-84963000D01*
X162433000Y-83855000D01*
X162687000Y-83855000D01*
X162687000Y-84963000D01*
X164028731Y-84963000D01*
X164153462Y-84772391D01*
X164149592Y-84734719D01*
X163923080Y-84306526D01*
X163549947Y-83997610D01*
X163087000Y-83855000D01*
X162687000Y-83855000D01*
X162433000Y-83855000D01*
X162033000Y-83855000D01*
X161570053Y-83997610D01*
X161196920Y-84306526D01*
X160970408Y-84734719D01*
X160966538Y-84772391D01*
X157233328Y-84772391D01*
X157393629Y-84612370D01*
X157606757Y-84099100D01*
X157607242Y-83543339D01*
X157395010Y-83029697D01*
X157002370Y-82636371D01*
X156489100Y-82423243D01*
X155933339Y-82422758D01*
X155419697Y-82634990D01*
X155026371Y-83027630D01*
X154813243Y-83540900D01*
X154812758Y-84096661D01*
X140847241Y-84096661D01*
X134624241Y-77873661D01*
X154685758Y-77873661D01*
X154897990Y-78387303D01*
X155290630Y-78780629D01*
X155803900Y-78993757D01*
X156359661Y-78994242D01*
X156873303Y-78782010D01*
X157266629Y-78389370D01*
X157479757Y-77876100D01*
X157480242Y-77320339D01*
X157268010Y-76806697D01*
X156875370Y-76413371D01*
X156362100Y-76200243D01*
X155806339Y-76199758D01*
X155292697Y-76411990D01*
X154899371Y-76804630D01*
X154686243Y-77317900D01*
X154685758Y-77873661D01*
X134624241Y-77873661D01*
X133594790Y-76844210D01*
X133548610Y-76813354D01*
X133307675Y-76652367D01*
X133251484Y-76641190D01*
X132969000Y-76584999D01*
X132968995Y-76585000D01*
X130920222Y-76585000D01*
X130920162Y-76584683D01*
X130781090Y-76368559D01*
X130568890Y-76223569D01*
X130317000Y-76172560D01*
X129017000Y-76172560D01*
X128781683Y-76216838D01*
X128565559Y-76355910D01*
X128495804Y-76458000D01*
X112507579Y-76458000D01*
X112487040Y-76437461D01*
X112845694Y-76437774D01*
X113446655Y-76189462D01*
X113906846Y-75730073D01*
X113976221Y-75563000D01*
X114242504Y-75563000D01*
X114310538Y-75727655D01*
X114769927Y-76187846D01*
X115370453Y-76437206D01*
X116020694Y-76437774D01*
X116621655Y-76189462D01*
X117081846Y-75730073D01*
X117331206Y-75129547D01*
X117331208Y-75126694D01*
X117364226Y-75126694D01*
X117612538Y-75727655D01*
X118071927Y-76187846D01*
X118672453Y-76437206D01*
X119322694Y-76437774D01*
X119923655Y-76189462D01*
X120383846Y-75730073D01*
X120586691Y-75241568D01*
X120787538Y-75727655D01*
X121246927Y-76187846D01*
X121847453Y-76437206D01*
X122497694Y-76437774D01*
X123098655Y-76189462D01*
X123558846Y-75730073D01*
X123808206Y-75129547D01*
X123808774Y-74479306D01*
X123560462Y-73878345D01*
X123101073Y-73418154D01*
X122500547Y-73168794D01*
X121850306Y-73168226D01*
X121249345Y-73416538D01*
X120789154Y-73875927D01*
X120586309Y-74364432D01*
X120385462Y-73878345D01*
X119926073Y-73418154D01*
X119325547Y-73168794D01*
X118675306Y-73168226D01*
X118074345Y-73416538D01*
X117614154Y-73875927D01*
X117364794Y-74476453D01*
X117364226Y-75126694D01*
X117331208Y-75126694D01*
X117331774Y-74479306D01*
X117083462Y-73878345D01*
X116624073Y-73418154D01*
X116457000Y-73348779D01*
X116457000Y-72644000D01*
X116428612Y-72501283D01*
X116840000Y-72583113D01*
X117389151Y-72473880D01*
X117854698Y-72162811D01*
X118124986Y-71758297D01*
X118227611Y-71975134D01*
X118642577Y-72351041D01*
X119030961Y-72511904D01*
X119253000Y-72389915D01*
X119253000Y-71247000D01*
X119233000Y-71247000D01*
X119233000Y-70993000D01*
X119253000Y-70993000D01*
X119253000Y-69850085D01*
X119507000Y-69850085D01*
X119507000Y-70993000D01*
X119527000Y-70993000D01*
X119527000Y-71247000D01*
X119507000Y-71247000D01*
X119507000Y-72389915D01*
X119729039Y-72511904D01*
X120117423Y-72351041D01*
X120532389Y-71975134D01*
X120635014Y-71758297D01*
X120905302Y-72162811D01*
X121370849Y-72473880D01*
X121920000Y-72583113D01*
X122469151Y-72473880D01*
X122934698Y-72162811D01*
X123245767Y-71697264D01*
X123355000Y-71148113D01*
X123355000Y-71091887D01*
X123245767Y-70542736D01*
X123230576Y-70520000D01*
X135482968Y-70520000D01*
X135589308Y-71054609D01*
X135892140Y-71507828D01*
X135929207Y-71532595D01*
X136012599Y-71657401D01*
X136259161Y-71822148D01*
X136264683Y-71823246D01*
X135892140Y-72072172D01*
X135589308Y-72525391D01*
X135482968Y-73060000D01*
X135589308Y-73594609D01*
X135892140Y-74047828D01*
X136314439Y-74330000D01*
X135892140Y-74612172D01*
X135589308Y-75065391D01*
X135482968Y-75600000D01*
X135589308Y-76134609D01*
X135892140Y-76587828D01*
X136345359Y-76890660D01*
X136879968Y-76997000D01*
X137420032Y-76997000D01*
X137954641Y-76890660D01*
X138407860Y-76587828D01*
X138420000Y-76569659D01*
X138432140Y-76587828D01*
X138885359Y-76890660D01*
X139419968Y-76997000D01*
X139960032Y-76997000D01*
X140494641Y-76890660D01*
X140947860Y-76587828D01*
X141250692Y-76134609D01*
X141357032Y-75600000D01*
X141304055Y-75333661D01*
X149605758Y-75333661D01*
X149817990Y-75847303D01*
X150210630Y-76240629D01*
X150723900Y-76453757D01*
X151279661Y-76454242D01*
X151793303Y-76242010D01*
X152186629Y-75849370D01*
X152399757Y-75336100D01*
X152400242Y-74780339D01*
X152188010Y-74266697D01*
X151795370Y-73873371D01*
X151282100Y-73660243D01*
X150726339Y-73659758D01*
X150212697Y-73871990D01*
X149819371Y-74264630D01*
X149606243Y-74777900D01*
X149605758Y-75333661D01*
X141304055Y-75333661D01*
X141250692Y-75065391D01*
X140947860Y-74612172D01*
X140525561Y-74330000D01*
X140947860Y-74047828D01*
X141250692Y-73594609D01*
X141357032Y-73060000D01*
X141304055Y-72793661D01*
X154685758Y-72793661D01*
X154897990Y-73307303D01*
X155290630Y-73700629D01*
X155803900Y-73913757D01*
X156359661Y-73914242D01*
X156873303Y-73702010D01*
X157266629Y-73309370D01*
X157479757Y-72796100D01*
X157480242Y-72240339D01*
X157466857Y-72207945D01*
X159541401Y-70133401D01*
X159706148Y-69886839D01*
X159764000Y-69596000D01*
X159764000Y-68897609D01*
X160966538Y-68897609D01*
X160970408Y-68935281D01*
X161196920Y-69363474D01*
X161570053Y-69672390D01*
X162033000Y-69815000D01*
X162433000Y-69815000D01*
X162433000Y-68707000D01*
X161091269Y-68707000D01*
X160966538Y-68897609D01*
X159764000Y-68897609D01*
X159764000Y-68262391D01*
X160966538Y-68262391D01*
X161091269Y-68453000D01*
X162433000Y-68453000D01*
X162433000Y-67345000D01*
X162033000Y-67345000D01*
X161570053Y-67487610D01*
X161196920Y-67796526D01*
X160970408Y-68224719D01*
X160966538Y-68262391D01*
X159764000Y-68262391D01*
X159764000Y-66735802D01*
X161096844Y-65402958D01*
X160986977Y-65567386D01*
X160892968Y-66040000D01*
X160986977Y-66512614D01*
X161254691Y-66913277D01*
X161655354Y-67180991D01*
X162127968Y-67275000D01*
X162992032Y-67275000D01*
X163041567Y-67265147D01*
X163136744Y-67360324D01*
X163087000Y-67345000D01*
X162687000Y-67345000D01*
X162687000Y-68453000D01*
X162707000Y-68453000D01*
X162707000Y-68707000D01*
X162687000Y-68707000D01*
X162687000Y-69815000D01*
X163087000Y-69815000D01*
X163549947Y-69672390D01*
X163707000Y-69542366D01*
X163707000Y-70140944D01*
X163464646Y-69979009D01*
X162992032Y-69885000D01*
X162127968Y-69885000D01*
X161655354Y-69979009D01*
X161254691Y-70246723D01*
X160986977Y-70647386D01*
X160892968Y-71120000D01*
X160986977Y-71592614D01*
X161254691Y-71993277D01*
X161655354Y-72260991D01*
X162127968Y-72355000D01*
X162992032Y-72355000D01*
X163464646Y-72260991D01*
X163707000Y-72099056D01*
X163707000Y-72680944D01*
X163464646Y-72519009D01*
X162992032Y-72425000D01*
X162127968Y-72425000D01*
X161655354Y-72519009D01*
X161254691Y-72786723D01*
X160986977Y-73187386D01*
X160892968Y-73660000D01*
X160986977Y-74132614D01*
X161254691Y-74533277D01*
X161655354Y-74800991D01*
X162127968Y-74895000D01*
X162992032Y-74895000D01*
X163464646Y-74800991D01*
X163707000Y-74639056D01*
X163707000Y-75220944D01*
X163464646Y-75059009D01*
X162992032Y-74965000D01*
X162127968Y-74965000D01*
X161655354Y-75059009D01*
X161254691Y-75326723D01*
X160986977Y-75727386D01*
X160892968Y-76200000D01*
X160986977Y-76672614D01*
X161254691Y-77073277D01*
X161655354Y-77340991D01*
X162127968Y-77435000D01*
X162992032Y-77435000D01*
X163464646Y-77340991D01*
X163707000Y-77179056D01*
X163707000Y-77760944D01*
X163464646Y-77599009D01*
X162992032Y-77505000D01*
X162127968Y-77505000D01*
X161655354Y-77599009D01*
X161254691Y-77866723D01*
X160986977Y-78267386D01*
X160892968Y-78740000D01*
X160986977Y-79212614D01*
X161254691Y-79613277D01*
X161655354Y-79880991D01*
X162127968Y-79975000D01*
X162992032Y-79975000D01*
X163464646Y-79880991D01*
X163707000Y-79719056D01*
X163707000Y-80151421D01*
X162543420Y-81315000D01*
X162127968Y-81315000D01*
X161655354Y-81409009D01*
X161254691Y-81676723D01*
X160986977Y-82077386D01*
X160892968Y-82550000D01*
X160986977Y-83022614D01*
X161254691Y-83423277D01*
X161655354Y-83690991D01*
X162127968Y-83785000D01*
X162992032Y-83785000D01*
X163464646Y-83690991D01*
X163865309Y-83423277D01*
X164133023Y-83022614D01*
X164227032Y-82550000D01*
X164158104Y-82203476D01*
X165217787Y-81143792D01*
X165217790Y-81143790D01*
X165409633Y-80856675D01*
X165423248Y-80788226D01*
X165477001Y-80518000D01*
X165477000Y-80517995D01*
X165477000Y-67564000D01*
X165409633Y-67225325D01*
X165217790Y-66938210D01*
X165217787Y-66938208D01*
X164204052Y-65924472D01*
X164133023Y-65567386D01*
X163865309Y-65166723D01*
X163464646Y-64899009D01*
X162992032Y-64805000D01*
X162127968Y-64805000D01*
X161655354Y-64899009D01*
X161490926Y-65008876D01*
X163111107Y-63388695D01*
X163229287Y-63437768D01*
X163760383Y-63438231D01*
X164251229Y-63235418D01*
X164627098Y-62860204D01*
X164830768Y-62369713D01*
X164831231Y-61838617D01*
X164628418Y-61347771D01*
X164253204Y-60971902D01*
X163762713Y-60768232D01*
X163231617Y-60767769D01*
X162740771Y-60970582D01*
X162364902Y-61345796D01*
X162268760Y-61577330D01*
X162111852Y-61812161D01*
X162054000Y-62103000D01*
X162086054Y-62264144D01*
X158466599Y-65883599D01*
X158301852Y-66130161D01*
X158244000Y-66421000D01*
X158244000Y-69281198D01*
X156392381Y-71132817D01*
X156362100Y-71120243D01*
X155806339Y-71119758D01*
X155292697Y-71331990D01*
X154899371Y-71724630D01*
X154686243Y-72237900D01*
X154685758Y-72793661D01*
X141304055Y-72793661D01*
X141250692Y-72525391D01*
X140947860Y-72072172D01*
X140525561Y-71790000D01*
X140947860Y-71507828D01*
X141250692Y-71054609D01*
X141357032Y-70520000D01*
X141304055Y-70253661D01*
X149605758Y-70253661D01*
X149817990Y-70767303D01*
X150210630Y-71160629D01*
X150723900Y-71373757D01*
X151279661Y-71374242D01*
X151793303Y-71162010D01*
X152186629Y-70769370D01*
X152399757Y-70256100D01*
X152400242Y-69700339D01*
X152188010Y-69186697D01*
X151795370Y-68793371D01*
X151282100Y-68580243D01*
X150726339Y-68579758D01*
X150212697Y-68791990D01*
X149819371Y-69184630D01*
X149606243Y-69697900D01*
X149605758Y-70253661D01*
X141304055Y-70253661D01*
X141250692Y-69985391D01*
X140947860Y-69532172D01*
X140494641Y-69229340D01*
X139960032Y-69123000D01*
X139419968Y-69123000D01*
X138885359Y-69229340D01*
X138432140Y-69532172D01*
X138420000Y-69550341D01*
X138407860Y-69532172D01*
X137954641Y-69229340D01*
X137420032Y-69123000D01*
X136879968Y-69123000D01*
X136345359Y-69229340D01*
X135892140Y-69532172D01*
X135589308Y-69985391D01*
X135482968Y-70520000D01*
X123230576Y-70520000D01*
X122934698Y-70077189D01*
X122469151Y-69766120D01*
X121920000Y-69656887D01*
X121370849Y-69766120D01*
X120905302Y-70077189D01*
X120635014Y-70481703D01*
X120532389Y-70264866D01*
X120117423Y-69888959D01*
X119729039Y-69728096D01*
X119507000Y-69850085D01*
X119253000Y-69850085D01*
X119030961Y-69728096D01*
X118642577Y-69888959D01*
X118227611Y-70264866D01*
X118124986Y-70481703D01*
X117854698Y-70077189D01*
X117389151Y-69766120D01*
X116840000Y-69656887D01*
X116290849Y-69766120D01*
X115825302Y-70077189D01*
X115514233Y-70542736D01*
X115441000Y-70910903D01*
X115441000Y-67713661D01*
X154685758Y-67713661D01*
X154897990Y-68227303D01*
X155290630Y-68620629D01*
X155803900Y-68833757D01*
X156359661Y-68834242D01*
X156873303Y-68622010D01*
X157266629Y-68229370D01*
X157479757Y-67716100D01*
X157480242Y-67160339D01*
X157268010Y-66646697D01*
X156875370Y-66253371D01*
X156362100Y-66040243D01*
X155806339Y-66039758D01*
X155292697Y-66251990D01*
X154899371Y-66644630D01*
X154686243Y-67157900D01*
X154685758Y-67713661D01*
X115441000Y-67713661D01*
X115441000Y-63709097D01*
X115514233Y-64077264D01*
X115825302Y-64542811D01*
X116290849Y-64853880D01*
X116840000Y-64963113D01*
X117389151Y-64853880D01*
X117854698Y-64542811D01*
X118110000Y-64160725D01*
X118365302Y-64542811D01*
X118830849Y-64853880D01*
X119380000Y-64963113D01*
X119929151Y-64853880D01*
X120394698Y-64542811D01*
X120664986Y-64138297D01*
X120767611Y-64355134D01*
X121182577Y-64731041D01*
X121570961Y-64891904D01*
X121793000Y-64769915D01*
X121793000Y-63627000D01*
X121773000Y-63627000D01*
X121773000Y-63373000D01*
X121793000Y-63373000D01*
X121793000Y-63353000D01*
X122047000Y-63353000D01*
X122047000Y-63373000D01*
X122067000Y-63373000D01*
X122067000Y-63627000D01*
X122047000Y-63627000D01*
X122047000Y-64769915D01*
X122269039Y-64891904D01*
X122657423Y-64731041D01*
X123072389Y-64355134D01*
X123194000Y-64098182D01*
X123194000Y-65404995D01*
X123193999Y-65405000D01*
X123233712Y-65604645D01*
X123261367Y-65743675D01*
X123354861Y-65883599D01*
X123453210Y-66030790D01*
X124459208Y-67036787D01*
X124459210Y-67036790D01*
X124746325Y-67228633D01*
X124802516Y-67239810D01*
X125085000Y-67296001D01*
X125085005Y-67296000D01*
X143838236Y-67296000D01*
X144221354Y-67551991D01*
X144693968Y-67646000D01*
X145558032Y-67646000D01*
X146030646Y-67551991D01*
X146431309Y-67284277D01*
X146699023Y-66883614D01*
X146793032Y-66411000D01*
X146699023Y-65938386D01*
X146431309Y-65537723D01*
X146030646Y-65270009D01*
X145558032Y-65176000D01*
X144693968Y-65176000D01*
X144221354Y-65270009D01*
X143838236Y-65526000D01*
X125451579Y-65526000D01*
X124964000Y-65038420D01*
X124964000Y-63871000D01*
X125678968Y-63871000D01*
X125772977Y-64343614D01*
X126040691Y-64744277D01*
X126441354Y-65011991D01*
X126913968Y-65106000D01*
X127778032Y-65106000D01*
X128250646Y-65011991D01*
X128651309Y-64744277D01*
X128919023Y-64343614D01*
X129013032Y-63871000D01*
X143458968Y-63871000D01*
X143552977Y-64343614D01*
X143820691Y-64744277D01*
X144221354Y-65011991D01*
X144693968Y-65106000D01*
X145558032Y-65106000D01*
X146030646Y-65011991D01*
X146431309Y-64744277D01*
X146699023Y-64343614D01*
X146793032Y-63871000D01*
X146699023Y-63398386D01*
X146458405Y-63038275D01*
X149311331Y-63038275D01*
X149373169Y-63274042D01*
X149874122Y-63450419D01*
X150404440Y-63421664D01*
X150760831Y-63274042D01*
X150822669Y-63038275D01*
X150067000Y-62282605D01*
X149311331Y-63038275D01*
X146458405Y-63038275D01*
X146431309Y-62997723D01*
X146030646Y-62730009D01*
X145558032Y-62636000D01*
X144693968Y-62636000D01*
X144221354Y-62730009D01*
X143820691Y-62997723D01*
X143552977Y-63398386D01*
X143458968Y-63871000D01*
X129013032Y-63871000D01*
X128919023Y-63398386D01*
X128651309Y-62997723D01*
X128250646Y-62730009D01*
X127778032Y-62636000D01*
X126913968Y-62636000D01*
X126441354Y-62730009D01*
X126040691Y-62997723D01*
X125772977Y-63398386D01*
X125678968Y-63871000D01*
X124964000Y-63871000D01*
X124964000Y-61331000D01*
X125678968Y-61331000D01*
X125772977Y-61803614D01*
X126040691Y-62204277D01*
X126441354Y-62471991D01*
X126913968Y-62566000D01*
X127778032Y-62566000D01*
X128250646Y-62471991D01*
X128651309Y-62204277D01*
X128919023Y-61803614D01*
X128949855Y-61648609D01*
X143532538Y-61648609D01*
X143536408Y-61686281D01*
X143762920Y-62114474D01*
X144136053Y-62423390D01*
X144599000Y-62566000D01*
X144999000Y-62566000D01*
X144999000Y-61458000D01*
X145253000Y-61458000D01*
X145253000Y-62566000D01*
X145653000Y-62566000D01*
X146115947Y-62423390D01*
X146489080Y-62114474D01*
X146597181Y-61910122D01*
X148719581Y-61910122D01*
X148748336Y-62440440D01*
X148895958Y-62796831D01*
X149131725Y-62858669D01*
X149887395Y-62103000D01*
X150246605Y-62103000D01*
X151002275Y-62858669D01*
X151238042Y-62796831D01*
X151414419Y-62295878D01*
X151385664Y-61765560D01*
X151238042Y-61409169D01*
X151214522Y-61403000D01*
X153719560Y-61403000D01*
X153719560Y-62803000D01*
X153763838Y-63038317D01*
X153902910Y-63254441D01*
X154115110Y-63399431D01*
X154367000Y-63450440D01*
X155767000Y-63450440D01*
X156002317Y-63406162D01*
X156218441Y-63267090D01*
X156363431Y-63054890D01*
X156414440Y-62803000D01*
X156414440Y-61403000D01*
X157148560Y-61403000D01*
X157148560Y-62803000D01*
X157192838Y-63038317D01*
X157331910Y-63254441D01*
X157544110Y-63399431D01*
X157796000Y-63450440D01*
X159196000Y-63450440D01*
X159431317Y-63406162D01*
X159647441Y-63267090D01*
X159792431Y-63054890D01*
X159843440Y-62803000D01*
X159843440Y-61403000D01*
X159799162Y-61167683D01*
X159660090Y-60951559D01*
X159447890Y-60806569D01*
X159196000Y-60755560D01*
X157796000Y-60755560D01*
X157560683Y-60799838D01*
X157344559Y-60938910D01*
X157199569Y-61151110D01*
X157148560Y-61403000D01*
X156414440Y-61403000D01*
X156370162Y-61167683D01*
X156231090Y-60951559D01*
X156018890Y-60806569D01*
X155767000Y-60755560D01*
X154367000Y-60755560D01*
X154131683Y-60799838D01*
X153915559Y-60938910D01*
X153770569Y-61151110D01*
X153719560Y-61403000D01*
X151214522Y-61403000D01*
X151002275Y-61347331D01*
X150246605Y-62103000D01*
X149887395Y-62103000D01*
X149131725Y-61347331D01*
X148895958Y-61409169D01*
X148719581Y-61910122D01*
X146597181Y-61910122D01*
X146715592Y-61686281D01*
X146719462Y-61648609D01*
X146594731Y-61458000D01*
X145253000Y-61458000D01*
X144999000Y-61458000D01*
X143657269Y-61458000D01*
X143532538Y-61648609D01*
X128949855Y-61648609D01*
X129013032Y-61331000D01*
X128949856Y-61013391D01*
X143532538Y-61013391D01*
X143657269Y-61204000D01*
X144999000Y-61204000D01*
X144999000Y-60096000D01*
X145253000Y-60096000D01*
X145253000Y-61204000D01*
X146594731Y-61204000D01*
X146618468Y-61167725D01*
X149311331Y-61167725D01*
X150067000Y-61923395D01*
X150822669Y-61167725D01*
X150760831Y-60931958D01*
X150259878Y-60755581D01*
X149729560Y-60784336D01*
X149373169Y-60931958D01*
X149311331Y-61167725D01*
X146618468Y-61167725D01*
X146719462Y-61013391D01*
X146715592Y-60975719D01*
X146489080Y-60547526D01*
X146115947Y-60238610D01*
X145653000Y-60096000D01*
X145253000Y-60096000D01*
X144999000Y-60096000D01*
X144599000Y-60096000D01*
X144136053Y-60238610D01*
X143762920Y-60547526D01*
X143536408Y-60975719D01*
X143532538Y-61013391D01*
X128949856Y-61013391D01*
X128919023Y-60858386D01*
X128651309Y-60457723D01*
X128250646Y-60190009D01*
X127778032Y-60096000D01*
X126913968Y-60096000D01*
X126441354Y-60190009D01*
X126040691Y-60457723D01*
X125772977Y-60858386D01*
X125678968Y-61331000D01*
X124964000Y-61331000D01*
X124964000Y-60156276D01*
X125040645Y-60079765D01*
X125213803Y-59662756D01*
X125214197Y-59211225D01*
X125041767Y-58793914D01*
X125038859Y-58791000D01*
X125678968Y-58791000D01*
X125772977Y-59263614D01*
X126040691Y-59664277D01*
X126441354Y-59931991D01*
X126913968Y-60026000D01*
X127778032Y-60026000D01*
X128250646Y-59931991D01*
X128651309Y-59664277D01*
X128919023Y-59263614D01*
X129013032Y-58791000D01*
X143458968Y-58791000D01*
X143552977Y-59263614D01*
X143820691Y-59664277D01*
X144221354Y-59931991D01*
X144693968Y-60026000D01*
X145558032Y-60026000D01*
X146030646Y-59931991D01*
X146431309Y-59664277D01*
X146699023Y-59263614D01*
X146793032Y-58791000D01*
X146699023Y-58318386D01*
X146431309Y-57917723D01*
X146030646Y-57650009D01*
X145558032Y-57556000D01*
X144693968Y-57556000D01*
X144221354Y-57650009D01*
X143820691Y-57917723D01*
X143552977Y-58318386D01*
X143458968Y-58791000D01*
X129013032Y-58791000D01*
X128919023Y-58318386D01*
X128651309Y-57917723D01*
X128250646Y-57650009D01*
X127778032Y-57556000D01*
X126913968Y-57556000D01*
X126441354Y-57650009D01*
X126040691Y-57917723D01*
X125772977Y-58318386D01*
X125678968Y-58791000D01*
X125038859Y-58791000D01*
X124722765Y-58474355D01*
X124305756Y-58301197D01*
X123854225Y-58300803D01*
X123436914Y-58473233D01*
X123117355Y-58792235D01*
X122944197Y-59209244D01*
X122943803Y-59660775D01*
X123116233Y-60078086D01*
X123194000Y-60155989D01*
X123194000Y-60305261D01*
X122934698Y-59917189D01*
X122469151Y-59606120D01*
X121920000Y-59496887D01*
X121370849Y-59606120D01*
X120905302Y-59917189D01*
X120635014Y-60321703D01*
X120532389Y-60104866D01*
X120117423Y-59728959D01*
X119729039Y-59568096D01*
X119507000Y-59690085D01*
X119507000Y-60833000D01*
X119527000Y-60833000D01*
X119527000Y-61087000D01*
X119507000Y-61087000D01*
X119507000Y-61107000D01*
X119253000Y-61107000D01*
X119253000Y-61087000D01*
X119233000Y-61087000D01*
X119233000Y-60833000D01*
X119253000Y-60833000D01*
X119253000Y-59690085D01*
X119030961Y-59568096D01*
X118642577Y-59728959D01*
X118227611Y-60104866D01*
X118124986Y-60321703D01*
X117854698Y-59917189D01*
X117389151Y-59606120D01*
X116840000Y-59496887D01*
X116290849Y-59606120D01*
X115825302Y-59917189D01*
X115514233Y-60382736D01*
X115405000Y-60931887D01*
X115405000Y-60988113D01*
X115460096Y-61265102D01*
X114143599Y-62581599D01*
X113978852Y-62828161D01*
X113921000Y-63119000D01*
X113921000Y-71628000D01*
X113978852Y-71918839D01*
X114143599Y-72165401D01*
X114937000Y-72958802D01*
X114937000Y-73348504D01*
X114772345Y-73416538D01*
X114312154Y-73875927D01*
X114242779Y-74043000D01*
X113976496Y-74043000D01*
X113908462Y-73878345D01*
X113449073Y-73418154D01*
X112848547Y-73168794D01*
X112198306Y-73168226D01*
X111597345Y-73416538D01*
X111137154Y-73875927D01*
X110887794Y-74476453D01*
X110887449Y-74871496D01*
X110701675Y-74747367D01*
X110645484Y-74736190D01*
X110363000Y-74679999D01*
X110362995Y-74680000D01*
X103251005Y-74680000D01*
X103251000Y-74679999D01*
X102968516Y-74736190D01*
X102912325Y-74747367D01*
X102625210Y-74939210D01*
X102625208Y-74939213D01*
X100801975Y-76762445D01*
X100568277Y-76412691D01*
X100167614Y-76144977D01*
X99695000Y-76050968D01*
X99222386Y-76144977D01*
X98821723Y-76412691D01*
X98554009Y-76813354D01*
X98460000Y-77285968D01*
X90685000Y-77285968D01*
X90685000Y-67300000D01*
X109422968Y-67300000D01*
X109516977Y-67772614D01*
X109784691Y-68173277D01*
X110185354Y-68440991D01*
X110657968Y-68535000D01*
X111522032Y-68535000D01*
X111994646Y-68440991D01*
X112395309Y-68173277D01*
X112663023Y-67772614D01*
X112757032Y-67300000D01*
X112663023Y-66827386D01*
X112395309Y-66426723D01*
X111994646Y-66159009D01*
X111522032Y-66065000D01*
X110657968Y-66065000D01*
X110185354Y-66159009D01*
X109784691Y-66426723D01*
X109516977Y-66827386D01*
X109422968Y-67300000D01*
X90685000Y-67300000D01*
X90685000Y-61029694D01*
X98949226Y-61029694D01*
X99197538Y-61630655D01*
X99656927Y-62090846D01*
X100257453Y-62340206D01*
X100907694Y-62340774D01*
X101508655Y-62092462D01*
X101968846Y-61633073D01*
X102218206Y-61032547D01*
X102218208Y-61029694D01*
X102505226Y-61029694D01*
X102753538Y-61630655D01*
X103212927Y-62090846D01*
X103813453Y-62340206D01*
X104463694Y-62340774D01*
X105064655Y-62092462D01*
X105185327Y-61972000D01*
X106801153Y-61972000D01*
X106817538Y-62011655D01*
X106930553Y-62124868D01*
X105547523Y-63507897D01*
X105439225Y-63507803D01*
X105021914Y-63680233D01*
X104702355Y-63999235D01*
X104529197Y-64416244D01*
X104528803Y-64867775D01*
X104701233Y-65285086D01*
X105020235Y-65604645D01*
X105437244Y-65777803D01*
X105888775Y-65778197D01*
X106306086Y-65605767D01*
X106625645Y-65286765D01*
X106798803Y-64869756D01*
X106798898Y-64760000D01*
X109422968Y-64760000D01*
X109516977Y-65232614D01*
X109784691Y-65633277D01*
X110185354Y-65900991D01*
X110657968Y-65995000D01*
X111522032Y-65995000D01*
X111994646Y-65900991D01*
X112395309Y-65633277D01*
X112663023Y-65232614D01*
X112757032Y-64760000D01*
X112663023Y-64287386D01*
X112395309Y-63886723D01*
X111994646Y-63619009D01*
X111522032Y-63525000D01*
X110657968Y-63525000D01*
X110185354Y-63619009D01*
X109784691Y-63886723D01*
X109516977Y-64287386D01*
X109422968Y-64760000D01*
X106798898Y-64760000D01*
X106798899Y-64759681D01*
X108829787Y-62728792D01*
X108829790Y-62728790D01*
X108951478Y-62546670D01*
X109128655Y-62473462D01*
X109432980Y-62169668D01*
X109422968Y-62220000D01*
X109516977Y-62692614D01*
X109784691Y-63093277D01*
X110185354Y-63360991D01*
X110657968Y-63455000D01*
X111522032Y-63455000D01*
X111994646Y-63360991D01*
X112395309Y-63093277D01*
X112663023Y-62692614D01*
X112757032Y-62220000D01*
X112663023Y-61747386D01*
X112395309Y-61346723D01*
X111994646Y-61079009D01*
X111522032Y-60985000D01*
X110657968Y-60985000D01*
X110185354Y-61079009D01*
X109838296Y-61310906D01*
X109838774Y-60763306D01*
X109699004Y-60425038D01*
X109784691Y-60553277D01*
X110185354Y-60820991D01*
X110657968Y-60915000D01*
X111522032Y-60915000D01*
X111994646Y-60820991D01*
X112395309Y-60553277D01*
X112663023Y-60152614D01*
X112757032Y-59680000D01*
X112663023Y-59207386D01*
X112395309Y-58806723D01*
X111994646Y-58539009D01*
X111522032Y-58445000D01*
X110657968Y-58445000D01*
X110185354Y-58539009D01*
X109784691Y-58806723D01*
X109516977Y-59207386D01*
X109422968Y-59680000D01*
X109501108Y-60072835D01*
X109131073Y-59702154D01*
X108530547Y-59452794D01*
X107880306Y-59452226D01*
X107279345Y-59700538D01*
X106819154Y-60159927D01*
X106801684Y-60202000D01*
X105700273Y-60202000D01*
X105526462Y-59781345D01*
X105067073Y-59321154D01*
X104466547Y-59071794D01*
X103816306Y-59071226D01*
X103215345Y-59319538D01*
X102755154Y-59778927D01*
X102505794Y-60379453D01*
X102505226Y-61029694D01*
X102218208Y-61029694D01*
X102218774Y-60382306D01*
X101970462Y-59781345D01*
X101511073Y-59321154D01*
X100910547Y-59071794D01*
X100260306Y-59071226D01*
X99659345Y-59319538D01*
X99199154Y-59778927D01*
X98949794Y-60379453D01*
X98949226Y-61029694D01*
X90685000Y-61029694D01*
X90685000Y-57140000D01*
X109422968Y-57140000D01*
X109516977Y-57612614D01*
X109784691Y-58013277D01*
X110185354Y-58280991D01*
X110657968Y-58375000D01*
X111522032Y-58375000D01*
X111994646Y-58280991D01*
X112395309Y-58013277D01*
X112663023Y-57612614D01*
X112757032Y-57140000D01*
X112663023Y-56667386D01*
X112395309Y-56266723D01*
X112371778Y-56251000D01*
X125678968Y-56251000D01*
X125772977Y-56723614D01*
X126040691Y-57124277D01*
X126441354Y-57391991D01*
X126913968Y-57486000D01*
X127778032Y-57486000D01*
X128250646Y-57391991D01*
X128651309Y-57124277D01*
X128919023Y-56723614D01*
X129013032Y-56251000D01*
X143458968Y-56251000D01*
X143552977Y-56723614D01*
X143820691Y-57124277D01*
X144221354Y-57391991D01*
X144693968Y-57486000D01*
X145558032Y-57486000D01*
X146030646Y-57391991D01*
X146202742Y-57277000D01*
X156603960Y-57277000D01*
X156603960Y-59309000D01*
X156648238Y-59544317D01*
X156787310Y-59760441D01*
X156999510Y-59905431D01*
X157251400Y-59956440D01*
X158978600Y-59956440D01*
X159213917Y-59912162D01*
X159430041Y-59773090D01*
X159575031Y-59560890D01*
X159583400Y-59519561D01*
X159595330Y-59537415D01*
X160081511Y-59862271D01*
X160655000Y-59976345D01*
X161228489Y-59862271D01*
X161714670Y-59537415D01*
X161921461Y-59227931D01*
X162292964Y-59643732D01*
X162820209Y-59897709D01*
X162835974Y-59900358D01*
X163068000Y-59779217D01*
X163068000Y-58420000D01*
X163322000Y-58420000D01*
X163322000Y-59779217D01*
X163554026Y-59900358D01*
X163569791Y-59897709D01*
X164097036Y-59643732D01*
X164486954Y-59207320D01*
X164680184Y-58654913D01*
X164535924Y-58420000D01*
X163322000Y-58420000D01*
X163068000Y-58420000D01*
X163048000Y-58420000D01*
X163048000Y-58166000D01*
X163068000Y-58166000D01*
X163068000Y-56806783D01*
X163322000Y-56806783D01*
X163322000Y-58166000D01*
X164535924Y-58166000D01*
X164680184Y-57931087D01*
X164486954Y-57378680D01*
X164097036Y-56942268D01*
X163569791Y-56688291D01*
X163554026Y-56685642D01*
X163322000Y-56806783D01*
X163068000Y-56806783D01*
X162835974Y-56685642D01*
X162820209Y-56688291D01*
X162292964Y-56942268D01*
X161921461Y-57358069D01*
X161714670Y-57048585D01*
X161228489Y-56723729D01*
X160655000Y-56609655D01*
X160081511Y-56723729D01*
X159595330Y-57048585D01*
X159585757Y-57062913D01*
X159581762Y-57041683D01*
X159442690Y-56825559D01*
X159230490Y-56680569D01*
X158978600Y-56629560D01*
X157251400Y-56629560D01*
X157016083Y-56673838D01*
X156799959Y-56812910D01*
X156654969Y-57025110D01*
X156603960Y-57277000D01*
X146202742Y-57277000D01*
X146431309Y-57124277D01*
X146699023Y-56723614D01*
X146793032Y-56251000D01*
X146699023Y-55778386D01*
X146431309Y-55377723D01*
X146030646Y-55110009D01*
X145558032Y-55016000D01*
X144693968Y-55016000D01*
X144221354Y-55110009D01*
X143820691Y-55377723D01*
X143552977Y-55778386D01*
X143458968Y-56251000D01*
X129013032Y-56251000D01*
X128919023Y-55778386D01*
X128651309Y-55377723D01*
X128250646Y-55110009D01*
X127778032Y-55016000D01*
X126913968Y-55016000D01*
X126441354Y-55110009D01*
X126040691Y-55377723D01*
X125772977Y-55778386D01*
X125678968Y-56251000D01*
X112371778Y-56251000D01*
X111994646Y-55999009D01*
X111522032Y-55905000D01*
X110657968Y-55905000D01*
X110185354Y-55999009D01*
X109784691Y-56266723D01*
X109516977Y-56667386D01*
X109422968Y-57140000D01*
X90685000Y-57140000D01*
X90685000Y-49929968D01*
X91303000Y-49929968D01*
X91303000Y-50470032D01*
X91409340Y-51004641D01*
X91712172Y-51457860D01*
X92165391Y-51760692D01*
X92700000Y-51867032D01*
X93234609Y-51760692D01*
X93687828Y-51457860D01*
X93970000Y-51035561D01*
X94252172Y-51457860D01*
X94705391Y-51760692D01*
X95240000Y-51867032D01*
X95774609Y-51760692D01*
X96227828Y-51457860D01*
X96529762Y-51005985D01*
X96810657Y-51426375D01*
X97259983Y-51726605D01*
X97790000Y-51832032D01*
X98320017Y-51726605D01*
X98769343Y-51426375D01*
X99065489Y-50983161D01*
X99080036Y-51036721D01*
X99413106Y-51467736D01*
X99751386Y-51661507D01*
X99659345Y-51699538D01*
X99199154Y-52158927D01*
X98949794Y-52759453D01*
X98949226Y-53409694D01*
X99197538Y-54010655D01*
X99656927Y-54470846D01*
X100257453Y-54720206D01*
X100907694Y-54720774D01*
X101508655Y-54472462D01*
X101968846Y-54013073D01*
X102218206Y-53412547D01*
X102218774Y-52762306D01*
X101970462Y-52161345D01*
X101511073Y-51701154D01*
X101121676Y-51539462D01*
X101246894Y-51467736D01*
X101579964Y-51036721D01*
X101594511Y-50983161D01*
X101890657Y-51426375D01*
X102339983Y-51726605D01*
X102870000Y-51832032D01*
X103135529Y-51779215D01*
X102755154Y-52158927D01*
X102505794Y-52759453D01*
X102505226Y-53409694D01*
X102753538Y-54010655D01*
X103212927Y-54470846D01*
X103813453Y-54720206D01*
X104463694Y-54720774D01*
X105064655Y-54472462D01*
X105524846Y-54013073D01*
X105617185Y-53790694D01*
X106569226Y-53790694D01*
X106817538Y-54391655D01*
X107276927Y-54851846D01*
X107877453Y-55101206D01*
X108527694Y-55101774D01*
X108973407Y-54917609D01*
X109496538Y-54917609D01*
X109500408Y-54955281D01*
X109726920Y-55383474D01*
X110100053Y-55692390D01*
X110563000Y-55835000D01*
X110963000Y-55835000D01*
X110963000Y-54727000D01*
X111217000Y-54727000D01*
X111217000Y-55835000D01*
X111617000Y-55835000D01*
X112079947Y-55692390D01*
X112453080Y-55383474D01*
X112679592Y-54955281D01*
X112683462Y-54917609D01*
X112558731Y-54727000D01*
X111217000Y-54727000D01*
X110963000Y-54727000D01*
X109621269Y-54727000D01*
X109496538Y-54917609D01*
X108973407Y-54917609D01*
X109128655Y-54853462D01*
X109577217Y-54405682D01*
X109621269Y-54473000D01*
X110963000Y-54473000D01*
X110963000Y-53365000D01*
X111217000Y-53365000D01*
X111217000Y-54473000D01*
X112558731Y-54473000D01*
X112683462Y-54282391D01*
X112679592Y-54244719D01*
X112453080Y-53816526D01*
X112079947Y-53507610D01*
X111617000Y-53365000D01*
X111217000Y-53365000D01*
X110963000Y-53365000D01*
X110563000Y-53365000D01*
X110100053Y-53507610D01*
X109838266Y-53724343D01*
X109838626Y-53311887D01*
X115405000Y-53311887D01*
X115405000Y-53368113D01*
X115514233Y-53917264D01*
X115825302Y-54382811D01*
X116290849Y-54693880D01*
X116840000Y-54803113D01*
X117389151Y-54693880D01*
X117854698Y-54382811D01*
X118110000Y-54000725D01*
X118365302Y-54382811D01*
X118830849Y-54693880D01*
X119380000Y-54803113D01*
X119929151Y-54693880D01*
X120394698Y-54382811D01*
X120664986Y-53978297D01*
X120767611Y-54195134D01*
X121182577Y-54571041D01*
X121570961Y-54731904D01*
X121793000Y-54609915D01*
X121793000Y-53467000D01*
X122047000Y-53467000D01*
X122047000Y-54609915D01*
X122269039Y-54731904D01*
X122657423Y-54571041D01*
X123072389Y-54195134D01*
X123301521Y-53711000D01*
X143458968Y-53711000D01*
X143552977Y-54183614D01*
X143820691Y-54584277D01*
X144221354Y-54851991D01*
X144693968Y-54946000D01*
X145558032Y-54946000D01*
X146030646Y-54851991D01*
X146431309Y-54584277D01*
X146699023Y-54183614D01*
X146793032Y-53711000D01*
X146744498Y-53467000D01*
X154190960Y-53467000D01*
X154190960Y-55499000D01*
X154235238Y-55734317D01*
X154374310Y-55950441D01*
X154586510Y-56095431D01*
X154838400Y-56146440D01*
X156565600Y-56146440D01*
X156800917Y-56102162D01*
X157017041Y-55963090D01*
X157162031Y-55750890D01*
X157170400Y-55709561D01*
X157182330Y-55727415D01*
X157668511Y-56052271D01*
X158242000Y-56166345D01*
X158815489Y-56052271D01*
X159301670Y-55727415D01*
X159512000Y-55412634D01*
X159722330Y-55727415D01*
X160208511Y-56052271D01*
X160782000Y-56166345D01*
X161355489Y-56052271D01*
X161841670Y-55727415D01*
X162048461Y-55417931D01*
X162419964Y-55833732D01*
X162947209Y-56087709D01*
X162962974Y-56090358D01*
X163195000Y-55969217D01*
X163195000Y-54610000D01*
X163449000Y-54610000D01*
X163449000Y-55969217D01*
X163681026Y-56090358D01*
X163696791Y-56087709D01*
X164224036Y-55833732D01*
X164613954Y-55397320D01*
X164807184Y-54844913D01*
X164662924Y-54610000D01*
X163449000Y-54610000D01*
X163195000Y-54610000D01*
X163175000Y-54610000D01*
X163175000Y-54356000D01*
X163195000Y-54356000D01*
X163195000Y-52996783D01*
X163449000Y-52996783D01*
X163449000Y-54356000D01*
X164662924Y-54356000D01*
X164807184Y-54121087D01*
X164613954Y-53568680D01*
X164224036Y-53132268D01*
X163696791Y-52878291D01*
X163681026Y-52875642D01*
X163449000Y-52996783D01*
X163195000Y-52996783D01*
X162962974Y-52875642D01*
X162947209Y-52878291D01*
X162419964Y-53132268D01*
X162048461Y-53548069D01*
X161841670Y-53238585D01*
X161355489Y-52913729D01*
X160782000Y-52799655D01*
X160208511Y-52913729D01*
X159722330Y-53238585D01*
X159512000Y-53553366D01*
X159301670Y-53238585D01*
X158815489Y-52913729D01*
X158242000Y-52799655D01*
X157668511Y-52913729D01*
X157182330Y-53238585D01*
X157172757Y-53252913D01*
X157168762Y-53231683D01*
X157029690Y-53015559D01*
X156817490Y-52870569D01*
X156565600Y-52819560D01*
X154838400Y-52819560D01*
X154603083Y-52863838D01*
X154386959Y-53002910D01*
X154241969Y-53215110D01*
X154190960Y-53467000D01*
X146744498Y-53467000D01*
X146699023Y-53238386D01*
X146431309Y-52837723D01*
X146030646Y-52570009D01*
X145558032Y-52476000D01*
X144693968Y-52476000D01*
X144221354Y-52570009D01*
X143820691Y-52837723D01*
X143552977Y-53238386D01*
X143458968Y-53711000D01*
X123301521Y-53711000D01*
X123311914Y-53689041D01*
X123190629Y-53467000D01*
X122047000Y-53467000D01*
X121793000Y-53467000D01*
X121773000Y-53467000D01*
X121773000Y-53213000D01*
X121793000Y-53213000D01*
X121793000Y-52070085D01*
X122047000Y-52070085D01*
X122047000Y-53213000D01*
X123190629Y-53213000D01*
X123311914Y-52990959D01*
X123072389Y-52484866D01*
X122657423Y-52108959D01*
X122269039Y-51948096D01*
X122047000Y-52070085D01*
X121793000Y-52070085D01*
X121570961Y-51948096D01*
X121182577Y-52108959D01*
X120767611Y-52484866D01*
X120664986Y-52701703D01*
X120394698Y-52297189D01*
X119929151Y-51986120D01*
X119380000Y-51876887D01*
X118830849Y-51986120D01*
X118365302Y-52297189D01*
X118110000Y-52679275D01*
X117854698Y-52297189D01*
X117389151Y-51986120D01*
X116840000Y-51876887D01*
X116290849Y-51986120D01*
X115825302Y-52297189D01*
X115514233Y-52762736D01*
X115405000Y-53311887D01*
X109838626Y-53311887D01*
X109838774Y-53143306D01*
X109590462Y-52542345D01*
X109131073Y-52082154D01*
X108530547Y-51832794D01*
X107880306Y-51832226D01*
X107279345Y-52080538D01*
X106819154Y-52539927D01*
X106569794Y-53140453D01*
X106569226Y-53790694D01*
X105617185Y-53790694D01*
X105774206Y-53412547D01*
X105774774Y-52762306D01*
X105526462Y-52161345D01*
X105145128Y-51779346D01*
X105410000Y-51832032D01*
X105940017Y-51726605D01*
X106389343Y-51426375D01*
X106680000Y-50991376D01*
X106970657Y-51426375D01*
X107419983Y-51726605D01*
X107950000Y-51832032D01*
X108480017Y-51726605D01*
X108929343Y-51426375D01*
X109220000Y-50991376D01*
X109510657Y-51426375D01*
X109959983Y-51726605D01*
X110490000Y-51832032D01*
X111020017Y-51726605D01*
X111469343Y-51426375D01*
X111760000Y-50991376D01*
X112050657Y-51426375D01*
X112499983Y-51726605D01*
X113030000Y-51832032D01*
X113560017Y-51726605D01*
X114009343Y-51426375D01*
X114300000Y-50991376D01*
X114590657Y-51426375D01*
X115039983Y-51726605D01*
X115570000Y-51832032D01*
X116100017Y-51726605D01*
X116549343Y-51426375D01*
X116849573Y-50977049D01*
X116955000Y-50447032D01*
X116955000Y-49882968D01*
X117995000Y-49882968D01*
X117995000Y-50447032D01*
X118100427Y-50977049D01*
X118400657Y-51426375D01*
X118849983Y-51726605D01*
X119380000Y-51832032D01*
X119910017Y-51726605D01*
X120359343Y-51426375D01*
X120650000Y-50991376D01*
X120940657Y-51426375D01*
X121389983Y-51726605D01*
X121920000Y-51832032D01*
X122450017Y-51726605D01*
X122899343Y-51426375D01*
X123190000Y-50991376D01*
X123480657Y-51426375D01*
X123929983Y-51726605D01*
X124460000Y-51832032D01*
X124990017Y-51726605D01*
X125439343Y-51426375D01*
X125730000Y-50991376D01*
X126020657Y-51426375D01*
X126469983Y-51726605D01*
X127000000Y-51832032D01*
X127530017Y-51726605D01*
X127979343Y-51426375D01*
X128270000Y-50991376D01*
X128560657Y-51426375D01*
X129009983Y-51726605D01*
X129540000Y-51832032D01*
X130070017Y-51726605D01*
X130519343Y-51426375D01*
X130810000Y-50991376D01*
X131100657Y-51426375D01*
X131549983Y-51726605D01*
X132080000Y-51832032D01*
X132610017Y-51726605D01*
X133059343Y-51426375D01*
X133350000Y-50991376D01*
X133640657Y-51426375D01*
X134089983Y-51726605D01*
X134620000Y-51832032D01*
X135150017Y-51726605D01*
X135599343Y-51426375D01*
X135890000Y-50991376D01*
X136180657Y-51426375D01*
X136629983Y-51726605D01*
X137160000Y-51832032D01*
X137690017Y-51726605D01*
X138139343Y-51426375D01*
X138439573Y-50977049D01*
X138545000Y-50447032D01*
X138545000Y-49882968D01*
X140855000Y-49882968D01*
X140855000Y-50447032D01*
X140960427Y-50977049D01*
X141260657Y-51426375D01*
X141709983Y-51726605D01*
X142240000Y-51832032D01*
X142770017Y-51726605D01*
X143219343Y-51426375D01*
X143510000Y-50991376D01*
X143800657Y-51426375D01*
X144249983Y-51726605D01*
X144780000Y-51832032D01*
X145310017Y-51726605D01*
X145759343Y-51426375D01*
X146050000Y-50991376D01*
X146340657Y-51426375D01*
X146789983Y-51726605D01*
X147320000Y-51832032D01*
X147850017Y-51726605D01*
X148299343Y-51426375D01*
X148590000Y-50991376D01*
X148880657Y-51426375D01*
X149329983Y-51726605D01*
X149860000Y-51832032D01*
X150390017Y-51726605D01*
X150839343Y-51426375D01*
X151130000Y-50991376D01*
X151420657Y-51426375D01*
X151869983Y-51726605D01*
X152400000Y-51832032D01*
X152930017Y-51726605D01*
X153379343Y-51426375D01*
X153670000Y-50991376D01*
X153960657Y-51426375D01*
X154409983Y-51726605D01*
X154940000Y-51832032D01*
X155470017Y-51726605D01*
X155919343Y-51426375D01*
X156210000Y-50991376D01*
X156500657Y-51426375D01*
X156949983Y-51726605D01*
X157480000Y-51832032D01*
X158010017Y-51726605D01*
X158459343Y-51426375D01*
X158750000Y-50991376D01*
X159040657Y-51426375D01*
X159489983Y-51726605D01*
X160020000Y-51832032D01*
X160550017Y-51726605D01*
X160999343Y-51426375D01*
X161299573Y-50977049D01*
X161405000Y-50447032D01*
X161405000Y-50200000D01*
X165962968Y-50200000D01*
X166069308Y-50734609D01*
X166372140Y-51187828D01*
X166777841Y-51458909D01*
X166378625Y-51725657D01*
X166078395Y-52174983D01*
X165972968Y-52705000D01*
X166078395Y-53235017D01*
X166378625Y-53684343D01*
X166813624Y-53975000D01*
X166378625Y-54265657D01*
X166078395Y-54714983D01*
X165972968Y-55245000D01*
X166078395Y-55775017D01*
X166378625Y-56224343D01*
X166813624Y-56515000D01*
X166378625Y-56805657D01*
X166078395Y-57254983D01*
X165972968Y-57785000D01*
X166078395Y-58315017D01*
X166378625Y-58764343D01*
X166813624Y-59055000D01*
X166378625Y-59345657D01*
X166078395Y-59794983D01*
X165972968Y-60325000D01*
X166078395Y-60855017D01*
X166378625Y-61304343D01*
X166813624Y-61595000D01*
X166378625Y-61885657D01*
X166078395Y-62334983D01*
X165972968Y-62865000D01*
X166078395Y-63395017D01*
X166378625Y-63844343D01*
X166813624Y-64135000D01*
X166378625Y-64425657D01*
X166078395Y-64874983D01*
X165972968Y-65405000D01*
X166078395Y-65935017D01*
X166378625Y-66384343D01*
X166813624Y-66675000D01*
X166378625Y-66965657D01*
X166078395Y-67414983D01*
X165972968Y-67945000D01*
X166078395Y-68475017D01*
X166378625Y-68924343D01*
X166813624Y-69215000D01*
X166378625Y-69505657D01*
X166078395Y-69954983D01*
X165972968Y-70485000D01*
X166078395Y-71015017D01*
X166378625Y-71464343D01*
X166813624Y-71755000D01*
X166378625Y-72045657D01*
X166078395Y-72494983D01*
X165972968Y-73025000D01*
X166078395Y-73555017D01*
X166378625Y-74004343D01*
X166813624Y-74295000D01*
X166378625Y-74585657D01*
X166078395Y-75034983D01*
X165972968Y-75565000D01*
X166078395Y-76095017D01*
X166378625Y-76544343D01*
X166813624Y-76835000D01*
X166378625Y-77125657D01*
X166078395Y-77574983D01*
X165972968Y-78105000D01*
X166078395Y-78635017D01*
X166378625Y-79084343D01*
X166813624Y-79375000D01*
X166378625Y-79665657D01*
X166078395Y-80114983D01*
X165972968Y-80645000D01*
X166078395Y-81175017D01*
X166378625Y-81624343D01*
X166813624Y-81915000D01*
X166378625Y-82205657D01*
X166078395Y-82654983D01*
X165972968Y-83185000D01*
X166078395Y-83715017D01*
X166378625Y-84164343D01*
X166813624Y-84455000D01*
X166378625Y-84745657D01*
X166078395Y-85194983D01*
X165972968Y-85725000D01*
X166078395Y-86255017D01*
X166378625Y-86704343D01*
X166813624Y-86995000D01*
X166378625Y-87285657D01*
X166078395Y-87734983D01*
X165972968Y-88265000D01*
X166078395Y-88795017D01*
X166378625Y-89244343D01*
X166813624Y-89535000D01*
X166378625Y-89825657D01*
X166078395Y-90274983D01*
X165972968Y-90805000D01*
X166078395Y-91335017D01*
X166378625Y-91784343D01*
X166821839Y-92080489D01*
X166768279Y-92095036D01*
X166337264Y-92428106D01*
X166066519Y-92900765D01*
X166047682Y-93003815D01*
X166170344Y-93218000D01*
X167513000Y-93218000D01*
X167513000Y-93198000D01*
X167767000Y-93198000D01*
X167767000Y-93218000D01*
X170053000Y-93218000D01*
X170053000Y-93198000D01*
X170307000Y-93198000D01*
X170307000Y-93218000D01*
X171649656Y-93218000D01*
X171772318Y-93003815D01*
X171753481Y-92900765D01*
X171482736Y-92428106D01*
X171051721Y-92095036D01*
X170998161Y-92080489D01*
X171441375Y-91784343D01*
X171741605Y-91335017D01*
X171847032Y-90805000D01*
X171741605Y-90274983D01*
X171441375Y-89825657D01*
X171006376Y-89535000D01*
X171441375Y-89244343D01*
X171741605Y-88795017D01*
X171847032Y-88265000D01*
X171741605Y-87734983D01*
X171441375Y-87285657D01*
X171006376Y-86995000D01*
X171441375Y-86704343D01*
X171741605Y-86255017D01*
X171847032Y-85725000D01*
X171741605Y-85194983D01*
X171441375Y-84745657D01*
X171006376Y-84455000D01*
X171441375Y-84164343D01*
X171741605Y-83715017D01*
X171847032Y-83185000D01*
X171741605Y-82654983D01*
X171441375Y-82205657D01*
X171006376Y-81915000D01*
X171441375Y-81624343D01*
X171741605Y-81175017D01*
X171847032Y-80645000D01*
X171741605Y-80114983D01*
X171441375Y-79665657D01*
X171006376Y-79375000D01*
X171441375Y-79084343D01*
X171741605Y-78635017D01*
X171847032Y-78105000D01*
X171741605Y-77574983D01*
X171441375Y-77125657D01*
X171006376Y-76835000D01*
X171441375Y-76544343D01*
X171741605Y-76095017D01*
X171847032Y-75565000D01*
X171741605Y-75034983D01*
X171441375Y-74585657D01*
X171006376Y-74295000D01*
X171441375Y-74004343D01*
X171741605Y-73555017D01*
X171847032Y-73025000D01*
X171741605Y-72494983D01*
X171441375Y-72045657D01*
X171006376Y-71755000D01*
X171441375Y-71464343D01*
X171741605Y-71015017D01*
X171847032Y-70485000D01*
X171741605Y-69954983D01*
X171441375Y-69505657D01*
X171006376Y-69215000D01*
X171441375Y-68924343D01*
X171741605Y-68475017D01*
X171847032Y-67945000D01*
X171741605Y-67414983D01*
X171441375Y-66965657D01*
X171006376Y-66675000D01*
X171441375Y-66384343D01*
X171741605Y-65935017D01*
X171847032Y-65405000D01*
X171741605Y-64874983D01*
X171441375Y-64425657D01*
X171006376Y-64135000D01*
X171441375Y-63844343D01*
X171741605Y-63395017D01*
X171847032Y-62865000D01*
X171741605Y-62334983D01*
X171441375Y-61885657D01*
X171006376Y-61595000D01*
X171441375Y-61304343D01*
X171741605Y-60855017D01*
X171847032Y-60325000D01*
X171741605Y-59794983D01*
X171441375Y-59345657D01*
X171006376Y-59055000D01*
X171441375Y-58764343D01*
X171741605Y-58315017D01*
X171847032Y-57785000D01*
X171741605Y-57254983D01*
X171441375Y-56805657D01*
X171006376Y-56515000D01*
X171441375Y-56224343D01*
X171741605Y-55775017D01*
X171847032Y-55245000D01*
X171741605Y-54714983D01*
X171441375Y-54265657D01*
X171006376Y-53975000D01*
X171441375Y-53684343D01*
X171741605Y-53235017D01*
X171847032Y-52705000D01*
X171741605Y-52174983D01*
X171441375Y-51725657D01*
X171032159Y-51452228D01*
X171427860Y-51187828D01*
X171730692Y-50734609D01*
X171837032Y-50200000D01*
X171730692Y-49665391D01*
X171427860Y-49212172D01*
X170974641Y-48909340D01*
X170440032Y-48803000D01*
X169899968Y-48803000D01*
X169365359Y-48909340D01*
X168912140Y-49212172D01*
X168900000Y-49230341D01*
X168887860Y-49212172D01*
X168434641Y-48909340D01*
X167900032Y-48803000D01*
X167359968Y-48803000D01*
X166825359Y-48909340D01*
X166372140Y-49212172D01*
X166069308Y-49665391D01*
X165962968Y-50200000D01*
X161405000Y-50200000D01*
X161405000Y-49882968D01*
X161299573Y-49352951D01*
X160999343Y-48903625D01*
X160550017Y-48603395D01*
X160020000Y-48497968D01*
X159489983Y-48603395D01*
X159040657Y-48903625D01*
X158750000Y-49338624D01*
X158459343Y-48903625D01*
X158010017Y-48603395D01*
X157480000Y-48497968D01*
X156949983Y-48603395D01*
X156500657Y-48903625D01*
X156210000Y-49338624D01*
X155919343Y-48903625D01*
X155470017Y-48603395D01*
X154940000Y-48497968D01*
X154409983Y-48603395D01*
X153960657Y-48903625D01*
X153670000Y-49338624D01*
X153379343Y-48903625D01*
X152930017Y-48603395D01*
X152400000Y-48497968D01*
X151869983Y-48603395D01*
X151420657Y-48903625D01*
X151130000Y-49338624D01*
X150839343Y-48903625D01*
X150390017Y-48603395D01*
X149860000Y-48497968D01*
X149329983Y-48603395D01*
X148880657Y-48903625D01*
X148590000Y-49338624D01*
X148299343Y-48903625D01*
X147850017Y-48603395D01*
X147320000Y-48497968D01*
X146789983Y-48603395D01*
X146340657Y-48903625D01*
X146050000Y-49338624D01*
X145759343Y-48903625D01*
X145310017Y-48603395D01*
X144780000Y-48497968D01*
X144249983Y-48603395D01*
X143800657Y-48903625D01*
X143510000Y-49338624D01*
X143219343Y-48903625D01*
X142770017Y-48603395D01*
X142240000Y-48497968D01*
X141709983Y-48603395D01*
X141260657Y-48903625D01*
X140960427Y-49352951D01*
X140855000Y-49882968D01*
X138545000Y-49882968D01*
X138439573Y-49352951D01*
X138139343Y-48903625D01*
X137690017Y-48603395D01*
X137160000Y-48497968D01*
X136629983Y-48603395D01*
X136180657Y-48903625D01*
X135890000Y-49338624D01*
X135599343Y-48903625D01*
X135150017Y-48603395D01*
X134620000Y-48497968D01*
X134089983Y-48603395D01*
X133640657Y-48903625D01*
X133350000Y-49338624D01*
X133059343Y-48903625D01*
X132610017Y-48603395D01*
X132080000Y-48497968D01*
X131549983Y-48603395D01*
X131100657Y-48903625D01*
X130810000Y-49338624D01*
X130519343Y-48903625D01*
X130070017Y-48603395D01*
X129540000Y-48497968D01*
X129009983Y-48603395D01*
X128560657Y-48903625D01*
X128270000Y-49338624D01*
X127979343Y-48903625D01*
X127530017Y-48603395D01*
X127000000Y-48497968D01*
X126469983Y-48603395D01*
X126020657Y-48903625D01*
X125730000Y-49338624D01*
X125439343Y-48903625D01*
X124990017Y-48603395D01*
X124460000Y-48497968D01*
X123929983Y-48603395D01*
X123480657Y-48903625D01*
X123190000Y-49338624D01*
X122899343Y-48903625D01*
X122450017Y-48603395D01*
X121920000Y-48497968D01*
X121389983Y-48603395D01*
X120940657Y-48903625D01*
X120650000Y-49338624D01*
X120359343Y-48903625D01*
X119910017Y-48603395D01*
X119380000Y-48497968D01*
X118849983Y-48603395D01*
X118400657Y-48903625D01*
X118100427Y-49352951D01*
X117995000Y-49882968D01*
X116955000Y-49882968D01*
X116849573Y-49352951D01*
X116549343Y-48903625D01*
X116100017Y-48603395D01*
X115570000Y-48497968D01*
X115039983Y-48603395D01*
X114590657Y-48903625D01*
X114300000Y-49338624D01*
X114009343Y-48903625D01*
X113560017Y-48603395D01*
X113030000Y-48497968D01*
X112499983Y-48603395D01*
X112050657Y-48903625D01*
X111760000Y-49338624D01*
X111469343Y-48903625D01*
X111020017Y-48603395D01*
X110490000Y-48497968D01*
X109959983Y-48603395D01*
X109510657Y-48903625D01*
X109220000Y-49338624D01*
X108929343Y-48903625D01*
X108480017Y-48603395D01*
X107950000Y-48497968D01*
X107419983Y-48603395D01*
X106970657Y-48903625D01*
X106680000Y-49338624D01*
X106389343Y-48903625D01*
X105940017Y-48603395D01*
X105410000Y-48497968D01*
X104879983Y-48603395D01*
X104430657Y-48903625D01*
X104140000Y-49338624D01*
X103849343Y-48903625D01*
X103400017Y-48603395D01*
X102870000Y-48497968D01*
X102339983Y-48603395D01*
X101890657Y-48903625D01*
X101594511Y-49346839D01*
X101579964Y-49293279D01*
X101246894Y-48862264D01*
X100774235Y-48591519D01*
X100671185Y-48572682D01*
X100457000Y-48695344D01*
X100457000Y-50038000D01*
X100477000Y-50038000D01*
X100477000Y-50292000D01*
X100457000Y-50292000D01*
X100457000Y-50312000D01*
X100203000Y-50312000D01*
X100203000Y-50292000D01*
X100183000Y-50292000D01*
X100183000Y-50038000D01*
X100203000Y-50038000D01*
X100203000Y-48695344D01*
X99988815Y-48572682D01*
X99885765Y-48591519D01*
X99413106Y-48862264D01*
X99080036Y-49293279D01*
X99065489Y-49346839D01*
X98769343Y-48903625D01*
X98320017Y-48603395D01*
X97790000Y-48497968D01*
X97259983Y-48603395D01*
X96810657Y-48903625D01*
X96510427Y-49352951D01*
X96508568Y-49362296D01*
X96227828Y-48942140D01*
X95774609Y-48639308D01*
X95240000Y-48532968D01*
X94705391Y-48639308D01*
X94252172Y-48942140D01*
X93970000Y-49364439D01*
X93687828Y-48942140D01*
X93234609Y-48639308D01*
X92700000Y-48532968D01*
X92165391Y-48639308D01*
X91712172Y-48942140D01*
X91409340Y-49395359D01*
X91303000Y-49929968D01*
X90685000Y-49929968D01*
X90685000Y-46101000D01*
X179070000Y-46101000D01*
X179070000Y-114046182D01*
M02*
