G04 #@! TF.FileFunction,Copper,L1,Top,Signal*
%FSLAX46Y46*%
G04 Gerber Fmt 4.6, Leading zero omitted, Abs format (unit mm)*
G04 Created by KiCad (PCBNEW 4.0.6) date Thursday, 23 November 2017 'AMt' 10:57:14*
%MOMM*%
%LPD*%
G01*
G04 APERTURE LIST*
%ADD10C,0.100000*%
%ADD11R,1.300000X1.300000*%
%ADD12C,1.300000*%
%ADD13R,1.400000X1.400000*%
%ADD14C,1.400000*%
%ADD15O,1.600000X1.600000*%
%ADD16C,3.810000*%
%ADD17R,3.810000X3.810000*%
%ADD18C,1.524000*%
%ADD19C,1.998980*%
%ADD20O,2.000000X1.200000*%
%ADD21C,4.064000*%
%ADD22O,1.200000X2.000000*%
%ADD23O,2.000000X1.500000*%
%ADD24O,1.500000X2.000000*%
%ADD25O,2.000000X1.524000*%
%ADD26O,1.524000X2.000000*%
%ADD27R,1.727200X2.032000*%
%ADD28O,1.727200X2.032000*%
%ADD29C,1.000000*%
%ADD30C,0.500000*%
%ADD31C,0.250000*%
G04 APERTURE END LIST*
D10*
D11*
X129667000Y-77470000D03*
D12*
X129667000Y-82470000D03*
D13*
X114300000Y-93980000D03*
D14*
X114300000Y-88980000D03*
D13*
X158496000Y-62103000D03*
D14*
X163496000Y-62103000D03*
D13*
X155067000Y-62103000D03*
D14*
X150067000Y-62103000D03*
D15*
X116840000Y-71120000D03*
X119380000Y-71120000D03*
X121920000Y-71120000D03*
X121920000Y-63500000D03*
X119380000Y-63500000D03*
X116840000Y-63500000D03*
X116840000Y-60960000D03*
X119380000Y-60960000D03*
X121920000Y-60960000D03*
X121920000Y-53340000D03*
X119380000Y-53340000D03*
X116840000Y-53340000D03*
D16*
X154940000Y-106680000D03*
X160020000Y-106680000D03*
D17*
X149860000Y-106680000D03*
D16*
X165100000Y-106680000D03*
X170180000Y-106680000D03*
X104140000Y-106680000D03*
X109220000Y-106680000D03*
D17*
X99060000Y-106680000D03*
D16*
X114300000Y-106680000D03*
X119380000Y-106680000D03*
D18*
X156210000Y-93980000D03*
X151130000Y-91440000D03*
X156210000Y-88900000D03*
X151130000Y-86360000D03*
X156210000Y-83820000D03*
X156083000Y-77597000D03*
X151003000Y-75057000D03*
X156083000Y-72517000D03*
X151003000Y-69977000D03*
X156083000Y-67437000D03*
D19*
X129540000Y-101600000D03*
X129540000Y-109220000D03*
X133096000Y-87630000D03*
X133096000Y-95250000D03*
X127000000Y-101600000D03*
X127000000Y-109220000D03*
X127000000Y-87630000D03*
X127000000Y-95250000D03*
X124460000Y-101600000D03*
X124460000Y-109220000D03*
X124079000Y-87630000D03*
X124079000Y-95250000D03*
X118999000Y-74803000D03*
X118999000Y-82423000D03*
X115697000Y-74803000D03*
X115697000Y-82423000D03*
X104140000Y-60706000D03*
X104140000Y-53086000D03*
X108204000Y-61087000D03*
X108204000Y-53467000D03*
D20*
X111090000Y-54600000D03*
X111090000Y-57140000D03*
X111090000Y-59680000D03*
X111090000Y-62220000D03*
X111090000Y-64760000D03*
X111090000Y-67300000D03*
X162560000Y-95250000D03*
X162560000Y-92710000D03*
X162560000Y-90170000D03*
X162560000Y-87630000D03*
X162560000Y-85090000D03*
X162560000Y-82550000D03*
X162560000Y-78740000D03*
X162560000Y-76200000D03*
X162560000Y-73660000D03*
X162560000Y-71120000D03*
X162560000Y-68580000D03*
X162560000Y-66040000D03*
D19*
X136144000Y-87630000D03*
X136144000Y-95250000D03*
X130048000Y-87630000D03*
X130048000Y-95250000D03*
X121031000Y-87630000D03*
X121031000Y-95250000D03*
D13*
X141478000Y-104267000D03*
D14*
X141478000Y-109267000D03*
D13*
X136017000Y-104140000D03*
D14*
X136017000Y-109140000D03*
D19*
X122174000Y-74803000D03*
X122174000Y-82423000D03*
X112522000Y-74803000D03*
X112522000Y-82423000D03*
D21*
X94107000Y-111252000D03*
X176022000Y-111125000D03*
D22*
X99695000Y-77718000D03*
X109195000Y-77718000D03*
X99740000Y-93238000D03*
X109265000Y-93238000D03*
D20*
X145126000Y-53711000D03*
X127346000Y-56251000D03*
X127346000Y-58791000D03*
X127346000Y-61331000D03*
X127346000Y-63871000D03*
X145126000Y-56251000D03*
X145126000Y-58791000D03*
X145126000Y-61331000D03*
X145126000Y-63871000D03*
X145126000Y-66411000D03*
D23*
X170180000Y-93345000D03*
X170180000Y-90805000D03*
X170180000Y-88265000D03*
X170180000Y-85725000D03*
X170180000Y-83185000D03*
X170180000Y-80645000D03*
X170180000Y-78105000D03*
X170180000Y-57785000D03*
X170180000Y-60325000D03*
X170180000Y-62865000D03*
X170180000Y-65405000D03*
X170180000Y-67945000D03*
X170180000Y-70485000D03*
X170180000Y-73025000D03*
X170180000Y-75565000D03*
X170180000Y-55245000D03*
X170180000Y-52705000D03*
X167640000Y-52705000D03*
X167640000Y-55245000D03*
X167640000Y-75565000D03*
X167640000Y-73025000D03*
X167640000Y-70485000D03*
X167640000Y-67945000D03*
X167640000Y-65405000D03*
X167640000Y-62865000D03*
X167640000Y-60325000D03*
X167640000Y-57785000D03*
X167640000Y-78105000D03*
X167640000Y-80645000D03*
X167640000Y-83185000D03*
X167640000Y-85725000D03*
X167640000Y-88265000D03*
X167640000Y-90805000D03*
X167640000Y-93345000D03*
D24*
X97790000Y-50165000D03*
X100330000Y-50165000D03*
X102870000Y-50165000D03*
X106680000Y-98425000D03*
X105410000Y-50165000D03*
X109220000Y-98425000D03*
X107950000Y-50165000D03*
X111760000Y-98425000D03*
X110490000Y-50165000D03*
X114300000Y-98425000D03*
X113030000Y-50165000D03*
X116840000Y-98425000D03*
X115570000Y-50165000D03*
X119380000Y-98425000D03*
X119380000Y-50165000D03*
X124460000Y-98425000D03*
X121920000Y-50165000D03*
X127000000Y-98425000D03*
X124460000Y-50165000D03*
X129540000Y-98425000D03*
X127000000Y-50165000D03*
X132080000Y-98425000D03*
X129540000Y-50165000D03*
X134620000Y-98425000D03*
X132080000Y-50165000D03*
X137160000Y-98425000D03*
X134620000Y-50165000D03*
X139700000Y-98425000D03*
X137160000Y-50165000D03*
X142240000Y-98425000D03*
X142240000Y-50165000D03*
X147320000Y-98425000D03*
X144780000Y-50165000D03*
X149860000Y-98425000D03*
X147320000Y-50165000D03*
X152400000Y-98425000D03*
X149860000Y-50165000D03*
X154940000Y-98425000D03*
X152400000Y-50165000D03*
X157480000Y-98425000D03*
X154940000Y-50165000D03*
X160020000Y-98425000D03*
X157480000Y-50165000D03*
X162560000Y-98425000D03*
X160020000Y-50165000D03*
X165100000Y-98425000D03*
D25*
X139690000Y-70520000D03*
X137150000Y-70520000D03*
X137150000Y-73060000D03*
X139690000Y-73060000D03*
X137150000Y-75600000D03*
X139690000Y-75600000D03*
X99050000Y-88300000D03*
X96510000Y-88300000D03*
X96510000Y-85760000D03*
X99050000Y-85760000D03*
X99050000Y-83220000D03*
X96510000Y-83220000D03*
D26*
X95240000Y-50200000D03*
X92700000Y-50200000D03*
D25*
X167630000Y-50200000D03*
X170170000Y-50200000D03*
D24*
X104130000Y-98460000D03*
X101590000Y-98460000D03*
D27*
X158115000Y-58293000D03*
D28*
X160655000Y-58293000D03*
X163195000Y-58293000D03*
D27*
X155702000Y-54483000D03*
D28*
X158242000Y-54483000D03*
X160782000Y-54483000D03*
X163322000Y-54483000D03*
D19*
X100584000Y-53086000D03*
X100584000Y-60706000D03*
D29*
X124079000Y-59436000D03*
X105664000Y-64643000D03*
D30*
X109210000Y-93380000D02*
X109255000Y-93380000D01*
X129540000Y-109220000D02*
X132080000Y-111760000D01*
X144780000Y-111760000D02*
X149860000Y-106680000D01*
X132080000Y-111760000D02*
X144780000Y-111760000D01*
X112522000Y-82423000D02*
X112522000Y-82296000D01*
X112522000Y-82296000D02*
X114300000Y-80518000D01*
X120269000Y-80518000D02*
X122174000Y-82423000D01*
X114300000Y-80518000D02*
X120269000Y-80518000D01*
X114300000Y-93980000D02*
X114300000Y-91313000D01*
D31*
X111633000Y-83312000D02*
X112522000Y-82423000D01*
X111633000Y-88646000D02*
X111633000Y-83312000D01*
X114300000Y-91313000D02*
X111633000Y-88646000D01*
D30*
X119380000Y-98425000D02*
X119380000Y-98552000D01*
X119380000Y-98552000D02*
X117475000Y-100457000D01*
X105283000Y-100457000D02*
X99060000Y-106680000D01*
X117475000Y-100457000D02*
X105283000Y-100457000D01*
X119380000Y-98425000D02*
X119380000Y-97790000D01*
X119380000Y-97790000D02*
X115570000Y-93980000D01*
X115570000Y-93980000D02*
X114300000Y-93980000D01*
D31*
X158496000Y-62103000D02*
X158496000Y-65024000D01*
X158496000Y-65024000D02*
X156083000Y-67437000D01*
X155067000Y-62103000D02*
X155067000Y-62484000D01*
X155067000Y-62484000D02*
X149352000Y-68199000D01*
X149352000Y-68199000D02*
X149352000Y-76962000D01*
X149352000Y-76962000D02*
X156210000Y-83820000D01*
X156210000Y-83820000D02*
X156210000Y-84328000D01*
X129540000Y-98425000D02*
X129921000Y-98425000D01*
X129921000Y-98425000D02*
X133096000Y-95250000D01*
X133096000Y-95250000D02*
X136144000Y-95250000D01*
X129540000Y-98425000D02*
X129540000Y-97790000D01*
X129540000Y-101600000D02*
X129540000Y-98425000D01*
X104140000Y-106680000D02*
X104140000Y-107696000D01*
X104140000Y-107696000D02*
X106172000Y-109728000D01*
X106172000Y-109728000D02*
X120904000Y-109728000D01*
X120904000Y-109728000D02*
X125476000Y-105156000D01*
X125476000Y-105156000D02*
X125984000Y-105156000D01*
X125984000Y-105156000D02*
X129540000Y-101600000D01*
X127000000Y-98425000D02*
X127000000Y-95250000D01*
X127000000Y-95250000D02*
X130048000Y-95250000D01*
X127000000Y-95250000D02*
X127000520Y-95250520D01*
X127000000Y-101600000D02*
X127000000Y-98425000D01*
X124460000Y-98425000D02*
X124460000Y-95631000D01*
X124460000Y-95631000D02*
X124079000Y-95250000D01*
X124079000Y-95250000D02*
X121031000Y-95250000D01*
X121923060Y-95250000D02*
X121922540Y-95250520D01*
X124460000Y-101600000D02*
X124460000Y-98425000D01*
X118999000Y-74803000D02*
X118999000Y-73279000D01*
X118999000Y-73279000D02*
X116840000Y-71120000D01*
X122174000Y-74803000D02*
X118999000Y-74803000D01*
X118110000Y-74930000D02*
X118110000Y-74803000D01*
X119380000Y-63500000D02*
X121412000Y-65532000D01*
X125222000Y-60706000D02*
X125222000Y-50927000D01*
X125222000Y-50927000D02*
X124460000Y-50165000D01*
X125222000Y-62992000D02*
X125222000Y-60706000D01*
X122682000Y-65532000D02*
X125222000Y-62992000D01*
X121412000Y-65532000D02*
X122682000Y-65532000D01*
X104140000Y-53086000D02*
X105537000Y-53086000D01*
X122936000Y-48641000D02*
X124460000Y-50165000D01*
X107188000Y-48641000D02*
X122936000Y-48641000D01*
X106680000Y-49149000D02*
X107188000Y-48641000D01*
X106680000Y-51943000D02*
X106680000Y-49149000D01*
X105537000Y-53086000D02*
X106680000Y-51943000D01*
X119380000Y-63500000D02*
X119761000Y-63500000D01*
X119380000Y-63500000D02*
X119380000Y-63373000D01*
X116840000Y-60960000D02*
X116459000Y-60960000D01*
X108204000Y-53467000D02*
X108966000Y-53467000D01*
X108966000Y-53467000D02*
X109347000Y-53086000D01*
X109347000Y-53086000D02*
X113411000Y-53086000D01*
X113411000Y-53086000D02*
X113919000Y-53594000D01*
X117729000Y-54991000D02*
X119380000Y-53340000D01*
X115316000Y-54991000D02*
X117729000Y-54991000D01*
X113792000Y-53467000D02*
X113919000Y-53594000D01*
X113919000Y-53594000D02*
X115316000Y-54991000D01*
X119380000Y-53467000D02*
X119380000Y-53340000D01*
X119380000Y-53340000D02*
X119380000Y-52705000D01*
X119380000Y-52705000D02*
X121920000Y-50165000D01*
X141478000Y-104267000D02*
X143002000Y-104267000D01*
X152273000Y-104013000D02*
X154940000Y-106680000D01*
X143256000Y-104013000D02*
X152273000Y-104013000D01*
X143002000Y-104267000D02*
X143256000Y-104013000D01*
X127000000Y-109220000D02*
X127000000Y-109093000D01*
X127000000Y-109093000D02*
X129794000Y-106299000D01*
X139446000Y-106299000D02*
X141478000Y-104267000D01*
X129794000Y-106299000D02*
X139446000Y-106299000D01*
X127000000Y-109220000D02*
X127000000Y-109601000D01*
X154940000Y-107823000D02*
X154940000Y-106680000D01*
X136017000Y-104140000D02*
X136271000Y-104140000D01*
X136271000Y-104140000D02*
X137287000Y-103124000D01*
X156464000Y-103124000D02*
X160020000Y-106680000D01*
X137287000Y-103124000D02*
X156464000Y-103124000D01*
X124460000Y-109220000D02*
X128524000Y-105156000D01*
X135001000Y-105156000D02*
X136017000Y-104140000D01*
X128524000Y-105156000D02*
X135001000Y-105156000D01*
X124460000Y-109220000D02*
X124460000Y-109474000D01*
X165100000Y-106680000D02*
X161671000Y-103251000D01*
X144399000Y-99187000D02*
X144399000Y-97663000D01*
X144399000Y-97663000D02*
X138557000Y-91821000D01*
X138557000Y-91821000D02*
X121539000Y-91821000D01*
X121539000Y-91821000D02*
X118999000Y-89281000D01*
X118999000Y-89281000D02*
X118999000Y-82423000D01*
X147320000Y-102108000D02*
X144399000Y-99187000D01*
X160528000Y-102108000D02*
X147320000Y-102108000D01*
X161671000Y-103251000D02*
X160528000Y-102108000D01*
X165100000Y-106680000D02*
X165100000Y-105791000D01*
X165100000Y-106680000D02*
X164719000Y-106680000D01*
X109220000Y-106680000D02*
X109220000Y-105283000D01*
X109220000Y-105283000D02*
X112903000Y-101600000D01*
X117602000Y-84328000D02*
X115697000Y-82423000D01*
X117602000Y-94234000D02*
X117602000Y-84328000D01*
X121158000Y-97790000D02*
X117602000Y-94234000D01*
X121158000Y-99568000D02*
X121158000Y-97790000D01*
X119126000Y-101600000D02*
X121158000Y-99568000D01*
X112903000Y-101600000D02*
X119126000Y-101600000D01*
X109220000Y-106680000D02*
X109474000Y-106680000D01*
X162560000Y-92710000D02*
X157480000Y-92710000D01*
X157480000Y-92710000D02*
X156210000Y-93980000D01*
X162560000Y-95250000D02*
X160401000Y-95250000D01*
X155448000Y-95758000D02*
X151130000Y-91440000D01*
X159893000Y-95758000D02*
X155448000Y-95758000D01*
X160401000Y-95250000D02*
X159893000Y-95758000D01*
X162560000Y-76200000D02*
X157480000Y-76200000D01*
X157480000Y-76200000D02*
X156083000Y-77597000D01*
X162560000Y-78740000D02*
X159512000Y-78740000D01*
X155575000Y-79629000D02*
X151003000Y-75057000D01*
X158623000Y-79629000D02*
X155575000Y-79629000D01*
X159512000Y-78740000D02*
X158623000Y-79629000D01*
D30*
X160655000Y-58293000D02*
X160655000Y-61087000D01*
X160655000Y-61087000D02*
X160909000Y-61341000D01*
X160782000Y-54483000D02*
X160782000Y-58166000D01*
X160782000Y-58166000D02*
X160655000Y-58293000D01*
X104140000Y-60706000D02*
X100584000Y-60706000D01*
X145126000Y-66411000D02*
X149469000Y-66411000D01*
X149469000Y-66411000D02*
X149850000Y-66030000D01*
X159639000Y-60071000D02*
X160909000Y-61341000D01*
X153416000Y-60071000D02*
X159639000Y-60071000D01*
X152527000Y-60960000D02*
X153416000Y-60071000D01*
X152527000Y-63353000D02*
X152527000Y-60960000D01*
X149850000Y-66030000D02*
X152527000Y-63353000D01*
X160909000Y-61341000D02*
X160909000Y-64389000D01*
X160909000Y-64389000D02*
X162560000Y-66040000D01*
X121783000Y-57140000D02*
X124079000Y-59436000D01*
X111090000Y-57140000D02*
X121783000Y-57140000D01*
X109220000Y-97028000D02*
X109220000Y-98425000D01*
X106934000Y-94742000D02*
X109220000Y-97028000D01*
X106934000Y-65913000D02*
X106934000Y-94742000D01*
X105664000Y-64643000D02*
X106934000Y-65913000D01*
X108204000Y-61087000D02*
X108204000Y-60026000D01*
X108204000Y-60026000D02*
X111090000Y-57140000D01*
X162550000Y-66030000D02*
X162560000Y-66040000D01*
D31*
X162560000Y-71120000D02*
X162687000Y-71120000D01*
X162687000Y-71120000D02*
X165608000Y-74041000D01*
X165608000Y-74041000D02*
X165608000Y-88773000D01*
X165608000Y-88773000D02*
X166370000Y-89535000D01*
X166370000Y-89535000D02*
X168910000Y-89535000D01*
X168910000Y-89535000D02*
X170180000Y-90805000D01*
X167630000Y-50200000D02*
X170170000Y-50200000D01*
X111090000Y-67300000D02*
X110480000Y-67300000D01*
X110480000Y-67300000D02*
X106045000Y-62865000D01*
X106045000Y-62865000D02*
X106045000Y-53340000D01*
X106045000Y-53340000D02*
X107442000Y-51943000D01*
X107442000Y-51943000D02*
X117602000Y-51943000D01*
X117602000Y-51943000D02*
X119380000Y-50165000D01*
X155702000Y-54483000D02*
X147320000Y-54483000D01*
X143637000Y-57302000D02*
X145126000Y-58791000D01*
X143637000Y-55753000D02*
X143637000Y-57302000D01*
X144399000Y-54991000D02*
X143637000Y-55753000D01*
X146812000Y-54991000D02*
X144399000Y-54991000D01*
X147320000Y-54483000D02*
X146812000Y-54991000D01*
X157480000Y-50165000D02*
X157480000Y-52705000D01*
X157480000Y-52705000D02*
X155702000Y-54483000D01*
X162560000Y-98425000D02*
X162560000Y-97790000D01*
X162560000Y-97790000D02*
X164084000Y-96266000D01*
X164084000Y-96266000D02*
X164084000Y-91694000D01*
X164084000Y-91694000D02*
X162560000Y-90170000D01*
X160020000Y-50165000D02*
X160020000Y-52705000D01*
X160020000Y-52705000D02*
X158242000Y-54483000D01*
X158242000Y-54483000D02*
X158242000Y-54864000D01*
X158242000Y-54864000D02*
X156855000Y-56251000D01*
X156855000Y-56251000D02*
X145126000Y-56251000D01*
X165100000Y-98425000D02*
X165100000Y-96774000D01*
X164592000Y-89662000D02*
X162560000Y-87630000D01*
X164592000Y-96266000D02*
X164592000Y-89662000D01*
X165100000Y-96774000D02*
X164592000Y-96266000D01*
X111090000Y-59680000D02*
X111115000Y-59680000D01*
X111115000Y-59680000D02*
X113157000Y-61722000D01*
X134655000Y-70520000D02*
X137150000Y-70520000D01*
X131699000Y-67564000D02*
X134655000Y-70520000D01*
X116967000Y-67564000D02*
X131699000Y-67564000D01*
X113157000Y-63754000D02*
X116967000Y-67564000D01*
X113157000Y-61722000D02*
X113157000Y-63754000D01*
X111090000Y-64760000D02*
X112131000Y-64760000D01*
X134274000Y-73060000D02*
X137150000Y-73060000D01*
X130302000Y-69088000D02*
X134274000Y-73060000D01*
X116459000Y-69088000D02*
X130302000Y-69088000D01*
X112131000Y-64760000D02*
X116459000Y-69088000D01*
X111090000Y-62220000D02*
X111090000Y-62703000D01*
X111090000Y-62703000D02*
X116840000Y-68453000D01*
X138512000Y-71882000D02*
X139690000Y-73060000D01*
X134620000Y-71882000D02*
X138512000Y-71882000D01*
X131191000Y-68453000D02*
X134620000Y-71882000D01*
X116840000Y-68453000D02*
X131191000Y-68453000D01*
X157480000Y-98425000D02*
X157607000Y-98425000D01*
X157607000Y-98425000D02*
X159385000Y-100203000D01*
X165100000Y-76200000D02*
X162560000Y-73660000D01*
X165100000Y-95758000D02*
X165100000Y-76200000D01*
X166497000Y-97155000D02*
X165100000Y-95758000D01*
X166497000Y-99568000D02*
X166497000Y-97155000D01*
X165862000Y-100203000D02*
X166497000Y-99568000D01*
X159385000Y-100203000D02*
X165862000Y-100203000D01*
X129540000Y-50165000D02*
X129540000Y-50546000D01*
X129540000Y-50546000D02*
X130683000Y-51689000D01*
X148336000Y-58293000D02*
X158115000Y-58293000D01*
X146685000Y-59944000D02*
X148336000Y-58293000D01*
X144399000Y-59944000D02*
X146685000Y-59944000D01*
X143002000Y-58547000D02*
X144399000Y-59944000D01*
X143002000Y-56642000D02*
X143002000Y-58547000D01*
X138049000Y-51689000D02*
X143002000Y-56642000D01*
X130683000Y-51689000D02*
X138049000Y-51689000D01*
X100584000Y-53086000D02*
X101981000Y-51689000D01*
X129540000Y-49149000D02*
X129540000Y-50165000D01*
X128581998Y-48190998D02*
X129540000Y-49149000D01*
X105225002Y-48190998D02*
X128581998Y-48190998D01*
X104140000Y-49276000D02*
X105225002Y-48190998D01*
X104140000Y-51181000D02*
X104140000Y-49276000D01*
X103632000Y-51689000D02*
X104140000Y-51181000D01*
X101981000Y-51689000D02*
X103632000Y-51689000D01*
M02*
