M48
METRIC,TZ
T1C0.600
T2C0.762
T3C0.800
T4C0.900
T5C1.001
T6C1.016
T7C1.524
T8C3.048
%
G90
G05
T1
X105664Y-64643
X124079Y-59436
T2
X92700Y-50200
X95240Y-50200
X96510Y-83220
X96510Y-85760
X96510Y-88300
X99050Y-83220
X99050Y-85760
X99050Y-88300
X137150Y-70520
X137150Y-73060
X137150Y-75600
X139690Y-70520
X139690Y-73060
X139690Y-75600
X151003Y-69977
X151003Y-75057
X151130Y-86360
X151130Y-91440
X156083Y-67437
X156083Y-72517
X156083Y-77597
X156210Y-83820
X156210Y-88900
X156210Y-93980
X167630Y-50200
X170170Y-50200
T3
X97790Y-50165
X99695Y-77718
X99740Y-93238
X100330Y-50165
X101590Y-98460
X102870Y-50165
X104130Y-98460
X105410Y-50165
X106680Y-98425
X107950Y-50165
X109195Y-77718
X109220Y-98425
X109265Y-93238
X110490Y-50165
X111090Y-54600
X111090Y-57140
X111090Y-59680
X111090Y-62220
X111090Y-64760
X111090Y-67300
X111760Y-98425
X113030Y-50165
X114300Y-98425
X115570Y-50165
X116840Y-53340
X116840Y-60960
X116840Y-63500
X116840Y-71120
X116840Y-98425
X119380Y-50165
X119380Y-53340
X119380Y-60960
X119380Y-63500
X119380Y-71120
X119380Y-98425
X121920Y-50165
X121920Y-53340
X121920Y-60960
X121920Y-63500
X121920Y-71120
X124460Y-50165
X124460Y-98425
X127000Y-50165
X127000Y-98425
X127346Y-56251
X127346Y-58791
X127346Y-61331
X127346Y-63871
X129540Y-50165
X129540Y-98425
X129667Y-77470
X129667Y-82470
X132080Y-50165
X132080Y-98425
X134620Y-50165
X134620Y-98425
X137160Y-50165
X137160Y-98425
X139700Y-98425
X142240Y-50165
X142240Y-98425
X144780Y-50165
X145126Y-53711
X145126Y-56251
X145126Y-58791
X145126Y-61331
X145126Y-63871
X145126Y-66411
X147320Y-50165
X147320Y-98425
X149860Y-50165
X149860Y-98425
X152400Y-50165
X152400Y-98425
X154940Y-50165
X154940Y-98425
X157480Y-50165
X157480Y-98425
X160020Y-50165
X160020Y-98425
X162560Y-66040
X162560Y-68580
X162560Y-71120
X162560Y-73660
X162560Y-76200
X162560Y-78740
X162560Y-82550
X162560Y-85090
X162560Y-87630
X162560Y-90170
X162560Y-92710
X162560Y-95250
X162560Y-98425
X165100Y-98425
X167640Y-52705
X167640Y-55245
X167640Y-57785
X167640Y-60325
X167640Y-62865
X167640Y-65405
X167640Y-67945
X167640Y-70485
X167640Y-73025
X167640Y-75565
X167640Y-78105
X167640Y-80645
X167640Y-83185
X167640Y-85725
X167640Y-88265
X167640Y-90805
X167640Y-93345
X170180Y-52705
X170180Y-55245
X170180Y-57785
X170180Y-60325
X170180Y-62865
X170180Y-65405
X170180Y-67945
X170180Y-70485
X170180Y-73025
X170180Y-75565
X170180Y-78105
X170180Y-80645
X170180Y-83185
X170180Y-85725
X170180Y-88265
X170180Y-90805
X170180Y-93345
T4
X114300Y-88980
X114300Y-93980
X136017Y-104140
X136017Y-109140
X141478Y-104267
X141478Y-109267
X150067Y-62103
X155067Y-62103
X158496Y-62103
X163496Y-62103
T5
X100584Y-53086
X100584Y-60706
X104140Y-53086
X104140Y-60706
X108204Y-53467
X108204Y-61087
X112522Y-74803
X112522Y-82423
X115697Y-74803
X115697Y-82423
X118999Y-74803
X118999Y-82423
X121031Y-87630
X121031Y-95250
X122174Y-74803
X122174Y-82423
X124079Y-87630
X124079Y-95250
X124460Y-101600
X124460Y-109220
X127000Y-87630
X127000Y-95250
X127000Y-101600
X127000Y-109220
X129540Y-101600
X129540Y-109220
X130048Y-87630
X130048Y-95250
X133096Y-87630
X133096Y-95250
X136144Y-87630
X136144Y-95250
T6
X155702Y-54483
X158115Y-58293
X158242Y-54483
X160655Y-58293
X160782Y-54483
X163195Y-58293
X163322Y-54483
T7
X99060Y-106680
X104140Y-106680
X109220Y-106680
X114300Y-106680
X119380Y-106680
X149860Y-106680
X154940Y-106680
X160020Y-106680
X165100Y-106680
X170180Y-106680
T8
X94107Y-111252
X176022Y-111125
T0
M30
