G04 #@! TF.FileFunction,Legend,Top*
%FSLAX46Y46*%
G04 Gerber Fmt 4.6, Leading zero omitted, Abs format (unit mm)*
G04 Created by KiCad (PCBNEW 4.0.6) date Thursday, 23 November 2017 'AMt' 10:57:14*
%MOMM*%
%LPD*%
G01*
G04 APERTURE LIST*
%ADD10C,0.100000*%
%ADD11C,0.300000*%
%ADD12C,0.250000*%
%ADD13C,0.200000*%
%ADD14C,0.150000*%
G04 APERTURE END LIST*
D10*
D11*
X156511572Y-58971571D02*
X155654429Y-58971571D01*
X156083001Y-58971571D02*
X156083001Y-57471571D01*
X155940144Y-57685857D01*
X155797286Y-57828714D01*
X155654429Y-57900143D01*
D12*
X163195048Y-52141429D02*
X163956953Y-52141429D01*
X160401048Y-52141429D02*
X161162953Y-52141429D01*
X160782001Y-52522381D02*
X160782001Y-51760476D01*
X156924524Y-52474762D02*
X157067381Y-52522381D01*
X157305477Y-52522381D01*
X157400715Y-52474762D01*
X157448334Y-52427143D01*
X157495953Y-52331905D01*
X157495953Y-52236667D01*
X157448334Y-52141429D01*
X157400715Y-52093810D01*
X157305477Y-52046190D01*
X157115000Y-51998571D01*
X157019762Y-51950952D01*
X156972143Y-51903333D01*
X156924524Y-51808095D01*
X156924524Y-51712857D01*
X156972143Y-51617619D01*
X157019762Y-51570000D01*
X157115000Y-51522381D01*
X157353096Y-51522381D01*
X157495953Y-51570000D01*
X158495953Y-52427143D02*
X158448334Y-52474762D01*
X158305477Y-52522381D01*
X158210239Y-52522381D01*
X158067381Y-52474762D01*
X157972143Y-52379524D01*
X157924524Y-52284286D01*
X157876905Y-52093810D01*
X157876905Y-51950952D01*
X157924524Y-51760476D01*
X157972143Y-51665238D01*
X158067381Y-51570000D01*
X158210239Y-51522381D01*
X158305477Y-51522381D01*
X158448334Y-51570000D01*
X158495953Y-51617619D01*
X159400715Y-52522381D02*
X158924524Y-52522381D01*
X158924524Y-51522381D01*
X154106714Y-52474762D02*
X154249571Y-52522381D01*
X154487667Y-52522381D01*
X154582905Y-52474762D01*
X154630524Y-52427143D01*
X154678143Y-52331905D01*
X154678143Y-52236667D01*
X154630524Y-52141429D01*
X154582905Y-52093810D01*
X154487667Y-52046190D01*
X154297190Y-51998571D01*
X154201952Y-51950952D01*
X154154333Y-51903333D01*
X154106714Y-51808095D01*
X154106714Y-51712857D01*
X154154333Y-51617619D01*
X154201952Y-51570000D01*
X154297190Y-51522381D01*
X154535286Y-51522381D01*
X154678143Y-51570000D01*
X155106714Y-52522381D02*
X155106714Y-51522381D01*
X155344809Y-51522381D01*
X155487667Y-51570000D01*
X155582905Y-51665238D01*
X155630524Y-51760476D01*
X155678143Y-51950952D01*
X155678143Y-52093810D01*
X155630524Y-52284286D01*
X155582905Y-52379524D01*
X155487667Y-52474762D01*
X155344809Y-52522381D01*
X155106714Y-52522381D01*
X156059095Y-52236667D02*
X156535286Y-52236667D01*
X155963857Y-52522381D02*
X156297190Y-51522381D01*
X156630524Y-52522381D01*
D11*
X178034000Y-108761856D02*
X177962571Y-108833284D01*
X177748286Y-108976141D01*
X177605429Y-109047570D01*
X177391143Y-109118999D01*
X177034000Y-109190427D01*
X176748286Y-109190427D01*
X176391143Y-109118999D01*
X176176857Y-109047570D01*
X176034000Y-108976141D01*
X175819714Y-108833284D01*
X175748286Y-108761856D01*
X177391143Y-107547570D02*
X177462571Y-107690427D01*
X177462571Y-107976141D01*
X177391143Y-108118999D01*
X177319714Y-108190427D01*
X177176857Y-108261856D01*
X176748286Y-108261856D01*
X176605429Y-108190427D01*
X176534000Y-108118999D01*
X176462571Y-107976141D01*
X176462571Y-107690427D01*
X176534000Y-107547570D01*
X178034000Y-107047570D02*
X177962571Y-106976142D01*
X177748286Y-106833285D01*
X177605429Y-106761856D01*
X177391143Y-106690427D01*
X177034000Y-106618999D01*
X176748286Y-106618999D01*
X176391143Y-106690427D01*
X176176857Y-106761856D01*
X176034000Y-106833285D01*
X175819714Y-106976142D01*
X175748286Y-107047570D01*
X176105429Y-104833285D02*
X176034000Y-104761856D01*
X175962571Y-104618999D01*
X175962571Y-104261856D01*
X176034000Y-104118999D01*
X176105429Y-104047570D01*
X176248286Y-103976142D01*
X176391143Y-103976142D01*
X176605429Y-104047570D01*
X177462571Y-104904713D01*
X177462571Y-103976142D01*
X175962571Y-103047571D02*
X175962571Y-102904714D01*
X176034000Y-102761857D01*
X176105429Y-102690428D01*
X176248286Y-102618999D01*
X176534000Y-102547571D01*
X176891143Y-102547571D01*
X177176857Y-102618999D01*
X177319714Y-102690428D01*
X177391143Y-102761857D01*
X177462571Y-102904714D01*
X177462571Y-103047571D01*
X177391143Y-103190428D01*
X177319714Y-103261857D01*
X177176857Y-103333285D01*
X176891143Y-103404714D01*
X176534000Y-103404714D01*
X176248286Y-103333285D01*
X176105429Y-103261857D01*
X176034000Y-103190428D01*
X175962571Y-103047571D01*
X177462571Y-101119000D02*
X177462571Y-101976143D01*
X177462571Y-101547571D02*
X175962571Y-101547571D01*
X176176857Y-101690428D01*
X176319714Y-101833286D01*
X176391143Y-101976143D01*
X175962571Y-100619000D02*
X175962571Y-99619000D01*
X177462571Y-100261857D01*
X177462571Y-97904715D02*
X175962571Y-97904715D01*
X177462571Y-96547572D02*
X176676857Y-96547572D01*
X176534000Y-96619001D01*
X176462571Y-96761858D01*
X176462571Y-97047572D01*
X176534000Y-97190429D01*
X177391143Y-96547572D02*
X177462571Y-96690429D01*
X177462571Y-97047572D01*
X177391143Y-97190429D01*
X177248286Y-97261858D01*
X177105429Y-97261858D01*
X176962571Y-97190429D01*
X176891143Y-97047572D01*
X176891143Y-96690429D01*
X176819714Y-96547572D01*
X176462571Y-95833286D02*
X177462571Y-95833286D01*
X176605429Y-95833286D02*
X176534000Y-95761858D01*
X176462571Y-95619000D01*
X176462571Y-95404715D01*
X176534000Y-95261858D01*
X176676857Y-95190429D01*
X177462571Y-95190429D01*
X176676857Y-92833286D02*
X176748286Y-92619000D01*
X176819714Y-92547572D01*
X176962571Y-92476143D01*
X177176857Y-92476143D01*
X177319714Y-92547572D01*
X177391143Y-92619000D01*
X177462571Y-92761858D01*
X177462571Y-93333286D01*
X175962571Y-93333286D01*
X175962571Y-92833286D01*
X176034000Y-92690429D01*
X176105429Y-92619000D01*
X176248286Y-92547572D01*
X176391143Y-92547572D01*
X176534000Y-92619000D01*
X176605429Y-92690429D01*
X176676857Y-92833286D01*
X176676857Y-93333286D01*
X177462571Y-91619000D02*
X177391143Y-91761858D01*
X177319714Y-91833286D01*
X177176857Y-91904715D01*
X176748286Y-91904715D01*
X176605429Y-91833286D01*
X176534000Y-91761858D01*
X176462571Y-91619000D01*
X176462571Y-91404715D01*
X176534000Y-91261858D01*
X176605429Y-91190429D01*
X176748286Y-91119000D01*
X177176857Y-91119000D01*
X177319714Y-91190429D01*
X177391143Y-91261858D01*
X177462571Y-91404715D01*
X177462571Y-91619000D01*
X177391143Y-90547572D02*
X177462571Y-90404715D01*
X177462571Y-90119000D01*
X177391143Y-89976143D01*
X177248286Y-89904715D01*
X177176857Y-89904715D01*
X177034000Y-89976143D01*
X176962571Y-90119000D01*
X176962571Y-90333286D01*
X176891143Y-90476143D01*
X176748286Y-90547572D01*
X176676857Y-90547572D01*
X176534000Y-90476143D01*
X176462571Y-90333286D01*
X176462571Y-90119000D01*
X176534000Y-89976143D01*
X176462571Y-89476143D02*
X176462571Y-88904714D01*
X175962571Y-89261857D02*
X177248286Y-89261857D01*
X177391143Y-89190429D01*
X177462571Y-89047571D01*
X177462571Y-88904714D01*
X177462571Y-88190428D02*
X177391143Y-88333286D01*
X177319714Y-88404714D01*
X177176857Y-88476143D01*
X176748286Y-88476143D01*
X176605429Y-88404714D01*
X176534000Y-88333286D01*
X176462571Y-88190428D01*
X176462571Y-87976143D01*
X176534000Y-87833286D01*
X176605429Y-87761857D01*
X176748286Y-87690428D01*
X177176857Y-87690428D01*
X177319714Y-87761857D01*
X177391143Y-87833286D01*
X177462571Y-87976143D01*
X177462571Y-88190428D01*
X176462571Y-87047571D02*
X177462571Y-87047571D01*
X176605429Y-87047571D02*
X176534000Y-86976143D01*
X176462571Y-86833285D01*
X176462571Y-86619000D01*
X176534000Y-86476143D01*
X176676857Y-86404714D01*
X177462571Y-86404714D01*
X176462571Y-84690428D02*
X177462571Y-84333285D01*
X176462571Y-83976143D01*
X177462571Y-82619000D02*
X177462571Y-83476143D01*
X177462571Y-83047571D02*
X175962571Y-83047571D01*
X176176857Y-83190428D01*
X176319714Y-83333286D01*
X176391143Y-83476143D01*
X177319714Y-81976143D02*
X177391143Y-81904715D01*
X177462571Y-81976143D01*
X177391143Y-82047572D01*
X177319714Y-81976143D01*
X177462571Y-81976143D01*
X175962571Y-80976143D02*
X175962571Y-80833286D01*
X176034000Y-80690429D01*
X176105429Y-80619000D01*
X176248286Y-80547571D01*
X176534000Y-80476143D01*
X176891143Y-80476143D01*
X177176857Y-80547571D01*
X177319714Y-80619000D01*
X177391143Y-80690429D01*
X177462571Y-80833286D01*
X177462571Y-80976143D01*
X177391143Y-81119000D01*
X177319714Y-81190429D01*
X177176857Y-81261857D01*
X176891143Y-81333286D01*
X176534000Y-81333286D01*
X176248286Y-81261857D01*
X176105429Y-81190429D01*
X176034000Y-81119000D01*
X175962571Y-80976143D01*
X158805857Y-111827571D02*
X159163000Y-113327571D01*
X159448714Y-112256143D01*
X159734428Y-113327571D01*
X160091571Y-111827571D01*
X160663000Y-113327571D02*
X160663000Y-112327571D01*
X160663000Y-111827571D02*
X160591571Y-111899000D01*
X160663000Y-111970429D01*
X160734428Y-111899000D01*
X160663000Y-111827571D01*
X160663000Y-111970429D01*
X161377286Y-112327571D02*
X161377286Y-113327571D01*
X161377286Y-112470429D02*
X161448714Y-112399000D01*
X161591572Y-112327571D01*
X161805857Y-112327571D01*
X161948714Y-112399000D01*
X162020143Y-112541857D01*
X162020143Y-113327571D01*
X163377286Y-113327571D02*
X163377286Y-111827571D01*
X163377286Y-113256143D02*
X163234429Y-113327571D01*
X162948715Y-113327571D01*
X162805857Y-113256143D01*
X162734429Y-113184714D01*
X162663000Y-113041857D01*
X162663000Y-112613286D01*
X162734429Y-112470429D01*
X162805857Y-112399000D01*
X162948715Y-112327571D01*
X163234429Y-112327571D01*
X163377286Y-112399000D01*
X169791143Y-109922571D02*
X169934000Y-109922571D01*
X170076857Y-109994000D01*
X170148286Y-110065429D01*
X170219715Y-110208286D01*
X170291143Y-110494000D01*
X170291143Y-110851143D01*
X170219715Y-111136857D01*
X170148286Y-111279714D01*
X170076857Y-111351143D01*
X169934000Y-111422571D01*
X169791143Y-111422571D01*
X169648286Y-111351143D01*
X169576857Y-111279714D01*
X169505429Y-111136857D01*
X169434000Y-110851143D01*
X169434000Y-110494000D01*
X169505429Y-110208286D01*
X169576857Y-110065429D01*
X169648286Y-109994000D01*
X169791143Y-109922571D01*
X170791143Y-110422571D02*
X171148286Y-111422571D01*
X171505428Y-110422571D01*
X164834143Y-111422571D02*
X164834143Y-109922571D01*
X165405571Y-109922571D01*
X165548429Y-109994000D01*
X165619857Y-110065429D01*
X165691286Y-110208286D01*
X165691286Y-110422571D01*
X165619857Y-110565429D01*
X165548429Y-110636857D01*
X165405571Y-110708286D01*
X164834143Y-110708286D01*
X160357286Y-111406714D02*
X160285857Y-111478143D01*
X160071571Y-111549571D01*
X159928714Y-111549571D01*
X159714429Y-111478143D01*
X159571571Y-111335286D01*
X159500143Y-111192429D01*
X159428714Y-110906714D01*
X159428714Y-110692429D01*
X159500143Y-110406714D01*
X159571571Y-110263857D01*
X159714429Y-110121000D01*
X159928714Y-110049571D01*
X160071571Y-110049571D01*
X160285857Y-110121000D01*
X160357286Y-110192429D01*
X154130429Y-111351143D02*
X154344715Y-111422571D01*
X154701858Y-111422571D01*
X154844715Y-111351143D01*
X154916144Y-111279714D01*
X154987572Y-111136857D01*
X154987572Y-110994000D01*
X154916144Y-110851143D01*
X154844715Y-110779714D01*
X154701858Y-110708286D01*
X154416144Y-110636857D01*
X154273286Y-110565429D01*
X154201858Y-110494000D01*
X154130429Y-110351143D01*
X154130429Y-110208286D01*
X154201858Y-110065429D01*
X154273286Y-109994000D01*
X154416144Y-109922571D01*
X154773286Y-109922571D01*
X154987572Y-109994000D01*
X149145715Y-110819429D02*
X149002857Y-110748000D01*
X148931429Y-110676571D01*
X148860000Y-110533714D01*
X148860000Y-110462286D01*
X148931429Y-110319429D01*
X149002857Y-110248000D01*
X149145715Y-110176571D01*
X149431429Y-110176571D01*
X149574286Y-110248000D01*
X149645715Y-110319429D01*
X149717143Y-110462286D01*
X149717143Y-110533714D01*
X149645715Y-110676571D01*
X149574286Y-110748000D01*
X149431429Y-110819429D01*
X149145715Y-110819429D01*
X149002857Y-110890857D01*
X148931429Y-110962286D01*
X148860000Y-111105143D01*
X148860000Y-111390857D01*
X148931429Y-111533714D01*
X149002857Y-111605143D01*
X149145715Y-111676571D01*
X149431429Y-111676571D01*
X149574286Y-111605143D01*
X149645715Y-111533714D01*
X149717143Y-111390857D01*
X149717143Y-111105143D01*
X149645715Y-110962286D01*
X149574286Y-110890857D01*
X149431429Y-110819429D01*
X150217143Y-110676571D02*
X150574286Y-111676571D01*
X150931428Y-110676571D01*
X118308572Y-111478143D02*
X118522858Y-111549571D01*
X118880001Y-111549571D01*
X119022858Y-111478143D01*
X119094287Y-111406714D01*
X119165715Y-111263857D01*
X119165715Y-111121000D01*
X119094287Y-110978143D01*
X119022858Y-110906714D01*
X118880001Y-110835286D01*
X118594287Y-110763857D01*
X118451429Y-110692429D01*
X118380001Y-110621000D01*
X118308572Y-110478143D01*
X118308572Y-110335286D01*
X118380001Y-110192429D01*
X118451429Y-110121000D01*
X118594287Y-110049571D01*
X118951429Y-110049571D01*
X119165715Y-110121000D01*
X120451429Y-111478143D02*
X120308572Y-111549571D01*
X120022858Y-111549571D01*
X119880000Y-111478143D01*
X119808572Y-111406714D01*
X119737143Y-111263857D01*
X119737143Y-110835286D01*
X119808572Y-110692429D01*
X119880000Y-110621000D01*
X120022858Y-110549571D01*
X120308572Y-110549571D01*
X120451429Y-110621000D01*
X113530143Y-110176571D02*
X113673000Y-110176571D01*
X113815857Y-110248000D01*
X113887286Y-110319429D01*
X113958715Y-110462286D01*
X114030143Y-110748000D01*
X114030143Y-111105143D01*
X113958715Y-111390857D01*
X113887286Y-111533714D01*
X113815857Y-111605143D01*
X113673000Y-111676571D01*
X113530143Y-111676571D01*
X113387286Y-111605143D01*
X113315857Y-111533714D01*
X113244429Y-111390857D01*
X113173000Y-111105143D01*
X113173000Y-110748000D01*
X113244429Y-110462286D01*
X113315857Y-110319429D01*
X113387286Y-110248000D01*
X113530143Y-110176571D01*
X114530143Y-110676571D02*
X114887286Y-111676571D01*
X115244428Y-110676571D01*
X108446143Y-111549571D02*
X108446143Y-110049571D01*
X109017571Y-110049571D01*
X109160429Y-110121000D01*
X109231857Y-110192429D01*
X109303286Y-110335286D01*
X109303286Y-110549571D01*
X109231857Y-110692429D01*
X109160429Y-110763857D01*
X109017571Y-110835286D01*
X108446143Y-110835286D01*
X105346858Y-112335571D02*
X105704001Y-113835571D01*
X105989715Y-112764143D01*
X106275429Y-113835571D01*
X106632572Y-112335571D01*
X107846858Y-113835571D02*
X107846858Y-113049857D01*
X107775429Y-112907000D01*
X107632572Y-112835571D01*
X107346858Y-112835571D01*
X107204001Y-112907000D01*
X107846858Y-113764143D02*
X107704001Y-113835571D01*
X107346858Y-113835571D01*
X107204001Y-113764143D01*
X107132572Y-113621286D01*
X107132572Y-113478429D01*
X107204001Y-113335571D01*
X107346858Y-113264143D01*
X107704001Y-113264143D01*
X107846858Y-113192714D01*
X108346858Y-112835571D02*
X108918287Y-112835571D01*
X108561144Y-112335571D02*
X108561144Y-113621286D01*
X108632572Y-113764143D01*
X108775430Y-113835571D01*
X108918287Y-113835571D01*
X109989715Y-113764143D02*
X109846858Y-113835571D01*
X109561144Y-113835571D01*
X109418287Y-113764143D01*
X109346858Y-113621286D01*
X109346858Y-113049857D01*
X109418287Y-112907000D01*
X109561144Y-112835571D01*
X109846858Y-112835571D01*
X109989715Y-112907000D01*
X110061144Y-113049857D01*
X110061144Y-113192714D01*
X109346858Y-113335571D01*
X110704001Y-113835571D02*
X110704001Y-112835571D01*
X110704001Y-113121286D02*
X110775429Y-112978429D01*
X110846858Y-112907000D01*
X110989715Y-112835571D01*
X111132572Y-112835571D01*
X103584429Y-110176571D02*
X104441572Y-110176571D01*
X104013001Y-111676571D02*
X104013001Y-110176571D01*
X97964715Y-110946429D02*
X97821857Y-110875000D01*
X97750429Y-110803571D01*
X97679000Y-110660714D01*
X97679000Y-110589286D01*
X97750429Y-110446429D01*
X97821857Y-110375000D01*
X97964715Y-110303571D01*
X98250429Y-110303571D01*
X98393286Y-110375000D01*
X98464715Y-110446429D01*
X98536143Y-110589286D01*
X98536143Y-110660714D01*
X98464715Y-110803571D01*
X98393286Y-110875000D01*
X98250429Y-110946429D01*
X97964715Y-110946429D01*
X97821857Y-111017857D01*
X97750429Y-111089286D01*
X97679000Y-111232143D01*
X97679000Y-111517857D01*
X97750429Y-111660714D01*
X97821857Y-111732143D01*
X97964715Y-111803571D01*
X98250429Y-111803571D01*
X98393286Y-111732143D01*
X98464715Y-111660714D01*
X98536143Y-111517857D01*
X98536143Y-111232143D01*
X98464715Y-111089286D01*
X98393286Y-111017857D01*
X98250429Y-110946429D01*
X99036143Y-110803571D02*
X99393286Y-111803571D01*
X99750428Y-110803571D01*
X142212143Y-91376285D02*
X142283571Y-91519142D01*
X142283571Y-91804856D01*
X142212143Y-91947714D01*
X142140714Y-92019142D01*
X141997857Y-92090571D01*
X141569286Y-92090571D01*
X141426429Y-92019142D01*
X141355000Y-91947714D01*
X141283571Y-91804856D01*
X141283571Y-91519142D01*
X141355000Y-91376285D01*
X142283571Y-90090571D02*
X141497857Y-90090571D01*
X141355000Y-90162000D01*
X141283571Y-90304857D01*
X141283571Y-90590571D01*
X141355000Y-90733428D01*
X142212143Y-90090571D02*
X142283571Y-90233428D01*
X142283571Y-90590571D01*
X142212143Y-90733428D01*
X142069286Y-90804857D01*
X141926429Y-90804857D01*
X141783571Y-90733428D01*
X141712143Y-90590571D01*
X141712143Y-90233428D01*
X141640714Y-90090571D01*
X141283571Y-89376285D02*
X142283571Y-89376285D01*
X141426429Y-89376285D02*
X141355000Y-89304857D01*
X141283571Y-89161999D01*
X141283571Y-88947714D01*
X141355000Y-88804857D01*
X141497857Y-88733428D01*
X142283571Y-88733428D01*
X140783571Y-87733428D02*
X140783571Y-87590571D01*
X140855000Y-87447714D01*
X140926429Y-87376285D01*
X141069286Y-87304856D01*
X141355000Y-87233428D01*
X141712143Y-87233428D01*
X141997857Y-87304856D01*
X142140714Y-87376285D01*
X142212143Y-87447714D01*
X142283571Y-87590571D01*
X142283571Y-87733428D01*
X142212143Y-87876285D01*
X142140714Y-87947714D01*
X141997857Y-88019142D01*
X141712143Y-88090571D01*
X141355000Y-88090571D01*
X141069286Y-88019142D01*
X140926429Y-87947714D01*
X140855000Y-87876285D01*
X140783571Y-87733428D01*
X142847143Y-75374285D02*
X142918571Y-75517142D01*
X142918571Y-75802856D01*
X142847143Y-75945714D01*
X142775714Y-76017142D01*
X142632857Y-76088571D01*
X142204286Y-76088571D01*
X142061429Y-76017142D01*
X141990000Y-75945714D01*
X141918571Y-75802856D01*
X141918571Y-75517142D01*
X141990000Y-75374285D01*
X142918571Y-74088571D02*
X142132857Y-74088571D01*
X141990000Y-74160000D01*
X141918571Y-74302857D01*
X141918571Y-74588571D01*
X141990000Y-74731428D01*
X142847143Y-74088571D02*
X142918571Y-74231428D01*
X142918571Y-74588571D01*
X142847143Y-74731428D01*
X142704286Y-74802857D01*
X142561429Y-74802857D01*
X142418571Y-74731428D01*
X142347143Y-74588571D01*
X142347143Y-74231428D01*
X142275714Y-74088571D01*
X141918571Y-73374285D02*
X142918571Y-73374285D01*
X142061429Y-73374285D02*
X141990000Y-73302857D01*
X141918571Y-73159999D01*
X141918571Y-72945714D01*
X141990000Y-72802857D01*
X142132857Y-72731428D01*
X142918571Y-72731428D01*
X142918571Y-71231428D02*
X142918571Y-72088571D01*
X142918571Y-71659999D02*
X141418571Y-71659999D01*
X141632857Y-71802856D01*
X141775714Y-71945714D01*
X141847143Y-72088571D01*
X144117429Y-79220143D02*
X143974572Y-79291571D01*
X143688858Y-79291571D01*
X143546000Y-79220143D01*
X143474572Y-79148714D01*
X143403143Y-79005857D01*
X143403143Y-78577286D01*
X143474572Y-78434429D01*
X143546000Y-78363000D01*
X143688858Y-78291571D01*
X143974572Y-78291571D01*
X144117429Y-78363000D01*
X145403143Y-79291571D02*
X145403143Y-78505857D01*
X145331714Y-78363000D01*
X145188857Y-78291571D01*
X144903143Y-78291571D01*
X144760286Y-78363000D01*
X145403143Y-79220143D02*
X145260286Y-79291571D01*
X144903143Y-79291571D01*
X144760286Y-79220143D01*
X144688857Y-79077286D01*
X144688857Y-78934429D01*
X144760286Y-78791571D01*
X144903143Y-78720143D01*
X145260286Y-78720143D01*
X145403143Y-78648714D01*
X146117429Y-78291571D02*
X146117429Y-79291571D01*
X146117429Y-78434429D02*
X146188857Y-78363000D01*
X146331715Y-78291571D01*
X146546000Y-78291571D01*
X146688857Y-78363000D01*
X146760286Y-78505857D01*
X146760286Y-79291571D01*
X147474572Y-79291571D02*
X147474572Y-77791571D01*
X148117429Y-79291571D02*
X148117429Y-78505857D01*
X148046000Y-78363000D01*
X147903143Y-78291571D01*
X147688858Y-78291571D01*
X147546000Y-78363000D01*
X147474572Y-78434429D01*
X144276143Y-76553143D02*
X144133286Y-76624571D01*
X143847572Y-76624571D01*
X143704714Y-76553143D01*
X143633286Y-76481714D01*
X143561857Y-76338857D01*
X143561857Y-75910286D01*
X143633286Y-75767429D01*
X143704714Y-75696000D01*
X143847572Y-75624571D01*
X144133286Y-75624571D01*
X144276143Y-75696000D01*
X145561857Y-76624571D02*
X145561857Y-75838857D01*
X145490428Y-75696000D01*
X145347571Y-75624571D01*
X145061857Y-75624571D01*
X144919000Y-75696000D01*
X145561857Y-76553143D02*
X145419000Y-76624571D01*
X145061857Y-76624571D01*
X144919000Y-76553143D01*
X144847571Y-76410286D01*
X144847571Y-76267429D01*
X144919000Y-76124571D01*
X145061857Y-76053143D01*
X145419000Y-76053143D01*
X145561857Y-75981714D01*
X146276143Y-75624571D02*
X146276143Y-76624571D01*
X146276143Y-75767429D02*
X146347571Y-75696000D01*
X146490429Y-75624571D01*
X146704714Y-75624571D01*
X146847571Y-75696000D01*
X146919000Y-75838857D01*
X146919000Y-76624571D01*
X147847572Y-76624571D02*
X147704714Y-76553143D01*
X147633286Y-76410286D01*
X147633286Y-75124571D01*
X144645143Y-72838571D02*
X144788000Y-72838571D01*
X144930857Y-72910000D01*
X145002286Y-72981429D01*
X145073715Y-73124286D01*
X145145143Y-73410000D01*
X145145143Y-73767143D01*
X145073715Y-74052857D01*
X145002286Y-74195714D01*
X144930857Y-74267143D01*
X144788000Y-74338571D01*
X144645143Y-74338571D01*
X144502286Y-74267143D01*
X144430857Y-74195714D01*
X144359429Y-74052857D01*
X144288000Y-73767143D01*
X144288000Y-73410000D01*
X144359429Y-73124286D01*
X144430857Y-72981429D01*
X144502286Y-72910000D01*
X144645143Y-72838571D01*
X145645143Y-73338571D02*
X146002286Y-74338571D01*
X146359428Y-73338571D01*
X144938858Y-71417571D02*
X144081715Y-71417571D01*
X144510287Y-71417571D02*
X144510287Y-69917571D01*
X144367430Y-70131857D01*
X144224572Y-70274714D01*
X144081715Y-70346143D01*
X145510286Y-70060429D02*
X145581715Y-69989000D01*
X145724572Y-69917571D01*
X146081715Y-69917571D01*
X146224572Y-69989000D01*
X146296001Y-70060429D01*
X146367429Y-70203286D01*
X146367429Y-70346143D01*
X146296001Y-70560429D01*
X145438858Y-71417571D01*
X146367429Y-71417571D01*
X146867429Y-70417571D02*
X147224572Y-71417571D01*
X147581714Y-70417571D01*
X144026143Y-68806143D02*
X144169000Y-68877571D01*
X144454715Y-68877571D01*
X144597572Y-68806143D01*
X144669000Y-68663286D01*
X144669000Y-68591857D01*
X144597572Y-68449000D01*
X144454715Y-68377571D01*
X144240429Y-68377571D01*
X144097572Y-68306143D01*
X144026143Y-68163286D01*
X144026143Y-68091857D01*
X144097572Y-67949000D01*
X144240429Y-67877571D01*
X144454715Y-67877571D01*
X144597572Y-67949000D01*
X145954715Y-68806143D02*
X145811858Y-68877571D01*
X145526144Y-68877571D01*
X145383286Y-68806143D01*
X145311858Y-68734714D01*
X145240429Y-68591857D01*
X145240429Y-68163286D01*
X145311858Y-68020429D01*
X145383286Y-67949000D01*
X145526144Y-67877571D01*
X145811858Y-67877571D01*
X145954715Y-67949000D01*
X146597572Y-67877571D02*
X146597572Y-68877571D01*
X146597572Y-68020429D02*
X146669000Y-67949000D01*
X146811858Y-67877571D01*
X147026143Y-67877571D01*
X147169000Y-67949000D01*
X147240429Y-68091857D01*
X147240429Y-68877571D01*
X143518143Y-84427143D02*
X143661000Y-84498571D01*
X143946715Y-84498571D01*
X144089572Y-84427143D01*
X144161000Y-84284286D01*
X144161000Y-84212857D01*
X144089572Y-84070000D01*
X143946715Y-83998571D01*
X143732429Y-83998571D01*
X143589572Y-83927143D01*
X143518143Y-83784286D01*
X143518143Y-83712857D01*
X143589572Y-83570000D01*
X143732429Y-83498571D01*
X143946715Y-83498571D01*
X144089572Y-83570000D01*
X145446715Y-84427143D02*
X145303858Y-84498571D01*
X145018144Y-84498571D01*
X144875286Y-84427143D01*
X144803858Y-84355714D01*
X144732429Y-84212857D01*
X144732429Y-83784286D01*
X144803858Y-83641429D01*
X144875286Y-83570000D01*
X145018144Y-83498571D01*
X145303858Y-83498571D01*
X145446715Y-83570000D01*
X146089572Y-83498571D02*
X146089572Y-84498571D01*
X146089572Y-83641429D02*
X146161000Y-83570000D01*
X146303858Y-83498571D01*
X146518143Y-83498571D01*
X146661000Y-83570000D01*
X146732429Y-83712857D01*
X146732429Y-84498571D01*
X144430858Y-87038571D02*
X143573715Y-87038571D01*
X144002287Y-87038571D02*
X144002287Y-85538571D01*
X143859430Y-85752857D01*
X143716572Y-85895714D01*
X143573715Y-85967143D01*
X145002286Y-85681429D02*
X145073715Y-85610000D01*
X145216572Y-85538571D01*
X145573715Y-85538571D01*
X145716572Y-85610000D01*
X145788001Y-85681429D01*
X145859429Y-85824286D01*
X145859429Y-85967143D01*
X145788001Y-86181429D01*
X144930858Y-87038571D01*
X145859429Y-87038571D01*
X146359429Y-86038571D02*
X146716572Y-87038571D01*
X147073714Y-86038571D01*
X144010143Y-88332571D02*
X144153000Y-88332571D01*
X144295857Y-88404000D01*
X144367286Y-88475429D01*
X144438715Y-88618286D01*
X144510143Y-88904000D01*
X144510143Y-89261143D01*
X144438715Y-89546857D01*
X144367286Y-89689714D01*
X144295857Y-89761143D01*
X144153000Y-89832571D01*
X144010143Y-89832571D01*
X143867286Y-89761143D01*
X143795857Y-89689714D01*
X143724429Y-89546857D01*
X143653000Y-89261143D01*
X143653000Y-88904000D01*
X143724429Y-88618286D01*
X143795857Y-88475429D01*
X143867286Y-88404000D01*
X144010143Y-88332571D01*
X145010143Y-88832571D02*
X145367286Y-89832571D01*
X145724428Y-88832571D01*
X144149143Y-92047143D02*
X144006286Y-92118571D01*
X143720572Y-92118571D01*
X143577714Y-92047143D01*
X143506286Y-91975714D01*
X143434857Y-91832857D01*
X143434857Y-91404286D01*
X143506286Y-91261429D01*
X143577714Y-91190000D01*
X143720572Y-91118571D01*
X144006286Y-91118571D01*
X144149143Y-91190000D01*
X145434857Y-92118571D02*
X145434857Y-91332857D01*
X145363428Y-91190000D01*
X145220571Y-91118571D01*
X144934857Y-91118571D01*
X144792000Y-91190000D01*
X145434857Y-92047143D02*
X145292000Y-92118571D01*
X144934857Y-92118571D01*
X144792000Y-92047143D01*
X144720571Y-91904286D01*
X144720571Y-91761429D01*
X144792000Y-91618571D01*
X144934857Y-91547143D01*
X145292000Y-91547143D01*
X145434857Y-91475714D01*
X146149143Y-91118571D02*
X146149143Y-92118571D01*
X146149143Y-91261429D02*
X146220571Y-91190000D01*
X146363429Y-91118571D01*
X146577714Y-91118571D01*
X146720571Y-91190000D01*
X146792000Y-91332857D01*
X146792000Y-92118571D01*
X147720572Y-92118571D02*
X147577714Y-92047143D01*
X147506286Y-91904286D01*
X147506286Y-90618571D01*
X143990429Y-94968143D02*
X143847572Y-95039571D01*
X143561858Y-95039571D01*
X143419000Y-94968143D01*
X143347572Y-94896714D01*
X143276143Y-94753857D01*
X143276143Y-94325286D01*
X143347572Y-94182429D01*
X143419000Y-94111000D01*
X143561858Y-94039571D01*
X143847572Y-94039571D01*
X143990429Y-94111000D01*
X145276143Y-95039571D02*
X145276143Y-94253857D01*
X145204714Y-94111000D01*
X145061857Y-94039571D01*
X144776143Y-94039571D01*
X144633286Y-94111000D01*
X145276143Y-94968143D02*
X145133286Y-95039571D01*
X144776143Y-95039571D01*
X144633286Y-94968143D01*
X144561857Y-94825286D01*
X144561857Y-94682429D01*
X144633286Y-94539571D01*
X144776143Y-94468143D01*
X145133286Y-94468143D01*
X145276143Y-94396714D01*
X145990429Y-94039571D02*
X145990429Y-95039571D01*
X145990429Y-94182429D02*
X146061857Y-94111000D01*
X146204715Y-94039571D01*
X146419000Y-94039571D01*
X146561857Y-94111000D01*
X146633286Y-94253857D01*
X146633286Y-95039571D01*
X147347572Y-95039571D02*
X147347572Y-93539571D01*
X147990429Y-95039571D02*
X147990429Y-94253857D01*
X147919000Y-94111000D01*
X147776143Y-94039571D01*
X147561858Y-94039571D01*
X147419000Y-94111000D01*
X147347572Y-94182429D01*
D13*
X174000000Y-46000000D02*
X174000000Y-113000000D01*
X96000000Y-46000000D02*
X96000000Y-114000000D01*
D14*
X134666000Y-80045000D02*
X124668000Y-80045000D01*
X134662000Y-80185000D02*
X124672000Y-80185000D01*
X134654000Y-80325000D02*
X124680000Y-80325000D01*
X134642000Y-80465000D02*
X124692000Y-80465000D01*
X134627000Y-80605000D02*
X124707000Y-80605000D01*
X134607000Y-80745000D02*
X124727000Y-80745000D01*
X134583000Y-80885000D02*
X124751000Y-80885000D01*
X134554000Y-81025000D02*
X124780000Y-81025000D01*
X134522000Y-81165000D02*
X124812000Y-81165000D01*
X134485000Y-81305000D02*
X124849000Y-81305000D01*
X134444000Y-81445000D02*
X124890000Y-81445000D01*
X134399000Y-81585000D02*
X130133000Y-81585000D01*
X129201000Y-81585000D02*
X124935000Y-81585000D01*
X134349000Y-81725000D02*
X130334000Y-81725000D01*
X129000000Y-81725000D02*
X124985000Y-81725000D01*
X134294000Y-81865000D02*
X130463000Y-81865000D01*
X128871000Y-81865000D02*
X125040000Y-81865000D01*
X134234000Y-82005000D02*
X130552000Y-82005000D01*
X128782000Y-82005000D02*
X125100000Y-82005000D01*
X134169000Y-82145000D02*
X130613000Y-82145000D01*
X128721000Y-82145000D02*
X125165000Y-82145000D01*
X134099000Y-82285000D02*
X130650000Y-82285000D01*
X128684000Y-82285000D02*
X125235000Y-82285000D01*
X134023000Y-82425000D02*
X130666000Y-82425000D01*
X128668000Y-82425000D02*
X125311000Y-82425000D01*
X133941000Y-82565000D02*
X130662000Y-82565000D01*
X128672000Y-82565000D02*
X125393000Y-82565000D01*
X133853000Y-82705000D02*
X130639000Y-82705000D01*
X128695000Y-82705000D02*
X125481000Y-82705000D01*
X133758000Y-82845000D02*
X130594000Y-82845000D01*
X128740000Y-82845000D02*
X125576000Y-82845000D01*
X133656000Y-82985000D02*
X130524000Y-82985000D01*
X128810000Y-82985000D02*
X125678000Y-82985000D01*
X133546000Y-83125000D02*
X130423000Y-83125000D01*
X128911000Y-83125000D02*
X125788000Y-83125000D01*
X133428000Y-83265000D02*
X130274000Y-83265000D01*
X129060000Y-83265000D02*
X125906000Y-83265000D01*
X133300000Y-83405000D02*
X130022000Y-83405000D01*
X129312000Y-83405000D02*
X126034000Y-83405000D01*
X133163000Y-83545000D02*
X126171000Y-83545000D01*
X133013000Y-83685000D02*
X126321000Y-83685000D01*
X132851000Y-83825000D02*
X126483000Y-83825000D01*
X132674000Y-83965000D02*
X126660000Y-83965000D01*
X132478000Y-84105000D02*
X126856000Y-84105000D01*
X132260000Y-84245000D02*
X127074000Y-84245000D01*
X132014000Y-84385000D02*
X127320000Y-84385000D01*
X131729000Y-84525000D02*
X127605000Y-84525000D01*
X131387000Y-84665000D02*
X127947000Y-84665000D01*
X130941000Y-84805000D02*
X128393000Y-84805000D01*
X130166000Y-84945000D02*
X129168000Y-84945000D01*
X130667000Y-82470000D02*
G75*
G03X130667000Y-82470000I-1000000J0D01*
G01*
X134704500Y-79970000D02*
G75*
G03X134704500Y-79970000I-5037500J0D01*
G01*
X112050000Y-95230000D02*
X112050000Y-87730000D01*
X112050000Y-87730000D02*
X116550000Y-87730000D01*
X116550000Y-87730000D02*
X116550000Y-95230000D01*
X116550000Y-95230000D02*
X112050000Y-95230000D01*
X157246000Y-59853000D02*
X164746000Y-59853000D01*
X164746000Y-59853000D02*
X164746000Y-64353000D01*
X164746000Y-64353000D02*
X157246000Y-64353000D01*
X157246000Y-64353000D02*
X157246000Y-59853000D01*
X156317000Y-64353000D02*
X148817000Y-64353000D01*
X148817000Y-64353000D02*
X148817000Y-59853000D01*
X148817000Y-59853000D02*
X156317000Y-59853000D01*
X156317000Y-59853000D02*
X156317000Y-64353000D01*
X114545000Y-70985000D02*
X115815000Y-70985000D01*
X114545000Y-63635000D02*
X115815000Y-63635000D01*
X124215000Y-63635000D02*
X122945000Y-63635000D01*
X124215000Y-70985000D02*
X122945000Y-70985000D01*
X114545000Y-70985000D02*
X114545000Y-63635000D01*
X124215000Y-70985000D02*
X124215000Y-63635000D01*
X115815000Y-70985000D02*
X115815000Y-71920000D01*
X114545000Y-60825000D02*
X115815000Y-60825000D01*
X114545000Y-53475000D02*
X115815000Y-53475000D01*
X124215000Y-53475000D02*
X122945000Y-53475000D01*
X124215000Y-60825000D02*
X122945000Y-60825000D01*
X114545000Y-60825000D02*
X114545000Y-53475000D01*
X124215000Y-60825000D02*
X124215000Y-53475000D01*
X115815000Y-60825000D02*
X115815000Y-61760000D01*
X147320000Y-110490000D02*
X172720000Y-110490000D01*
X147320000Y-109220000D02*
X172720000Y-109220000D01*
X147320000Y-102870000D02*
X172720000Y-102870000D01*
X172720000Y-102870000D02*
X172720000Y-110490000D01*
X147320000Y-102870000D02*
X147320000Y-110490000D01*
X96520000Y-110490000D02*
X121920000Y-110490000D01*
X96520000Y-109220000D02*
X121920000Y-109220000D01*
X96520000Y-102870000D02*
X121920000Y-102870000D01*
X121920000Y-102870000D02*
X121920000Y-110490000D01*
X96520000Y-102870000D02*
X96520000Y-110490000D01*
X158750000Y-96520000D02*
X160020000Y-96520000D01*
X158750000Y-81280000D02*
X160020000Y-81280000D01*
X148590000Y-96520000D02*
X158750000Y-96520000D01*
X148590000Y-81280000D02*
X148590000Y-96520000D01*
X158750000Y-81280000D02*
X148590000Y-81280000D01*
X160020000Y-96520000D02*
X160020000Y-81280000D01*
X158623000Y-80137000D02*
X159893000Y-80137000D01*
X158623000Y-64897000D02*
X159893000Y-64897000D01*
X148463000Y-80137000D02*
X158623000Y-80137000D01*
X148463000Y-64897000D02*
X148463000Y-80137000D01*
X158623000Y-64897000D02*
X148463000Y-64897000D01*
X159893000Y-80137000D02*
X159893000Y-64897000D01*
X130810000Y-102870000D02*
X130810000Y-107950000D01*
X130810000Y-107950000D02*
X128270000Y-107950000D01*
X128270000Y-107950000D02*
X128270000Y-102870000D01*
X128270000Y-102870000D02*
X130810000Y-102870000D01*
X134366000Y-88900000D02*
X134366000Y-93980000D01*
X134366000Y-93980000D02*
X131826000Y-93980000D01*
X131826000Y-93980000D02*
X131826000Y-88900000D01*
X131826000Y-88900000D02*
X134366000Y-88900000D01*
X128270000Y-102870000D02*
X128270000Y-107950000D01*
X128270000Y-107950000D02*
X125730000Y-107950000D01*
X125730000Y-107950000D02*
X125730000Y-102870000D01*
X125730000Y-102870000D02*
X128270000Y-102870000D01*
X128270000Y-88900000D02*
X128270000Y-93980000D01*
X128270000Y-93980000D02*
X125730000Y-93980000D01*
X125730000Y-93980000D02*
X125730000Y-88900000D01*
X125730000Y-88900000D02*
X128270000Y-88900000D01*
X125730000Y-102870000D02*
X125730000Y-107950000D01*
X125730000Y-107950000D02*
X123190000Y-107950000D01*
X123190000Y-107950000D02*
X123190000Y-102870000D01*
X123190000Y-102870000D02*
X125730000Y-102870000D01*
X125349000Y-88900000D02*
X125349000Y-93980000D01*
X125349000Y-93980000D02*
X122809000Y-93980000D01*
X122809000Y-93980000D02*
X122809000Y-88900000D01*
X122809000Y-88900000D02*
X125349000Y-88900000D01*
X120269000Y-76073000D02*
X120269000Y-81153000D01*
X120269000Y-81153000D02*
X117729000Y-81153000D01*
X117729000Y-81153000D02*
X117729000Y-76073000D01*
X117729000Y-76073000D02*
X120269000Y-76073000D01*
X116967000Y-76073000D02*
X116967000Y-81153000D01*
X116967000Y-81153000D02*
X114427000Y-81153000D01*
X114427000Y-81153000D02*
X114427000Y-76073000D01*
X114427000Y-76073000D02*
X116967000Y-76073000D01*
X102870000Y-59436000D02*
X102870000Y-54356000D01*
X102870000Y-54356000D02*
X105410000Y-54356000D01*
X105410000Y-54356000D02*
X105410000Y-59436000D01*
X105410000Y-59436000D02*
X102870000Y-59436000D01*
X106934000Y-59817000D02*
X106934000Y-54737000D01*
X106934000Y-54737000D02*
X109474000Y-54737000D01*
X109474000Y-54737000D02*
X109474000Y-59817000D01*
X109474000Y-59817000D02*
X106934000Y-59817000D01*
X113630000Y-46980000D02*
X113630000Y-74920000D01*
X113630000Y-74920000D02*
X71720000Y-74920000D01*
X71720000Y-74920000D02*
X71720000Y-46980000D01*
X71720000Y-46980000D02*
X113630000Y-46980000D01*
X160690000Y-96530000D02*
X175930000Y-96530000D01*
X175930000Y-81290000D02*
X160690000Y-81290000D01*
X160910000Y-96350000D02*
X160910000Y-81450000D01*
X175640000Y-81450000D02*
X175640000Y-96350000D01*
X160690000Y-80020000D02*
X175930000Y-80020000D01*
X175930000Y-64780000D02*
X160690000Y-64780000D01*
X160910000Y-79840000D02*
X160910000Y-64940000D01*
X175640000Y-64940000D02*
X175640000Y-79840000D01*
X137414000Y-88900000D02*
X137414000Y-93980000D01*
X137414000Y-93980000D02*
X134874000Y-93980000D01*
X134874000Y-93980000D02*
X134874000Y-88900000D01*
X134874000Y-88900000D02*
X137414000Y-88900000D01*
X131318000Y-88900000D02*
X131318000Y-93980000D01*
X131318000Y-93980000D02*
X128778000Y-93980000D01*
X128778000Y-93980000D02*
X128778000Y-88900000D01*
X128778000Y-88900000D02*
X131318000Y-88900000D01*
X122301000Y-88900000D02*
X122301000Y-93980000D01*
X122301000Y-93980000D02*
X119761000Y-93980000D01*
X119761000Y-93980000D02*
X119761000Y-88900000D01*
X119761000Y-88900000D02*
X122301000Y-88900000D01*
X143728000Y-103017000D02*
X143728000Y-110517000D01*
X143728000Y-110517000D02*
X139228000Y-110517000D01*
X139228000Y-110517000D02*
X139228000Y-103017000D01*
X139228000Y-103017000D02*
X143728000Y-103017000D01*
X138267000Y-102890000D02*
X138267000Y-110390000D01*
X138267000Y-110390000D02*
X133767000Y-110390000D01*
X133767000Y-110390000D02*
X133767000Y-102890000D01*
X133767000Y-102890000D02*
X138267000Y-102890000D01*
X123444000Y-76073000D02*
X123444000Y-81153000D01*
X123444000Y-81153000D02*
X120904000Y-81153000D01*
X120904000Y-81153000D02*
X120904000Y-76073000D01*
X120904000Y-76073000D02*
X123444000Y-76073000D01*
X113792000Y-76073000D02*
X113792000Y-81153000D01*
X113792000Y-81153000D02*
X111252000Y-81153000D01*
X111252000Y-81153000D02*
X111252000Y-76073000D01*
X111252000Y-76073000D02*
X113792000Y-76073000D01*
X96393000Y-111252000D02*
G75*
G03X96393000Y-111252000I-2286000J0D01*
G01*
X178308000Y-111125000D02*
G75*
G03X178308000Y-111125000I-2286000J0D01*
G01*
X97835000Y-76228000D02*
X110535000Y-76228000D01*
X110535000Y-75728000D02*
X110535000Y-94778000D01*
X111035000Y-94778000D02*
X98335000Y-94778000D01*
X98335000Y-94778000D02*
X98335000Y-75728000D01*
X146688100Y-47475300D02*
X146688100Y-72875300D01*
X148377200Y-73672100D02*
X125517200Y-73672100D01*
X125542600Y-72761000D02*
X125542600Y-47361000D01*
X125529900Y-46399100D02*
X148389900Y-46399100D01*
X94580000Y-103424999D02*
X164500000Y-103425000D01*
X174660000Y-103425000D02*
X174660000Y-46435001D01*
X164500000Y-46435001D02*
X94580000Y-46435000D01*
X69180000Y-46435000D02*
X69180000Y-65431667D01*
X69180000Y-65431667D02*
X69630000Y-65431667D01*
X69630000Y-65431667D02*
X69630000Y-84428333D01*
X69630000Y-84428333D02*
X69180000Y-84428333D01*
X69180000Y-84428333D02*
X69180000Y-103424999D01*
X159385000Y-59563000D02*
X164465000Y-59563000D01*
X164465000Y-59563000D02*
X164465000Y-57023000D01*
X164465000Y-57023000D02*
X159385000Y-57023000D01*
X156565000Y-56743000D02*
X158115000Y-56743000D01*
X159385000Y-57023000D02*
X159385000Y-59563000D01*
X158115000Y-59843000D02*
X156565000Y-59843000D01*
X156565000Y-59843000D02*
X156565000Y-56743000D01*
X156972000Y-55753000D02*
X164592000Y-55753000D01*
X156972000Y-53213000D02*
X164592000Y-53213000D01*
X154152000Y-52933000D02*
X155702000Y-52933000D01*
X164592000Y-55753000D02*
X164592000Y-53213000D01*
X156972000Y-53213000D02*
X156972000Y-55753000D01*
X155702000Y-56033000D02*
X154152000Y-56033000D01*
X154152000Y-56033000D02*
X154152000Y-52933000D01*
X101854000Y-54356000D02*
X101854000Y-59436000D01*
X101854000Y-59436000D02*
X99314000Y-59436000D01*
X99314000Y-59436000D02*
X99314000Y-54356000D01*
X99314000Y-54356000D02*
X101854000Y-54356000D01*
X132437143Y-78652666D02*
X132484762Y-78700285D01*
X132532381Y-78843142D01*
X132532381Y-78938380D01*
X132484762Y-79081238D01*
X132389524Y-79176476D01*
X132294286Y-79224095D01*
X132103810Y-79271714D01*
X131960952Y-79271714D01*
X131770476Y-79224095D01*
X131675238Y-79176476D01*
X131580000Y-79081238D01*
X131532381Y-78938380D01*
X131532381Y-78843142D01*
X131580000Y-78700285D01*
X131627619Y-78652666D01*
X132532381Y-77700285D02*
X132532381Y-78271714D01*
X132532381Y-77986000D02*
X131532381Y-77986000D01*
X131675238Y-78081238D01*
X131770476Y-78176476D01*
X131818095Y-78271714D01*
X113641143Y-91479666D02*
X113688762Y-91527285D01*
X113736381Y-91670142D01*
X113736381Y-91765380D01*
X113688762Y-91908238D01*
X113593524Y-92003476D01*
X113498286Y-92051095D01*
X113307810Y-92098714D01*
X113164952Y-92098714D01*
X112974476Y-92051095D01*
X112879238Y-92003476D01*
X112784000Y-91908238D01*
X112736381Y-91765380D01*
X112736381Y-91670142D01*
X112784000Y-91527285D01*
X112831619Y-91479666D01*
X112831619Y-91098714D02*
X112784000Y-91051095D01*
X112736381Y-90955857D01*
X112736381Y-90717761D01*
X112784000Y-90622523D01*
X112831619Y-90574904D01*
X112926857Y-90527285D01*
X113022095Y-90527285D01*
X113164952Y-90574904D01*
X113736381Y-91146333D01*
X113736381Y-90527285D01*
X160869334Y-62206143D02*
X160821715Y-62253762D01*
X160678858Y-62301381D01*
X160583620Y-62301381D01*
X160440762Y-62253762D01*
X160345524Y-62158524D01*
X160297905Y-62063286D01*
X160250286Y-61872810D01*
X160250286Y-61729952D01*
X160297905Y-61539476D01*
X160345524Y-61444238D01*
X160440762Y-61349000D01*
X160583620Y-61301381D01*
X160678858Y-61301381D01*
X160821715Y-61349000D01*
X160869334Y-61396619D01*
X161202667Y-61301381D02*
X161821715Y-61301381D01*
X161488381Y-61682333D01*
X161631239Y-61682333D01*
X161726477Y-61729952D01*
X161774096Y-61777571D01*
X161821715Y-61872810D01*
X161821715Y-62110905D01*
X161774096Y-62206143D01*
X161726477Y-62253762D01*
X161631239Y-62301381D01*
X161345524Y-62301381D01*
X161250286Y-62253762D01*
X161202667Y-62206143D01*
X152233334Y-62714143D02*
X152185715Y-62761762D01*
X152042858Y-62809381D01*
X151947620Y-62809381D01*
X151804762Y-62761762D01*
X151709524Y-62666524D01*
X151661905Y-62571286D01*
X151614286Y-62380810D01*
X151614286Y-62237952D01*
X151661905Y-62047476D01*
X151709524Y-61952238D01*
X151804762Y-61857000D01*
X151947620Y-61809381D01*
X152042858Y-61809381D01*
X152185715Y-61857000D01*
X152233334Y-61904619D01*
X153090477Y-62142714D02*
X153090477Y-62809381D01*
X152852381Y-61761762D02*
X152614286Y-62476048D01*
X153233334Y-62476048D01*
X116911381Y-68159190D02*
X115911381Y-68159190D01*
X116816143Y-67111571D02*
X116863762Y-67159190D01*
X116911381Y-67302047D01*
X116911381Y-67397285D01*
X116863762Y-67540143D01*
X116768524Y-67635381D01*
X116673286Y-67683000D01*
X116482810Y-67730619D01*
X116339952Y-67730619D01*
X116149476Y-67683000D01*
X116054238Y-67635381D01*
X115959000Y-67540143D01*
X115911381Y-67397285D01*
X115911381Y-67302047D01*
X115959000Y-67159190D01*
X116006619Y-67111571D01*
X116911381Y-66159190D02*
X116911381Y-66730619D01*
X116911381Y-66444905D02*
X115911381Y-66444905D01*
X116054238Y-66540143D01*
X116149476Y-66635381D01*
X116197095Y-66730619D01*
X117038381Y-58380190D02*
X116038381Y-58380190D01*
X116943143Y-57332571D02*
X116990762Y-57380190D01*
X117038381Y-57523047D01*
X117038381Y-57618285D01*
X116990762Y-57761143D01*
X116895524Y-57856381D01*
X116800286Y-57904000D01*
X116609810Y-57951619D01*
X116466952Y-57951619D01*
X116276476Y-57904000D01*
X116181238Y-57856381D01*
X116086000Y-57761143D01*
X116038381Y-57618285D01*
X116038381Y-57523047D01*
X116086000Y-57380190D01*
X116133619Y-57332571D01*
X116133619Y-56951619D02*
X116086000Y-56904000D01*
X116038381Y-56808762D01*
X116038381Y-56570666D01*
X116086000Y-56475428D01*
X116133619Y-56427809D01*
X116228857Y-56380190D01*
X116324095Y-56380190D01*
X116466952Y-56427809D01*
X117038381Y-56999238D01*
X117038381Y-56380190D01*
X159281905Y-102052381D02*
X159281905Y-101052381D01*
X159662858Y-101052381D01*
X159758096Y-101100000D01*
X159805715Y-101147619D01*
X159853334Y-101242857D01*
X159853334Y-101385714D01*
X159805715Y-101480952D01*
X159758096Y-101528571D01*
X159662858Y-101576190D01*
X159281905Y-101576190D01*
X160805715Y-102052381D02*
X160234286Y-102052381D01*
X160520000Y-102052381D02*
X160520000Y-101052381D01*
X160424762Y-101195238D01*
X160329524Y-101290476D01*
X160234286Y-101338095D01*
X108481905Y-102052381D02*
X108481905Y-101052381D01*
X108862858Y-101052381D01*
X108958096Y-101100000D01*
X109005715Y-101147619D01*
X109053334Y-101242857D01*
X109053334Y-101385714D01*
X109005715Y-101480952D01*
X108958096Y-101528571D01*
X108862858Y-101576190D01*
X108481905Y-101576190D01*
X109434286Y-101147619D02*
X109481905Y-101100000D01*
X109577143Y-101052381D01*
X109815239Y-101052381D01*
X109910477Y-101100000D01*
X109958096Y-101147619D01*
X110005715Y-101242857D01*
X110005715Y-101338095D01*
X109958096Y-101480952D01*
X109386667Y-102052381D01*
X110005715Y-102052381D01*
X149542381Y-87098095D02*
X148542381Y-87098095D01*
X148542381Y-86717142D01*
X148590000Y-86621904D01*
X148637619Y-86574285D01*
X148732857Y-86526666D01*
X148875714Y-86526666D01*
X148970952Y-86574285D01*
X149018571Y-86621904D01*
X149066190Y-86717142D01*
X149066190Y-87098095D01*
X148542381Y-86193333D02*
X148542381Y-85574285D01*
X148923333Y-85907619D01*
X148923333Y-85764761D01*
X148970952Y-85669523D01*
X149018571Y-85621904D01*
X149113810Y-85574285D01*
X149351905Y-85574285D01*
X149447143Y-85621904D01*
X149494762Y-85669523D01*
X149542381Y-85764761D01*
X149542381Y-86050476D01*
X149494762Y-86145714D01*
X149447143Y-86193333D01*
X149415381Y-70715095D02*
X148415381Y-70715095D01*
X148415381Y-70334142D01*
X148463000Y-70238904D01*
X148510619Y-70191285D01*
X148605857Y-70143666D01*
X148748714Y-70143666D01*
X148843952Y-70191285D01*
X148891571Y-70238904D01*
X148939190Y-70334142D01*
X148939190Y-70715095D01*
X148748714Y-69286523D02*
X149415381Y-69286523D01*
X148367762Y-69524619D02*
X149082048Y-69762714D01*
X149082048Y-69143666D01*
X130246381Y-107100666D02*
X129770190Y-107434000D01*
X130246381Y-107672095D02*
X129246381Y-107672095D01*
X129246381Y-107291142D01*
X129294000Y-107195904D01*
X129341619Y-107148285D01*
X129436857Y-107100666D01*
X129579714Y-107100666D01*
X129674952Y-107148285D01*
X129722571Y-107195904D01*
X129770190Y-107291142D01*
X129770190Y-107672095D01*
X130246381Y-106148285D02*
X130246381Y-106719714D01*
X130246381Y-106434000D02*
X129246381Y-106434000D01*
X129389238Y-106529238D01*
X129484476Y-106624476D01*
X129532095Y-106719714D01*
X133929381Y-93130666D02*
X133453190Y-93464000D01*
X133929381Y-93702095D02*
X132929381Y-93702095D01*
X132929381Y-93321142D01*
X132977000Y-93225904D01*
X133024619Y-93178285D01*
X133119857Y-93130666D01*
X133262714Y-93130666D01*
X133357952Y-93178285D01*
X133405571Y-93225904D01*
X133453190Y-93321142D01*
X133453190Y-93702095D01*
X133024619Y-92749714D02*
X132977000Y-92702095D01*
X132929381Y-92606857D01*
X132929381Y-92368761D01*
X132977000Y-92273523D01*
X133024619Y-92225904D01*
X133119857Y-92178285D01*
X133215095Y-92178285D01*
X133357952Y-92225904D01*
X133929381Y-92797333D01*
X133929381Y-92178285D01*
X127452381Y-107100666D02*
X126976190Y-107434000D01*
X127452381Y-107672095D02*
X126452381Y-107672095D01*
X126452381Y-107291142D01*
X126500000Y-107195904D01*
X126547619Y-107148285D01*
X126642857Y-107100666D01*
X126785714Y-107100666D01*
X126880952Y-107148285D01*
X126928571Y-107195904D01*
X126976190Y-107291142D01*
X126976190Y-107672095D01*
X126452381Y-106767333D02*
X126452381Y-106148285D01*
X126833333Y-106481619D01*
X126833333Y-106338761D01*
X126880952Y-106243523D01*
X126928571Y-106195904D01*
X127023810Y-106148285D01*
X127261905Y-106148285D01*
X127357143Y-106195904D01*
X127404762Y-106243523D01*
X127452381Y-106338761D01*
X127452381Y-106624476D01*
X127404762Y-106719714D01*
X127357143Y-106767333D01*
X127452381Y-93003666D02*
X126976190Y-93337000D01*
X127452381Y-93575095D02*
X126452381Y-93575095D01*
X126452381Y-93194142D01*
X126500000Y-93098904D01*
X126547619Y-93051285D01*
X126642857Y-93003666D01*
X126785714Y-93003666D01*
X126880952Y-93051285D01*
X126928571Y-93098904D01*
X126976190Y-93194142D01*
X126976190Y-93575095D01*
X126785714Y-92146523D02*
X127452381Y-92146523D01*
X126404762Y-92384619D02*
X127119048Y-92622714D01*
X127119048Y-92003666D01*
X124785381Y-107100666D02*
X124309190Y-107434000D01*
X124785381Y-107672095D02*
X123785381Y-107672095D01*
X123785381Y-107291142D01*
X123833000Y-107195904D01*
X123880619Y-107148285D01*
X123975857Y-107100666D01*
X124118714Y-107100666D01*
X124213952Y-107148285D01*
X124261571Y-107195904D01*
X124309190Y-107291142D01*
X124309190Y-107672095D01*
X123785381Y-106195904D02*
X123785381Y-106672095D01*
X124261571Y-106719714D01*
X124213952Y-106672095D01*
X124166333Y-106576857D01*
X124166333Y-106338761D01*
X124213952Y-106243523D01*
X124261571Y-106195904D01*
X124356810Y-106148285D01*
X124594905Y-106148285D01*
X124690143Y-106195904D01*
X124737762Y-106243523D01*
X124785381Y-106338761D01*
X124785381Y-106576857D01*
X124737762Y-106672095D01*
X124690143Y-106719714D01*
X124785381Y-93003666D02*
X124309190Y-93337000D01*
X124785381Y-93575095D02*
X123785381Y-93575095D01*
X123785381Y-93194142D01*
X123833000Y-93098904D01*
X123880619Y-93051285D01*
X123975857Y-93003666D01*
X124118714Y-93003666D01*
X124213952Y-93051285D01*
X124261571Y-93098904D01*
X124309190Y-93194142D01*
X124309190Y-93575095D01*
X123785381Y-92146523D02*
X123785381Y-92337000D01*
X123833000Y-92432238D01*
X123880619Y-92479857D01*
X124023476Y-92575095D01*
X124213952Y-92622714D01*
X124594905Y-92622714D01*
X124690143Y-92575095D01*
X124737762Y-92527476D01*
X124785381Y-92432238D01*
X124785381Y-92241761D01*
X124737762Y-92146523D01*
X124690143Y-92098904D01*
X124594905Y-92051285D01*
X124356810Y-92051285D01*
X124261571Y-92098904D01*
X124213952Y-92146523D01*
X124166333Y-92241761D01*
X124166333Y-92432238D01*
X124213952Y-92527476D01*
X124261571Y-92575095D01*
X124356810Y-92622714D01*
X119578381Y-80303666D02*
X119102190Y-80637000D01*
X119578381Y-80875095D02*
X118578381Y-80875095D01*
X118578381Y-80494142D01*
X118626000Y-80398904D01*
X118673619Y-80351285D01*
X118768857Y-80303666D01*
X118911714Y-80303666D01*
X119006952Y-80351285D01*
X119054571Y-80398904D01*
X119102190Y-80494142D01*
X119102190Y-80875095D01*
X118578381Y-79970333D02*
X118578381Y-79303666D01*
X119578381Y-79732238D01*
X116022381Y-80049666D02*
X115546190Y-80383000D01*
X116022381Y-80621095D02*
X115022381Y-80621095D01*
X115022381Y-80240142D01*
X115070000Y-80144904D01*
X115117619Y-80097285D01*
X115212857Y-80049666D01*
X115355714Y-80049666D01*
X115450952Y-80097285D01*
X115498571Y-80144904D01*
X115546190Y-80240142D01*
X115546190Y-80621095D01*
X115450952Y-79478238D02*
X115403333Y-79573476D01*
X115355714Y-79621095D01*
X115260476Y-79668714D01*
X115212857Y-79668714D01*
X115117619Y-79621095D01*
X115070000Y-79573476D01*
X115022381Y-79478238D01*
X115022381Y-79287761D01*
X115070000Y-79192523D01*
X115117619Y-79144904D01*
X115212857Y-79097285D01*
X115260476Y-79097285D01*
X115355714Y-79144904D01*
X115403333Y-79192523D01*
X115450952Y-79287761D01*
X115450952Y-79478238D01*
X115498571Y-79573476D01*
X115546190Y-79621095D01*
X115641429Y-79668714D01*
X115831905Y-79668714D01*
X115927143Y-79621095D01*
X115974762Y-79573476D01*
X116022381Y-79478238D01*
X116022381Y-79287761D01*
X115974762Y-79192523D01*
X115927143Y-79144904D01*
X115831905Y-79097285D01*
X115641429Y-79097285D01*
X115546190Y-79144904D01*
X115498571Y-79192523D01*
X115450952Y-79287761D01*
X104592381Y-58459666D02*
X104116190Y-58793000D01*
X104592381Y-59031095D02*
X103592381Y-59031095D01*
X103592381Y-58650142D01*
X103640000Y-58554904D01*
X103687619Y-58507285D01*
X103782857Y-58459666D01*
X103925714Y-58459666D01*
X104020952Y-58507285D01*
X104068571Y-58554904D01*
X104116190Y-58650142D01*
X104116190Y-59031095D01*
X104592381Y-57983476D02*
X104592381Y-57793000D01*
X104544762Y-57697761D01*
X104497143Y-57650142D01*
X104354286Y-57554904D01*
X104163810Y-57507285D01*
X103782857Y-57507285D01*
X103687619Y-57554904D01*
X103640000Y-57602523D01*
X103592381Y-57697761D01*
X103592381Y-57888238D01*
X103640000Y-57983476D01*
X103687619Y-58031095D01*
X103782857Y-58078714D01*
X104020952Y-58078714D01*
X104116190Y-58031095D01*
X104163810Y-57983476D01*
X104211429Y-57888238D01*
X104211429Y-57697761D01*
X104163810Y-57602523D01*
X104116190Y-57554904D01*
X104020952Y-57507285D01*
X108656381Y-59062857D02*
X108180190Y-59396191D01*
X108656381Y-59634286D02*
X107656381Y-59634286D01*
X107656381Y-59253333D01*
X107704000Y-59158095D01*
X107751619Y-59110476D01*
X107846857Y-59062857D01*
X107989714Y-59062857D01*
X108084952Y-59110476D01*
X108132571Y-59158095D01*
X108180190Y-59253333D01*
X108180190Y-59634286D01*
X108656381Y-58110476D02*
X108656381Y-58681905D01*
X108656381Y-58396191D02*
X107656381Y-58396191D01*
X107799238Y-58491429D01*
X107894476Y-58586667D01*
X107942095Y-58681905D01*
X107656381Y-57491429D02*
X107656381Y-57396190D01*
X107704000Y-57300952D01*
X107751619Y-57253333D01*
X107846857Y-57205714D01*
X108037333Y-57158095D01*
X108275429Y-57158095D01*
X108465905Y-57205714D01*
X108561143Y-57253333D01*
X108608762Y-57300952D01*
X108656381Y-57396190D01*
X108656381Y-57491429D01*
X108608762Y-57586667D01*
X108561143Y-57634286D01*
X108465905Y-57681905D01*
X108275429Y-57729524D01*
X108037333Y-57729524D01*
X107846857Y-57681905D01*
X107751619Y-57634286D01*
X107704000Y-57586667D01*
X107656381Y-57491429D01*
X91492381Y-62981905D02*
X92301905Y-62981905D01*
X92397143Y-62934286D01*
X92444762Y-62886667D01*
X92492381Y-62791429D01*
X92492381Y-62600952D01*
X92444762Y-62505714D01*
X92397143Y-62458095D01*
X92301905Y-62410476D01*
X91492381Y-62410476D01*
X91587619Y-61981905D02*
X91540000Y-61934286D01*
X91492381Y-61839048D01*
X91492381Y-61600952D01*
X91540000Y-61505714D01*
X91587619Y-61458095D01*
X91682857Y-61410476D01*
X91778095Y-61410476D01*
X91920952Y-61458095D01*
X92492381Y-62029524D01*
X92492381Y-61410476D01*
X177452857Y-89814286D02*
X178424286Y-89814286D01*
X178538571Y-89757143D01*
X178595714Y-89700000D01*
X178652857Y-89585714D01*
X178652857Y-89357143D01*
X178595714Y-89242857D01*
X178538571Y-89185714D01*
X178424286Y-89128571D01*
X177452857Y-89128571D01*
X177452857Y-87985714D02*
X177452857Y-88557143D01*
X178024286Y-88614286D01*
X177967143Y-88557143D01*
X177910000Y-88442857D01*
X177910000Y-88157143D01*
X177967143Y-88042857D01*
X178024286Y-87985714D01*
X178138571Y-87928571D01*
X178424286Y-87928571D01*
X178538571Y-87985714D01*
X178595714Y-88042857D01*
X178652857Y-88157143D01*
X178652857Y-88442857D01*
X178595714Y-88557143D01*
X178538571Y-88614286D01*
X177452857Y-73304286D02*
X178424286Y-73304286D01*
X178538571Y-73247143D01*
X178595714Y-73190000D01*
X178652857Y-73075714D01*
X178652857Y-72847143D01*
X178595714Y-72732857D01*
X178538571Y-72675714D01*
X178424286Y-72618571D01*
X177452857Y-72618571D01*
X177452857Y-71532857D02*
X177452857Y-71761428D01*
X177510000Y-71875714D01*
X177567143Y-71932857D01*
X177738571Y-72047143D01*
X177967143Y-72104286D01*
X178424286Y-72104286D01*
X178538571Y-72047143D01*
X178595714Y-71990000D01*
X178652857Y-71875714D01*
X178652857Y-71647143D01*
X178595714Y-71532857D01*
X178538571Y-71475714D01*
X178424286Y-71418571D01*
X178138571Y-71418571D01*
X178024286Y-71475714D01*
X177967143Y-71532857D01*
X177910000Y-71647143D01*
X177910000Y-71875714D01*
X177967143Y-71990000D01*
X178024286Y-72047143D01*
X178138571Y-72104286D01*
X136723381Y-93575095D02*
X135723381Y-93575095D01*
X135723381Y-93337000D01*
X135771000Y-93194142D01*
X135866238Y-93098904D01*
X135961476Y-93051285D01*
X136151952Y-93003666D01*
X136294810Y-93003666D01*
X136485286Y-93051285D01*
X136580524Y-93098904D01*
X136675762Y-93194142D01*
X136723381Y-93337000D01*
X136723381Y-93575095D01*
X136723381Y-92051285D02*
X136723381Y-92622714D01*
X136723381Y-92337000D02*
X135723381Y-92337000D01*
X135866238Y-92432238D01*
X135961476Y-92527476D01*
X136009095Y-92622714D01*
X130627381Y-93575095D02*
X129627381Y-93575095D01*
X129627381Y-93337000D01*
X129675000Y-93194142D01*
X129770238Y-93098904D01*
X129865476Y-93051285D01*
X130055952Y-93003666D01*
X130198810Y-93003666D01*
X130389286Y-93051285D01*
X130484524Y-93098904D01*
X130579762Y-93194142D01*
X130627381Y-93337000D01*
X130627381Y-93575095D01*
X129722619Y-92622714D02*
X129675000Y-92575095D01*
X129627381Y-92479857D01*
X129627381Y-92241761D01*
X129675000Y-92146523D01*
X129722619Y-92098904D01*
X129817857Y-92051285D01*
X129913095Y-92051285D01*
X130055952Y-92098904D01*
X130627381Y-92670333D01*
X130627381Y-92051285D01*
X121610381Y-93448095D02*
X120610381Y-93448095D01*
X120610381Y-93210000D01*
X120658000Y-93067142D01*
X120753238Y-92971904D01*
X120848476Y-92924285D01*
X121038952Y-92876666D01*
X121181810Y-92876666D01*
X121372286Y-92924285D01*
X121467524Y-92971904D01*
X121562762Y-93067142D01*
X121610381Y-93210000D01*
X121610381Y-93448095D01*
X120610381Y-92543333D02*
X120610381Y-91924285D01*
X120991333Y-92257619D01*
X120991333Y-92114761D01*
X121038952Y-92019523D01*
X121086571Y-91971904D01*
X121181810Y-91924285D01*
X121419905Y-91924285D01*
X121515143Y-91971904D01*
X121562762Y-92019523D01*
X121610381Y-92114761D01*
X121610381Y-92400476D01*
X121562762Y-92495714D01*
X121515143Y-92543333D01*
X145335143Y-106933666D02*
X145382762Y-106981285D01*
X145430381Y-107124142D01*
X145430381Y-107219380D01*
X145382762Y-107362238D01*
X145287524Y-107457476D01*
X145192286Y-107505095D01*
X145001810Y-107552714D01*
X144858952Y-107552714D01*
X144668476Y-107505095D01*
X144573238Y-107457476D01*
X144478000Y-107362238D01*
X144430381Y-107219380D01*
X144430381Y-107124142D01*
X144478000Y-106981285D01*
X144525619Y-106933666D01*
X144430381Y-106028904D02*
X144430381Y-106505095D01*
X144906571Y-106552714D01*
X144858952Y-106505095D01*
X144811333Y-106409857D01*
X144811333Y-106171761D01*
X144858952Y-106076523D01*
X144906571Y-106028904D01*
X145001810Y-105981285D01*
X145239905Y-105981285D01*
X145335143Y-106028904D01*
X145382762Y-106076523D01*
X145430381Y-106171761D01*
X145430381Y-106409857D01*
X145382762Y-106505095D01*
X145335143Y-106552714D01*
X139874143Y-106806666D02*
X139921762Y-106854285D01*
X139969381Y-106997142D01*
X139969381Y-107092380D01*
X139921762Y-107235238D01*
X139826524Y-107330476D01*
X139731286Y-107378095D01*
X139540810Y-107425714D01*
X139397952Y-107425714D01*
X139207476Y-107378095D01*
X139112238Y-107330476D01*
X139017000Y-107235238D01*
X138969381Y-107092380D01*
X138969381Y-106997142D01*
X139017000Y-106854285D01*
X139064619Y-106806666D01*
X138969381Y-105949523D02*
X138969381Y-106140000D01*
X139017000Y-106235238D01*
X139064619Y-106282857D01*
X139207476Y-106378095D01*
X139397952Y-106425714D01*
X139778905Y-106425714D01*
X139874143Y-106378095D01*
X139921762Y-106330476D01*
X139969381Y-106235238D01*
X139969381Y-106044761D01*
X139921762Y-105949523D01*
X139874143Y-105901904D01*
X139778905Y-105854285D01*
X139540810Y-105854285D01*
X139445571Y-105901904D01*
X139397952Y-105949523D01*
X139350333Y-106044761D01*
X139350333Y-106235238D01*
X139397952Y-106330476D01*
X139445571Y-106378095D01*
X139540810Y-106425714D01*
X122499381Y-80906857D02*
X122023190Y-81240191D01*
X122499381Y-81478286D02*
X121499381Y-81478286D01*
X121499381Y-81097333D01*
X121547000Y-81002095D01*
X121594619Y-80954476D01*
X121689857Y-80906857D01*
X121832714Y-80906857D01*
X121927952Y-80954476D01*
X121975571Y-81002095D01*
X122023190Y-81097333D01*
X122023190Y-81478286D01*
X122499381Y-79954476D02*
X122499381Y-80525905D01*
X122499381Y-80240191D02*
X121499381Y-80240191D01*
X121642238Y-80335429D01*
X121737476Y-80430667D01*
X121785095Y-80525905D01*
X122499381Y-79002095D02*
X122499381Y-79573524D01*
X122499381Y-79287810D02*
X121499381Y-79287810D01*
X121642238Y-79383048D01*
X121737476Y-79478286D01*
X121785095Y-79573524D01*
X113101381Y-80271857D02*
X112625190Y-80605191D01*
X113101381Y-80843286D02*
X112101381Y-80843286D01*
X112101381Y-80462333D01*
X112149000Y-80367095D01*
X112196619Y-80319476D01*
X112291857Y-80271857D01*
X112434714Y-80271857D01*
X112529952Y-80319476D01*
X112577571Y-80367095D01*
X112625190Y-80462333D01*
X112625190Y-80843286D01*
X113101381Y-79319476D02*
X113101381Y-79890905D01*
X113101381Y-79605191D02*
X112101381Y-79605191D01*
X112244238Y-79700429D01*
X112339476Y-79795667D01*
X112387095Y-79890905D01*
X112196619Y-78938524D02*
X112149000Y-78890905D01*
X112101381Y-78795667D01*
X112101381Y-78557571D01*
X112149000Y-78462333D01*
X112196619Y-78414714D01*
X112291857Y-78367095D01*
X112387095Y-78367095D01*
X112529952Y-78414714D01*
X113101381Y-78986143D01*
X113101381Y-78367095D01*
X92773667Y-108656381D02*
X92440333Y-108180190D01*
X92202238Y-108656381D02*
X92202238Y-107656381D01*
X92583191Y-107656381D01*
X92678429Y-107704000D01*
X92726048Y-107751619D01*
X92773667Y-107846857D01*
X92773667Y-107989714D01*
X92726048Y-108084952D01*
X92678429Y-108132571D01*
X92583191Y-108180190D01*
X92202238Y-108180190D01*
X93202238Y-108132571D02*
X93535572Y-108132571D01*
X93678429Y-108656381D02*
X93202238Y-108656381D01*
X93202238Y-107656381D01*
X93678429Y-107656381D01*
X94440334Y-108132571D02*
X94107000Y-108132571D01*
X94107000Y-108656381D02*
X94107000Y-107656381D01*
X94583191Y-107656381D01*
X95107000Y-107656381D02*
X95107000Y-107894476D01*
X94868905Y-107799238D02*
X95107000Y-107894476D01*
X95345096Y-107799238D01*
X94964143Y-108084952D02*
X95107000Y-107894476D01*
X95249858Y-108084952D01*
X95868905Y-107656381D02*
X95868905Y-107894476D01*
X95630810Y-107799238D02*
X95868905Y-107894476D01*
X96107001Y-107799238D01*
X95726048Y-108084952D02*
X95868905Y-107894476D01*
X96011763Y-108084952D01*
X174688667Y-108529381D02*
X174355333Y-108053190D01*
X174117238Y-108529381D02*
X174117238Y-107529381D01*
X174498191Y-107529381D01*
X174593429Y-107577000D01*
X174641048Y-107624619D01*
X174688667Y-107719857D01*
X174688667Y-107862714D01*
X174641048Y-107957952D01*
X174593429Y-108005571D01*
X174498191Y-108053190D01*
X174117238Y-108053190D01*
X175117238Y-108005571D02*
X175450572Y-108005571D01*
X175593429Y-108529381D02*
X175117238Y-108529381D01*
X175117238Y-107529381D01*
X175593429Y-107529381D01*
X176355334Y-108005571D02*
X176022000Y-108005571D01*
X176022000Y-108529381D02*
X176022000Y-107529381D01*
X176498191Y-107529381D01*
X177022000Y-107529381D02*
X177022000Y-107767476D01*
X176783905Y-107672238D02*
X177022000Y-107767476D01*
X177260096Y-107672238D01*
X176879143Y-107957952D02*
X177022000Y-107767476D01*
X177164858Y-107957952D01*
X177783905Y-107529381D02*
X177783905Y-107767476D01*
X177545810Y-107672238D02*
X177783905Y-107767476D01*
X178022001Y-107672238D01*
X177641048Y-107957952D02*
X177783905Y-107767476D01*
X177926763Y-107957952D01*
X104058095Y-87610381D02*
X104058095Y-88419905D01*
X104105714Y-88515143D01*
X104153333Y-88562762D01*
X104248571Y-88610381D01*
X104439048Y-88610381D01*
X104534286Y-88562762D01*
X104581905Y-88515143D01*
X104629524Y-88419905D01*
X104629524Y-87610381D01*
X105629524Y-88610381D02*
X105058095Y-88610381D01*
X105343809Y-88610381D02*
X105343809Y-87610381D01*
X105248571Y-87753238D01*
X105153333Y-87848476D01*
X105058095Y-87896095D01*
X135858381Y-62102905D02*
X136667905Y-62102905D01*
X136763143Y-62055286D01*
X136810762Y-62007667D01*
X136858381Y-61912429D01*
X136858381Y-61721952D01*
X136810762Y-61626714D01*
X136763143Y-61579095D01*
X136667905Y-61531476D01*
X135858381Y-61531476D01*
X136191714Y-60626714D02*
X136858381Y-60626714D01*
X135810762Y-60864810D02*
X136525048Y-61102905D01*
X136525048Y-60483857D01*
X67322857Y-75844286D02*
X68294286Y-75844286D01*
X68408571Y-75787143D01*
X68465714Y-75730000D01*
X68522857Y-75615714D01*
X68522857Y-75387143D01*
X68465714Y-75272857D01*
X68408571Y-75215714D01*
X68294286Y-75158571D01*
X67322857Y-75158571D01*
X67322857Y-74701428D02*
X67322857Y-73958571D01*
X67780000Y-74358571D01*
X67780000Y-74187143D01*
X67837143Y-74072857D01*
X67894286Y-74015714D01*
X68008571Y-73958571D01*
X68294286Y-73958571D01*
X68408571Y-74015714D01*
X68465714Y-74072857D01*
X68522857Y-74187143D01*
X68522857Y-74530000D01*
X68465714Y-74644286D01*
X68408571Y-74701428D01*
X153467381Y-59031095D02*
X152467381Y-59031095D01*
X153467381Y-58459666D02*
X152895952Y-58888238D01*
X152467381Y-58459666D02*
X153038810Y-59031095D01*
X153467381Y-57507285D02*
X153467381Y-58078714D01*
X153467381Y-57793000D02*
X152467381Y-57793000D01*
X152610238Y-57888238D01*
X152705476Y-57983476D01*
X152753095Y-58078714D01*
X151054381Y-55221095D02*
X150054381Y-55221095D01*
X150054381Y-54840142D01*
X150102000Y-54744904D01*
X150149619Y-54697285D01*
X150244857Y-54649666D01*
X150387714Y-54649666D01*
X150482952Y-54697285D01*
X150530571Y-54744904D01*
X150578190Y-54840142D01*
X150578190Y-55221095D01*
X150054381Y-53744904D02*
X150054381Y-54221095D01*
X150530571Y-54268714D01*
X150482952Y-54221095D01*
X150435333Y-54125857D01*
X150435333Y-53887761D01*
X150482952Y-53792523D01*
X150530571Y-53744904D01*
X150625810Y-53697285D01*
X150863905Y-53697285D01*
X150959143Y-53744904D01*
X151006762Y-53792523D01*
X151054381Y-53887761D01*
X151054381Y-54125857D01*
X151006762Y-54221095D01*
X150959143Y-54268714D01*
X101036381Y-58681857D02*
X100560190Y-59015191D01*
X101036381Y-59253286D02*
X100036381Y-59253286D01*
X100036381Y-58872333D01*
X100084000Y-58777095D01*
X100131619Y-58729476D01*
X100226857Y-58681857D01*
X100369714Y-58681857D01*
X100464952Y-58729476D01*
X100512571Y-58777095D01*
X100560190Y-58872333D01*
X100560190Y-59253286D01*
X101036381Y-57729476D02*
X101036381Y-58300905D01*
X101036381Y-58015191D02*
X100036381Y-58015191D01*
X100179238Y-58110429D01*
X100274476Y-58205667D01*
X100322095Y-58300905D01*
X100036381Y-57396143D02*
X100036381Y-56777095D01*
X100417333Y-57110429D01*
X100417333Y-56967571D01*
X100464952Y-56872333D01*
X100512571Y-56824714D01*
X100607810Y-56777095D01*
X100845905Y-56777095D01*
X100941143Y-56824714D01*
X100988762Y-56872333D01*
X101036381Y-56967571D01*
X101036381Y-57253286D01*
X100988762Y-57348524D01*
X100941143Y-57396143D01*
M02*
